<svg width="80" height="85" viewBox="0 0 80 85" fill="none" xmlns="http://www.w3.org/2000/svg">
<g clip-path="url(#clip0_471_166)">
<path fill-rule="evenodd" clip-rule="evenodd" d="M46.5954 82.0336C46.6257 82.4219 46.6065 82.8236 46.7102 83.1921C46.7543 83.3477 47.0557 83.432 47.2404 83.5487L47.4804 83.7017C47.3902 83.754 47.3003 83.8501 47.2089 83.8512C46.4925 83.8635 45.7759 83.8638 45.0595 83.852C44.9643 83.8505 44.871 83.7616 44.7773 83.7131C44.8533 83.6586 44.9263 83.564 45.0065 83.5575C45.4869 83.5175 45.6332 83.2276 45.6308 82.7988C45.6266 82.0107 45.6285 81.2219 45.632 80.4331C45.6339 79.9936 45.5084 79.6728 44.9873 79.653C44.9151 79.6499 44.8468 79.5401 44.7769 79.4802C44.8468 79.4379 44.9174 79.3578 44.9866 79.3589C45.9042 79.37 46.8257 79.3497 47.7384 79.4264C48.4576 79.4871 48.9314 79.9814 48.9801 80.5513C49.0331 81.1765 48.7102 81.6056 47.9799 81.881L47.7 81.9848C48.1704 82.4265 48.587 82.8583 49.05 83.2329C49.2554 83.3996 49.5465 83.4988 49.8137 83.5445C50.3486 83.6353 50.6389 83.4068 50.6534 82.8801C50.6769 82.0298 50.6657 81.1784 50.6577 80.3278C50.6538 79.9379 50.4853 79.6805 50.0476 79.6591C49.965 79.6553 49.8863 79.5626 49.806 79.5111C49.8978 79.4577 49.9896 79.3585 50.0806 79.3589C51.0144 79.3665 51.9524 79.3379 52.88 79.4203C54.4631 79.5599 55.3451 80.8687 54.882 82.3148C54.5998 83.1967 53.924 83.6952 53.0547 83.754C51.535 83.8569 50.0069 83.836 48.4821 83.8467C48.3608 83.8474 48.2111 83.7166 48.1197 83.609C47.7687 83.1951 47.4378 82.7649 47.0953 82.3441C46.9916 82.2167 46.876 82.0996 46.7658 81.9775L46.5954 82.0336ZM51.6326 79.7949C51.6326 80.8572 51.6195 81.8868 51.6464 82.9152C51.6506 83.0731 51.8038 83.3115 51.9459 83.3679C52.5053 83.5896 53.4095 83.2276 53.6622 82.6653C54.0004 81.9127 54.0415 81.1204 53.5842 80.4064C53.1331 79.7018 52.3817 79.772 51.6326 79.7949ZM46.633 81.5347C47.1175 81.5469 47.6516 81.6541 47.8586 81.1254C47.9745 80.829 47.9484 80.3694 47.7883 80.0993C47.5453 79.6889 47.0565 79.7606 46.6326 79.8124L46.633 81.5347Z" fill="#337BA2"/>
<path fill-rule="evenodd" clip-rule="evenodd" d="M67.1423 81.3151C67.4626 81.2465 67.7801 81.2564 67.9863 81.1103C68.1594 80.9882 68.2024 80.6846 68.3349 80.3909C68.4113 80.5271 68.4831 80.5965 68.4847 80.6671C68.4943 81.1935 68.4962 81.7202 68.4847 82.2466C68.4827 82.329 68.3979 82.4095 68.3514 82.4911C68.2992 82.4477 68.2213 82.4149 68.1982 82.3592C67.9168 81.6836 67.9183 81.6832 67.1066 81.7553C67.2253 82.2825 66.8137 82.9565 67.4483 83.3032C67.772 83.4799 68.2942 83.4448 68.6728 83.3292C68.9957 83.2315 69.2411 82.8825 69.5221 82.6433V83.8243C69.3666 83.838 69.2487 83.8571 69.1301 83.8571C67.5401 83.8594 65.9501 83.8525 64.3605 83.8644C64.0864 83.8666 63.9009 83.798 63.7335 83.5695C63.4045 83.1186 63.0428 82.6914 62.6872 82.2604C62.5981 82.1524 62.4822 82.0666 62.2952 81.8934C62.2952 82.3336 62.2791 82.6491 62.2998 82.9622C62.3213 83.2895 62.4799 83.5066 62.8443 83.5474C62.9514 83.5596 63.0474 83.6713 63.1484 83.7381C63.0443 83.7782 62.941 83.8518 62.8366 83.8537C62.1351 83.8636 61.434 83.8632 60.7325 83.8541C60.625 83.8525 60.5182 83.7881 60.4 83.7492L60.4599 83.6336C61.3215 83.288 61.3238 83.288 61.323 82.2955C61.3224 81.6762 61.3174 81.057 61.308 80.4378C61.3015 80.0102 61.1848 79.6711 60.6595 79.6528C60.5839 79.6501 60.5121 79.5433 60.438 79.4846C60.5248 79.4415 60.6119 79.3606 60.6983 79.3613C61.5856 79.3697 62.478 79.3408 63.3592 79.4224C64.3237 79.5116 64.92 80.3108 64.5617 81.0462C64.3659 81.4479 63.9136 81.7263 63.5154 82.1211C63.8932 82.4644 64.3283 82.958 64.8558 83.317C65.6011 83.8243 66.1106 83.5348 66.1294 82.6502C66.1452 81.9075 66.1267 81.1641 66.1237 80.4206C66.1221 79.9801 65.9851 79.66 65.4644 79.6528C65.3934 79.6516 65.3235 79.5765 65.2394 79.5269C65.5101 79.3285 68.1187 79.2565 69.251 79.4003L69.324 80.6262L69.1961 80.6781C68.9327 80.4046 68.9654 79.8393 68.4205 79.8374C68.0043 79.8355 67.5881 79.792 67.1412 79.7653C67.1423 80.2826 67.1423 80.7533 67.1423 81.3151ZM62.2864 81.531C63.2885 81.5711 63.6863 81.301 63.6625 80.6293C63.6391 79.9816 63.2037 79.7203 62.2864 79.8202V81.531Z" fill="#515151"/>
<path fill-rule="evenodd" clip-rule="evenodd" d="M34.423 81.8235C34.8055 80.6994 35.1829 79.5741 35.5761 78.4538C35.6302 78.2997 35.7627 78.1727 35.859 78.0327C35.9543 78.1769 36.0844 78.3092 36.1389 78.4675C36.4964 79.5047 36.8366 80.5468 37.1841 81.5874C37.2117 81.6709 37.2474 81.7514 37.3281 81.957C37.6844 80.884 38.0142 79.9323 38.3126 78.9707C38.4162 78.6376 38.2815 78.397 37.8913 78.3535C37.7627 78.3386 37.6379 78.2886 37.4878 78.2489C37.7474 77.9632 39.7751 77.9423 40.1091 78.2078C40.0185 78.2505 39.9463 78.3111 39.8718 78.3142C39.2383 78.3386 38.9449 78.7326 38.7645 79.2758C38.2815 80.7291 37.7892 82.179 37.2989 83.6301C37.2478 83.7807 37.1837 83.9268 37.1253 84.0748L36.9637 84.0863L35.5895 79.9586L34.1999 84.0737L34.064 84.0821C33.993 83.9291 33.9058 83.7807 33.854 83.6217C33.4059 82.2557 32.9636 80.8878 32.5201 79.5207C32.33 78.9336 32.14 78.35 31.3636 78.3127C31.3129 78.3104 31.2665 78.2253 31.2177 78.1791C31.2784 78.1296 31.339 78.0369 31.4005 78.0361C32.2728 78.0269 33.146 78.0269 34.0183 78.0365C34.079 78.0369 34.1385 78.1307 34.1988 78.1811C34.1339 78.2291 34.0763 78.2989 34.0037 78.321C33.3049 78.5308 33.2546 78.6113 33.4746 79.2846C33.7522 80.1364 34.0383 80.9847 34.3209 81.835L34.423 81.8235Z" fill="#3179A1"/>
<path fill-rule="evenodd" clip-rule="evenodd" d="M55.1297 78.2259C55.2368 78.1339 55.2967 78.0374 55.3551 78.0386C56.4905 78.0554 57.635 78.0031 58.7585 78.1328C59.8213 78.2552 60.4099 79.2463 60.0893 80.177C59.8021 81.012 59.0937 81.2733 58.2924 81.3458C57.9541 81.3766 57.6105 81.3507 57.2081 81.3507C57.2438 81.905 57.2618 82.4111 57.3137 82.9139C57.3571 83.3388 57.645 83.509 58.052 83.5433C58.1438 83.5513 58.2275 83.6531 58.3147 83.7119C58.2187 83.7599 58.1234 83.8492 58.0267 83.8503C57.1854 83.8614 56.3434 83.861 55.5021 83.8511C55.4012 83.85 55.3013 83.7676 55.2011 83.7229C55.2848 83.66 55.367 83.5463 55.453 83.5429C56.0147 83.5215 56.2255 83.1752 56.2324 82.6904C56.2493 81.5151 56.2478 80.3399 56.2332 79.1646C56.2271 78.6649 55.984 78.3453 55.4376 78.3231C55.3562 78.3201 55.2756 78.2736 55.1297 78.2259ZM57.2503 80.7839C58.2801 80.8899 58.6721 80.7923 58.9202 80.3387C59.169 79.884 59.1697 79.4084 58.8756 78.9785C58.469 78.3838 57.847 78.5596 57.2503 78.5383V80.7839Z" fill="#4D4D4D"/>
<path fill-rule="evenodd" clip-rule="evenodd" d="M41.9183 84.0287C40.9984 83.9891 40.2489 83.7022 39.6937 83.019C38.9054 82.0494 39.0252 80.7326 39.9667 79.8942C40.9823 78.9902 42.6613 78.9513 43.7038 79.829C44.4095 80.4237 44.7439 81.1766 44.5143 82.0998C44.2551 83.1411 43.5156 83.6988 42.5108 83.9521C42.3012 84.0043 42.08 84.0089 41.9183 84.0287ZM43.6631 81.6451L43.5771 81.589C43.5199 81.3185 43.4864 81.0401 43.4012 80.7784C43.1547 80.0266 42.6387 79.655 41.8796 79.6535C41.1232 79.652 40.6144 80.0254 40.3671 80.7853C40.1475 81.4608 40.1759 82.1303 40.5142 82.7612C41.0191 83.7026 42.3684 83.8792 43.0288 83.0419C43.3367 82.6517 43.4573 82.115 43.6631 81.6451Z" fill="#3279A1"/>
<path fill-rule="evenodd" clip-rule="evenodd" d="M77.1169 79.3959L77.4597 79.0977V80.7669L77.3603 80.8413C77.2801 80.7287 77.1691 80.6269 77.1242 80.5014C76.8972 79.8701 76.4081 79.5275 75.8498 79.6939C75.6582 79.7507 75.4278 79.9414 75.3768 80.1173C75.3349 80.2607 75.4862 80.5445 75.6344 80.6414C76.0214 80.8947 76.4526 81.0823 76.8684 81.291C77.7731 81.7457 78.0964 82.3762 77.7903 83.0975C77.4797 83.8303 76.5375 84.2095 75.6931 83.9264C75.4605 83.8478 75.2451 83.7189 75.0297 83.6171L74.7006 84.0466L74.5551 84.0023C74.5551 83.4389 74.5516 82.8755 74.5608 82.3121C74.5616 82.2576 74.6434 82.2046 74.6875 82.1508C74.7567 82.2339 74.8596 82.3072 74.8899 82.4025C75.0907 83.0342 75.4774 83.4538 76.1666 83.524C76.5594 83.564 76.9433 83.516 77.0796 83.0712C77.204 82.6642 76.9184 82.4346 76.6116 82.261C76.2741 82.0703 75.9174 81.9143 75.5718 81.7384C75.4201 81.661 75.2654 81.5843 75.1291 81.4848C74.6465 81.1312 74.456 80.6215 74.5989 80.1047C74.7263 79.6427 75.1836 79.2514 75.7496 79.235C76.1685 79.2232 76.5924 79.3303 77.1169 79.3959ZM70.8702 83.6022C70.8065 83.7281 70.7711 83.8337 70.7055 83.9154C70.6659 83.9642 70.5688 84.0107 70.5173 83.9947C70.4686 83.9794 70.4167 83.8826 70.4156 83.8208C70.4075 83.3253 70.4075 82.8294 70.416 82.3346C70.4167 82.274 70.4843 82.2149 70.5212 82.155C70.5918 82.1996 70.6924 82.2286 70.7274 82.2931C70.7923 82.4128 70.8072 82.5585 70.8641 82.6837C71.1205 83.249 71.64 83.6026 72.236 83.5167C72.4851 83.4813 72.7927 83.2932 72.9163 83.0827C73.083 82.8 72.8833 82.509 72.6038 82.3484C72.2279 82.1325 71.8386 81.9383 71.4484 81.7491C70.5665 81.3215 70.1944 80.6154 70.5104 79.949C70.8245 79.2865 71.789 79.0107 72.595 79.3555C72.6932 79.3975 72.7866 79.4509 72.8637 79.4905L73.2776 79.1526C73.321 79.2735 73.3487 79.3151 73.3491 79.3567C73.3521 79.8205 73.351 80.284 73.351 80.7474L73.2293 80.8283C73.1482 80.7253 73.0357 80.6341 72.9916 80.5178C72.7716 79.9334 72.4233 79.6096 71.9127 79.6714C71.6731 79.7 71.3678 79.8636 71.2499 80.0597C71.0772 80.3477 71.3267 80.5788 71.5897 80.7192C71.9595 80.9172 72.3381 81.0976 72.7132 81.2849C73.6416 81.7476 73.9684 82.3903 73.6478 83.125C73.3356 83.8406 72.363 84.211 71.5295 83.9173C71.3129 83.8414 71.1121 83.7189 70.8702 83.6022Z" fill="#505050"/>
<path fill-rule="evenodd" clip-rule="evenodd" d="M55.0441 36.3213C44.7612 36.139 36.1693 44.4283 36.1666 54.4802C36.1635 64.8213 44.3596 73.0717 54.6263 73.0564C64.7975 73.0415 73.0304 64.8221 73.0304 54.6831C73.03 44.709 64.8347 36.4949 55.0441 36.3213ZM54.6033 72.1344C44.8791 72.1367 37.0585 64.3037 37.0589 54.5622C37.0593 45.0718 45.0012 37.2139 54.596 37.2105C64.3609 37.2074 72.1411 45.0889 72.138 54.9811C72.135 64.3201 64.149 72.1325 54.6033 72.1344ZM63.97 49.4966C63.5884 48.8718 63.1192 48.2656 62.9034 47.5844C62.6576 46.8093 62.4538 45.927 62.5839 45.15C62.8051 43.8324 63.8222 43.1782 65.1995 43.0531C57.6646 36.1058 45.824 38.5925 41.461 46.141C43.1405 46.0635 44.7439 45.9624 46.3485 45.9411C46.6522 45.9369 47.1548 46.1917 47.2262 46.4282C47.386 46.9565 46.939 47.1407 46.4637 47.177C45.9641 47.2159 45.4638 47.2529 44.8837 47.2968L50.6181 64.269C50.756 64.0451 50.8128 63.9821 50.8378 63.9085C51.8983 60.7596 52.9649 57.6127 53.9985 54.4547C54.093 54.1667 54.0462 53.7852 53.9425 53.4892C53.3957 51.9211 52.7407 50.3869 52.2611 48.7997C51.9328 47.7129 51.4978 47.0099 50.205 47.1358C49.9846 47.1571 49.7162 46.6864 49.4693 46.4431C49.7677 46.2665 50.0637 45.9411 50.3647 45.9365C52.9975 45.8965 55.6308 45.8972 58.2636 45.9388C58.5654 45.9438 58.8614 46.2779 59.1601 46.4591C58.8987 46.6964 58.6737 47.0519 58.368 47.1434C57.8781 47.2903 57.3348 47.2624 56.7485 47.3143L62.4899 64.2827C63.3599 61.4127 64.1693 58.7769 64.9557 56.1349C65.6583 53.7768 65.2398 51.5739 63.97 49.4966ZM50.2284 69.4136C50.1931 69.5154 50.1912 69.6283 50.1639 69.7977C53.4115 70.6918 56.5953 70.6273 59.8551 69.5364L54.8759 55.9873C53.2821 60.5891 51.7539 65.001 50.2284 69.4136ZM47.7192 68.801L40.2174 48.3568C36.8332 54.9242 39.4076 64.9445 47.7192 68.801ZM68.6267 47.6675C68.523 48.8096 68.5952 50.081 68.2654 51.2387C67.4886 53.9668 66.5391 56.648 65.6249 59.3364C64.6312 62.2583 63.5976 65.1673 62.5812 68.0819C67.3566 65.2699 69.9806 61.1193 70.3983 55.6638C70.6364 52.5588 69.5582 48.2592 68.6267 47.6675Z" fill="#494949"/>
</g>
<rect x="4.28397" y="1.83301" width="41.8959" height="41.6218" rx="10.1053" fill="white"/>
<path d="M40.2724 2.71042C38.7353 1.18338 36.8857 0.420898 34.7216 0.420898H8.53645C6.37235 0.420898 4.5228 1.18338 2.9857 2.71042C1.44861 4.23746 0.681107 6.07491 0.681107 8.22485V34.2387C0.681107 36.3886 1.44861 38.2261 2.9857 39.7531C4.5228 41.2802 6.37235 42.0427 8.53645 42.0427H14.6471C15.0455 42.0427 15.3454 42.0281 15.5467 42.001C15.7809 41.9543 15.9923 41.8302 16.1464 41.6489C16.3457 41.4406 16.4463 41.1385 16.4463 40.7427L16.4316 38.899C16.4233 37.724 16.4191 36.7949 16.4191 36.1074L15.79 36.2157C15.3915 36.2886 14.8883 36.3199 14.278 36.3116C13.642 36.2999 13.008 36.2365 12.3823 36.122C11.7163 35.9998 11.0894 35.7213 10.5538 35.3095C9.9928 34.8879 9.57441 34.3066 9.35428 33.6429L9.08167 33.0179C8.8519 32.5249 8.56323 32.0612 8.2219 31.6367C7.83186 31.1305 7.43553 30.7888 7.035 30.6076L6.84627 30.4721C6.71467 30.3785 6.59497 30.2694 6.48978 30.1472C6.38932 30.0337 6.30661 29.9059 6.24444 29.768C6.18991 29.6409 6.23605 29.5368 6.38074 29.4555C6.52753 29.3722 6.78965 29.3326 7.1734 29.3326L7.71862 29.4159C8.0814 29.4868 8.53226 29.7034 9.06699 30.0638C9.60814 30.4303 10.0602 30.9122 10.3902 31.4742C10.8096 32.2138 11.3129 32.7783 11.9042 33.1679C12.4956 33.5554 13.0911 33.7512 13.6909 33.7512C14.2906 33.7512 14.8086 33.7054 15.2468 33.6158C15.6707 33.5287 16.0825 33.3917 16.4736 33.2075C16.6371 31.9992 17.0817 31.0659 17.8094 30.4159C16.8665 30.3241 15.932 30.1611 15.0141 29.9284C14.1182 29.6839 13.2567 29.3291 12.4494 28.8722C11.6049 28.4154 10.8589 27.7982 10.2539 27.0556C9.67302 26.3327 9.19491 25.3848 8.82164 24.2119C8.45048 23.0369 8.26384 21.6807 8.26384 20.1453C8.26384 17.96 8.98102 16.0996 10.4175 14.5622C9.74642 12.9205 9.80933 11.0769 10.6083 9.03732C11.1367 8.87275 11.9189 8.99566 12.9548 9.4019C13.9907 9.80814 14.7499 10.156 15.2322 10.4435C15.7145 10.7352 16.1003 10.9789 16.3918 11.1768C18.0966 10.7055 19.8584 10.4686 21.628 10.4727C23.4293 10.4727 25.174 10.7081 26.8663 11.1768L27.9022 10.5269C28.699 10.0516 29.5395 9.65257 30.4123 9.33523C31.3769 8.97274 32.1109 8.87483 32.6225 9.03732C33.4404 11.0789 33.5117 12.9205 32.8385 14.5643C34.275 16.0996 34.9942 17.96 34.9942 20.1474C34.9942 21.6828 34.8076 23.0432 34.4343 24.2244C34.0632 25.4077 33.5809 26.3556 32.9895 27.0702C32.3739 27.8032 31.6248 28.4145 30.7814 28.8722C29.9006 29.3597 29.0451 29.7117 28.2168 29.9284C27.2988 30.1619 26.3644 30.3255 25.4215 30.418C26.3651 31.2305 26.839 32.5117 26.839 34.2637V40.7427C26.839 41.0489 26.8831 41.2968 26.9753 41.4864C27.0177 41.5777 27.0782 41.6597 27.1531 41.7273C27.2281 41.795 27.3159 41.8469 27.4115 41.8802C27.6128 41.951 27.789 41.9968 27.9441 42.0135C28.0993 42.0343 28.3216 42.0406 28.611 42.0406H34.7216C36.8857 42.0406 38.7353 41.2781 40.2724 39.751C41.8074 38.2261 42.577 36.3866 42.577 34.2366V8.22485C42.577 6.07491 41.8095 4.23746 40.2724 2.71042Z" fill="#1B1919"/>
<defs>
<clipPath id="clip0_471_166">
<rect width="49.1471" height="48.8255" fill="white" transform="translate(29.9864 35.7896)"/>
</clipPath>
</defs>
</svg>
