<svg width="74" height="75" viewBox="0 0 74 75" fill="none" xmlns="http://www.w3.org/2000/svg">
<g clip-path="url(#clip0_468_164)">
<path d="M64.0999 32.7349H41.8427C36.4196 32.7349 32.0234 37.1322 32.0234 42.5565V64.819C32.0234 70.2433 36.4196 74.6407 41.8427 74.6407H64.0999C69.523 74.6407 73.9192 70.2433 73.9192 64.819V42.5565C73.9192 37.1322 69.523 32.7349 64.0999 32.7349Z" fill="#398FC2"/>
<path d="M40.8204 49.5381L41.2887 54.7668H52.987V49.5381H40.8204ZM52.9869 38.9551H39.8788L40.3541 44.1838H52.9869V38.9551ZM52.9869 68.5578V63.1177L52.9639 63.1238L47.1421 61.5515L46.7699 57.3812H41.5223L42.2546 65.5911L52.9628 68.5645L52.9869 68.5578Z" fill="#EBEBEB"/>
<path d="M59.4059 54.7668L58.7991 61.548L52.9688 63.1221V68.5618L63.6855 65.5911L63.7641 64.7077L64.9925 50.9423L65.12 49.5381L66.0638 38.9551H52.9688V44.1838H60.3348L59.8592 49.5381H52.9688V54.7668H59.4059Z" fill="white"/>
</g>
<g clip-path="url(#clip1_468_164)">
<path d="M32.7576 0.463135H10.5005C5.07738 0.463135 0.681107 4.86045 0.681107 10.2848V32.5473C0.681107 37.9716 5.07738 42.3689 10.5005 42.3689H32.7576C38.1807 42.3689 42.577 37.9716 42.577 32.5473V10.2848C42.577 4.86045 38.1807 0.463135 32.7576 0.463135Z" fill="#E5663C"/>
<path d="M8.53658 6.68335L9.94565 22.4951H28.064L27.456 29.277L21.6223 30.8546L15.7996 29.2792L15.4103 24.9246H10.1633L10.9137 33.3191L21.6212 36.2937L32.3423 33.3191L33.7797 17.267H14.7267L14.2483 11.9126H34.2533L34.7215 6.68335H8.53658Z" fill="white"/>
<path d="M21.629 6.68335H8.53658L9.94565 22.4951H21.629V17.267H14.7267L14.2483 11.9126H21.629V6.68335ZM21.629 30.8524L21.6223 30.8546L15.7996 29.2792L15.4103 24.9246H10.1633L10.9137 33.3191L21.6212 36.2937L21.6292 36.2914V30.8524H21.629Z" fill="#EBEBEB"/>
</g>
<defs>
<clipPath id="clip0_468_164">
<rect width="41.8959" height="41.9058" fill="white" transform="translate(32.0234 32.7349)"/>
</clipPath>
<clipPath id="clip1_468_164">
<rect width="41.8959" height="41.9058" fill="white" transform="translate(0.681107 0.463135)"/>
</clipPath>
</defs>
</svg>
