<svg width="74" height="77" viewBox="0 0 74 77" fill="none" xmlns="http://www.w3.org/2000/svg">
<g clip-path="url(#clip0_471_165)">
<path d="M63.7074 34.874H41.6969C36.3339 34.874 31.9864 39.2216 31.9864 44.5845V66.5951C31.9864 71.9581 36.3339 76.3056 41.6969 76.3056H63.7074C69.0704 76.3056 73.4179 71.9581 73.4179 66.5951V44.5845C73.4179 39.2216 69.0704 34.874 63.7074 34.874Z" fill="url(#paint0_linear_471_165)"/>
<path d="M44.8104 45.9991C43.1942 48.3649 43.3956 51.4423 44.6269 53.953L44.7175 54.1318L44.7787 54.2451C44.79 54.2671 44.8029 54.2888 44.8148 54.3102C44.8361 54.35 44.8575 54.3882 44.8759 54.4273L44.9938 54.6332L45.0609 54.7465L45.1977 54.9643L45.2589 55.0561C45.32 55.154 45.3891 55.2513 45.4571 55.3472L45.4626 55.3549C45.4733 55.3702 45.4853 55.3854 45.4934 55.4008C45.5519 55.4834 45.6156 55.5648 45.6767 55.6455L45.7447 55.7336L45.9114 55.9423L45.975 56.02C46.0509 56.1115 46.1284 56.2018 46.2076 56.2905L46.2124 56.2953C46.2155 56.2992 46.2186 56.3015 46.2217 56.3054C46.2984 56.3919 46.377 56.4766 46.4578 56.5593L46.5337 56.637L46.7224 56.8255L46.7994 56.9001C46.8842 56.9814 46.9705 57.0612 47.0579 57.1396L47.1069 57.1824L47.3416 57.3844L47.4387 57.4633L47.6345 57.6163L47.7392 57.6974L48.0385 57.916C48.0461 57.9212 48.0527 57.9267 48.0605 57.9319C48.1307 57.9809 48.2021 58.0283 48.2736 58.0757L48.3661 58.1384L48.7001 58.3465L48.7925 58.3994L49.0434 58.5425C49.0892 58.5676 49.1361 58.5915 49.1819 58.6153L49.3612 58.7071L49.4025 58.7273L49.476 58.7634L49.7603 58.8974L49.8207 58.928C49.9304 58.9767 50.041 59.0235 50.1523 59.0683L50.2331 59.1008L50.5459 59.2188L50.5851 59.2329C50.7007 59.2737 50.8169 59.3125 50.9338 59.3493L51.018 59.3748C51.1404 59.4116 51.2551 59.4554 51.3781 59.4789C59.1935 60.9339 61.4643 54.6987 61.4643 54.6987C59.5576 57.2287 56.1732 57.8954 52.9667 57.1531C52.8452 57.1225 52.7274 57.0867 52.6087 57.051L52.5194 57.0204C52.404 56.9842 52.2892 56.9462 52.175 56.9063L52.1276 56.8888C52.0258 56.8521 51.9245 56.8138 51.8238 56.774L51.7382 56.7397C51.628 56.6956 51.5186 56.6493 51.4101 56.6009L51.3448 56.5716L51.0682 56.44L50.9887 56.4008C50.9168 56.3647 50.8454 56.3277 50.7744 56.2898L50.6317 56.2133C50.5453 56.166 50.4599 56.1172 50.3753 56.0668L50.2887 56.0178C50.1763 55.9502 50.065 55.8809 49.9547 55.8098C49.9241 55.7899 49.8947 55.7688 49.8644 55.7486L49.6266 55.5877L49.5503 55.5327L49.3255 55.3675L49.2256 55.2909L49.0228 55.1294L48.9323 55.0561L48.6799 54.842C48.6703 54.8334 48.66 54.8255 48.6493 54.8183C48.5595 54.7377 48.471 54.6557 48.3839 54.5723L48.3091 54.499L48.1181 54.3087L48.0437 54.2322C47.9641 54.1496 47.8861 54.0656 47.8096 53.9802C47.8059 53.9758 47.8016 53.9719 47.798 53.9679C47.7171 53.8777 47.6379 53.7858 47.5606 53.6926L47.4984 53.6173L47.3272 53.4022L47.2644 53.3228L47.0671 53.0551C45.2868 50.5818 44.6505 47.1708 46.0698 44.3693L44.8104 45.9991ZM49.8273 44.0058C48.6588 45.7189 48.7221 48.0114 49.6338 49.8231C49.7862 50.1273 49.9589 50.4208 50.1507 50.7019C50.3258 50.9574 50.52 51.2619 50.7524 51.4668C50.8366 51.5585 50.9246 51.6503 51.0146 51.744C51.0373 51.7675 51.0606 51.7898 51.0837 51.8134C51.1711 51.9 51.2604 51.9847 51.3517 52.067C51.3554 52.0701 51.3588 52.0737 51.3627 52.0767C51.4656 52.1681 51.5708 52.2569 51.6782 52.343L51.7492 52.3991C51.856 52.4833 51.9653 52.5644 52.0765 52.6427C52.0794 52.6451 52.0824 52.6476 52.0857 52.6498C52.1346 52.6843 52.185 52.717 52.2349 52.75C52.2588 52.766 52.2813 52.7829 52.3053 52.7977C52.3851 52.85 52.466 52.9005 52.5479 52.9492L52.5822 52.9695L52.7963 53.0918C52.8214 53.1062 52.847 53.1187 52.8727 53.1321L53.0257 53.2111C53.0334 53.2151 53.041 53.2181 53.0483 53.2218C53.1514 53.2737 53.2551 53.3228 53.3613 53.3702C53.384 53.3802 53.4071 53.3894 53.4304 53.3992C53.5154 53.4361 53.6011 53.4715 53.6874 53.5053L53.7975 53.5464C53.8756 53.5754 53.9541 53.6032 54.0331 53.6299L54.1395 53.6644C54.2518 53.7002 54.3628 53.7448 54.48 53.7648C60.5141 54.7829 61.9075 50.051 61.9075 50.051C60.6518 51.8926 58.2201 52.7719 55.6247 52.086C55.5099 52.0554 55.396 52.0217 55.283 51.985C55.2484 51.9743 55.2146 51.963 55.1803 51.9544C55.1001 51.928 55.0205 51.9 54.9414 51.8706L54.8333 51.8296C54.7467 51.799 54.6611 51.7608 54.5764 51.7241C54.5531 51.7139 54.5298 51.7048 54.507 51.6941C54.4005 51.6475 54.2954 51.5978 54.1919 51.5451C54.1386 51.5185 54.0864 51.4907 54.0339 51.463L53.9428 51.4155C53.8755 51.3784 53.809 51.3402 53.7431 51.3007L53.6954 51.2701C53.6139 51.2214 53.5334 51.1712 53.4537 51.1196C53.4291 51.1036 53.4053 51.089 53.3809 51.0701L53.2242 50.9646C53.1136 50.8862 53.0049 50.8052 52.8981 50.7216L52.8246 50.6629C51.6888 49.7495 50.7882 48.5013 50.3603 47.0859C49.9115 45.6175 50.0084 43.9701 50.7885 42.6329L49.8273 44.0058ZM54.0459 42.5167C53.3569 43.5494 53.2895 44.8319 53.7706 45.9724C54.2748 47.1828 55.3078 48.1326 56.5134 48.5827C56.563 48.6017 56.6129 48.6183 56.6663 48.6357L56.7325 48.657C56.8034 48.6797 56.8741 48.7059 56.9473 48.7201C60.2793 49.3756 61.1828 46.9787 61.4233 46.6259C60.6316 47.787 59.3012 48.0656 57.6689 47.6622C57.5404 47.63 57.3981 47.5825 57.2711 47.538C57.1114 47.4802 56.9549 47.414 56.8022 47.3395C56.5117 47.197 56.2362 47.0257 55.9799 46.8282C54.5161 45.6994 53.6084 43.5464 54.5617 41.793M46.6874 64.4395L46.4618 65.2398L46.6874 64.4399V64.4395ZM53.3209 62.6072H52.2868C52.2575 62.6082 52.2294 62.6187 52.2066 62.6371C52.1837 62.6556 52.1675 62.6809 52.1603 62.7093L51.426 66.1072C51.4188 66.1355 51.4026 66.1607 51.3798 66.179C51.3571 66.1974 51.329 66.2079 51.2998 66.209H50.5678C49.8434 66.209 49.9272 65.7082 50.0782 65.022L50.0829 65.0013L50.1706 64.5332L50.2085 64.3405L50.5427 62.7093C50.5458 62.6968 50.5461 62.6838 50.5433 62.6713C50.5405 62.6587 50.5349 62.647 50.5267 62.637C50.5186 62.6271 50.5083 62.6191 50.4965 62.6139C50.4848 62.6087 50.472 62.6062 50.4592 62.6068H49.3976C49.3684 62.6079 49.3403 62.6184 49.3175 62.6368C49.2948 62.6552 49.2786 62.6806 49.2716 62.709L48.7933 64.977C48.5303 66.1774 48.6001 67.3223 50.0293 67.358L50.0706 67.3588H52.3135C52.3428 67.3578 52.371 67.3473 52.3938 67.3288C52.4165 67.3104 52.4328 67.2851 52.4399 67.2567L53.4071 62.709C53.4194 62.6528 53.3817 62.6068 53.3246 62.6068L53.3209 62.6072ZM57.4467 66.2209C57.5043 66.2209 57.5385 66.2667 57.5302 66.3231L57.4299 66.8141L57.4467 66.2209Z" fill="white"/>
<path d="M54.6803 65.5893C54.6795 65.5354 54.7407 65.443 54.7982 65.443L54.669 65.4409C54.6078 66.0264 54.6803 65.5893 54.6803 65.5893ZM57.4467 66.2213C57.5043 66.2213 57.5385 66.2671 57.5302 66.3234L57.4134 66.8942L57.4467 66.2213ZM55.5229 67.4179H55.4745H55.529H55.5229ZM40.3196 65.6014L40.4803 64.8893L40.2968 65.7031L40.2753 65.8052L40.3199 65.6009L40.3196 65.6014ZM42.2426 62.5959H41.1068C41.0774 62.5969 41.0491 62.6074 41.0262 62.6257C41.0032 62.6441 40.9868 62.6694 40.9793 62.6978L40.7639 63.646C40.7603 63.6583 40.7597 63.6713 40.7622 63.6838C40.7647 63.6964 40.7701 63.7082 40.7781 63.7181C40.7861 63.7281 40.7964 63.7361 40.808 63.7413C40.8197 63.7465 40.8325 63.7488 40.8453 63.748H41.99C42.0192 63.7469 42.0474 63.7364 42.0702 63.718C42.093 63.6996 42.1092 63.6744 42.1165 63.646L42.3247 62.6955C42.3368 62.6397 42.3001 62.5938 42.2421 62.5938L42.2426 62.5959ZM38.6958 69.284L39.6326 69.2914C39.356 69.2914 38.8994 69.2862 38.6955 69.2838L38.6958 69.284Z" fill="white"/>
<path d="M41.9134 64.0746H40.7684C40.739 64.0756 40.7107 64.0861 40.6878 64.1045C40.6648 64.1229 40.6483 64.1481 40.6408 64.1766L40.3196 65.6008L40.2749 65.8052L39.969 67.2592C39.954 67.327 39.9355 67.3941 39.914 67.4602C39.914 67.4602 39.6999 68.0965 39.3408 68.0894L38.9844 68.0828C38.9551 68.0835 38.9269 68.0936 38.9038 68.1115C38.8807 68.1295 38.8639 68.1543 38.8559 68.1825L38.6188 69.1806C38.6151 69.1928 38.6144 69.2057 38.6167 69.2182C38.619 69.2308 38.6243 69.2426 38.6321 69.2527C38.6399 69.2627 38.65 69.2708 38.6616 69.2762C38.6731 69.2815 38.6858 69.284 38.6986 69.2835L39.6356 69.2911C40.5339 69.2911 41.0071 68.7933 41.3107 67.3616L41.999 64.1801C42.0113 64.1243 41.9739 64.0783 41.9165 64.0783L41.9134 64.0746ZM58.1763 67.3595C58.1188 67.3595 58.0845 67.3137 58.0937 67.2574L58.9549 63.2236L58.1763 67.3595Z" fill="white"/>
<path d="M58.1062 67.3085C58.0992 67.2803 58.1033 67.2114 58.1154 67.1554L58.5241 65.2405L58.0934 67.2573C58.0811 67.3137 58.1185 67.3595 58.1759 67.3595H58.2807C58.2232 67.3595 58.113 67.3365 58.1062 67.3085ZM59.3054 67.3365C59.2742 67.3488 59.2014 67.3595 59.1439 67.3595H59.2485C59.2777 67.3583 59.3057 67.3476 59.3283 67.3292C59.3509 67.3107 59.3669 67.2854 59.3739 67.257L59.3948 67.1549C59.3835 67.211 59.3336 67.324 59.303 67.3365H59.3054ZM62.9451 63.4937L62.9925 63.6895C63.0058 63.7455 62.9694 63.791 62.9121 63.7913M59.701 65.6363L59.7432 65.4332L59.9075 64.6638L59.7215 65.535L59.701 65.636V65.6363ZM58.969 63.1572L58.9332 63.3254L58.5244 65.2405L58.9552 63.2236L58.969 63.1576V63.1572Z" fill="white"/>
<path d="M62.9928 63.6896L62.9454 63.4937L62.8752 63.1879C62.7821 62.8268 62.5093 62.6178 61.9164 62.6178L59.1876 62.6161C59.1584 62.6171 59.1302 62.6276 59.1075 62.646C59.0848 62.6644 59.0687 62.6898 59.0617 62.7182L59.0195 62.9181L58.9583 63.2199L58.1188 67.1519C58.1065 67.2082 58.1026 67.2742 58.1096 67.3048C58.1167 67.3354 58.2268 67.3559 58.284 67.3559H59.1467C59.2041 67.3559 59.2766 67.3454 59.3082 67.333C59.3397 67.3203 59.3859 67.2106 59.3999 67.1512L59.7274 65.5317L60.0776 63.8907C60.0848 63.8624 60.101 63.8373 60.1237 63.8189C60.1464 63.8006 60.1745 63.7901 60.2037 63.7889L62.9179 63.7876C62.9752 63.7876 63.0116 63.7418 62.9983 63.6858L62.9928 63.6896ZM66.4873 61.9174L66.2784 61.9182H65.4096C65.3778 61.9202 65.3468 61.9289 65.3186 61.9438C65.2905 61.9586 65.2658 61.9793 65.2462 62.0045L63.3251 64.8189C63.2927 64.8663 63.2557 64.8594 63.2426 64.8037L63.1011 64.1835C63.0935 64.1551 63.0771 64.1299 63.0541 64.1116C63.0312 64.0933 63.0029 64.0828 62.9736 64.0817H61.7387C61.6811 64.0817 61.647 64.1267 61.6628 64.1821L62.2134 66.1209C62.2293 66.1759 62.2302 66.2667 62.2165 66.3227L61.9718 67.2611C61.9675 67.2731 61.9664 67.286 61.9684 67.2986C61.9705 67.3111 61.9757 67.323 61.9836 67.333C61.9914 67.343 62.0016 67.3509 62.0133 67.356C62.025 67.3612 62.0377 67.3633 62.0504 67.3623H63.274C63.3035 67.3611 63.3319 67.3507 63.3553 67.3326C63.3787 67.3145 63.3959 67.2896 63.4044 67.2613L63.6491 66.3231C63.6682 66.257 63.6983 66.1946 63.7378 66.1384L66.8599 61.9985C66.8945 61.9525 66.8759 61.9153 66.8183 61.9158L66.4911 61.918L66.4873 61.9174ZM56.6748 64.3454C56.6676 64.4065 56.6101 64.4525 56.5525 64.4525H54.9862C54.9321 64.4525 54.9046 64.4158 54.9129 64.3698L54.914 64.3615L54.9211 64.335C55.0741 63.9373 55.3754 63.6763 55.9477 63.6763C56.5923 63.6763 56.7181 63.9914 56.6744 64.3454H56.6748ZM56.2154 62.5381C54.2056 62.5381 53.7293 63.758 53.4623 64.9893C53.1949 66.2444 53.2181 67.4182 55.2977 67.4182H55.6274L55.8813 67.4173L57.2047 67.4093C57.2338 67.408 57.2616 67.3973 57.284 67.3789C57.3065 67.3604 57.3223 67.3351 57.3292 67.3069L57.5302 66.3244C57.5418 66.268 57.5043 66.2221 57.4467 66.2221H55.5769C54.8336 66.2221 54.6125 66.0245 54.6937 65.4436H57.6826C57.7067 65.4433 57.7301 65.4358 57.7498 65.4221C57.7696 65.4084 57.7847 65.389 57.7933 65.3666C57.7967 65.3582 57.7992 65.3495 57.8006 65.3405C58.2442 63.6672 58.117 62.5394 56.216 62.5394L56.2154 62.5381ZM46.7156 64.3387L46.6874 64.4387L46.4618 65.2389L46.236 66.0385C46.2267 66.0667 46.209 66.0914 46.1853 66.1093C46.1616 66.1272 46.133 66.1376 46.1033 66.1389H44.9083C44.0021 66.1389 43.7815 65.4302 44.0021 64.3848C44.2224 63.3157 44.6553 62.6509 45.5471 62.5837C46.7657 62.4919 47.0093 63.3491 46.7156 64.3384V64.3387ZM47.5348 66.0777C47.5348 66.0777 48.0977 64.7103 48.2262 63.9202C48.4005 62.8626 47.8714 61.3291 45.8264 61.3291C43.7929 61.3291 42.91 62.7931 42.5734 64.3882C42.2368 65.9911 42.6779 67.3972 44.6993 67.3862L47.7847 67.3749C47.8143 67.3734 47.8427 67.3628 47.8661 67.3446C47.8895 67.3265 47.9067 67.3015 47.9155 67.2732L48.1754 66.2828C48.1795 66.2708 48.1807 66.258 48.1787 66.2454C48.1767 66.2329 48.1717 66.221 48.1641 66.2109C48.1564 66.2007 48.1462 66.1926 48.1346 66.1874C48.1229 66.1822 48.1101 66.18 48.0974 66.1811L47.5997 66.1781C47.5508 66.1777 47.5232 66.1463 47.5287 66.1047C47.5299 66.0968 47.5319 66.089 47.5348 66.0814V66.0777Z" fill="white"/>
<path d="M57.6003 65.1626C57.6003 65.1807 57.5931 65.1981 57.5802 65.2109C57.5674 65.2238 57.55 65.231 57.5319 65.231C57.5138 65.231 57.4964 65.2238 57.4836 65.2109C57.4707 65.1981 57.4635 65.1807 57.4635 65.1626C57.4635 65.1445 57.4707 65.1271 57.4836 65.1143C57.4964 65.1014 57.5138 65.0942 57.5319 65.0942C57.55 65.0942 57.5674 65.1014 57.5802 65.1143C57.5931 65.1271 57.6003 65.1445 57.6003 65.1626Z" fill="white"/>
</g>
<g clip-path="url(#clip1_471_165)">
<path d="M32.3811 0.516113H10.3706C5.0076 0.516113 0.660049 4.86366 0.660049 10.2266V32.2372C0.660049 37.6001 5.0076 41.9477 10.3706 41.9477H32.3811C37.7441 41.9477 42.0916 37.6001 42.0916 32.2372V10.2266C42.0916 4.86366 37.7441 0.516113 32.3811 0.516113Z" fill="#F0DB4F"/>
<path d="M11.554 35.1392L14.7245 33.2204C15.3362 34.3049 15.8926 35.2226 17.2273 35.2226C18.5067 35.2226 19.3133 34.7221 19.3133 32.7755V19.5371H23.2069V32.8305C23.2069 36.8632 20.8431 38.6988 17.3942 38.6988C14.2795 38.6988 12.4716 37.0857 11.5538 35.1389M25.3217 34.722L28.4919 32.8865C29.3265 34.2494 30.4112 35.2506 32.33 35.2506C33.9434 35.2506 34.972 34.4439 34.972 33.3314C34.972 31.9966 33.9152 31.5237 32.1353 30.7452L31.1621 30.3278C28.353 29.1321 26.4896 27.6302 26.4896 24.4597C26.4896 21.5395 28.7146 19.3145 32.1911 19.3145C34.6663 19.3145 36.4463 20.1767 37.7255 22.4294L34.694 24.3762C34.0264 23.1804 33.3036 22.7076 32.1911 22.7076C31.0508 22.7076 30.3276 23.4307 30.3276 24.3762C30.3276 25.5442 31.0508 26.0171 32.7194 26.7404L33.6927 27.1575C37.0022 28.576 38.8656 30.0219 38.8656 33.2758C38.8656 36.7803 36.1124 38.6991 32.4135 38.6991C28.7981 38.6991 26.4619 36.9748 25.3217 34.722Z" fill="#323330"/>
</g>
<defs>
<linearGradient id="paint0_linear_471_165" x1="31.9864" y1="34.874" x2="73.4179" y2="76.3056" gradientUnits="userSpaceOnUse">
<stop stop-color="#FF985E"/>
<stop offset="1" stop-color="#FF0F00"/>
</linearGradient>
<clipPath id="clip0_471_165">
<rect width="41.4316" height="41.4316" fill="white" transform="translate(31.9864 34.874)"/>
</clipPath>
<clipPath id="clip1_471_165">
<rect width="41.4316" height="41.4316" fill="white" transform="translate(0.660049 0.516113)"/>
</clipPath>
</defs>
</svg>
