<svg width="358" height="497" viewBox="0 0 358 497" fill="none" xmlns="http://www.w3.org/2000/svg">
<g clip-path="url(#clip0_226_15991)">
<path d="M179.198 48.9352C192.22 48.9352 202.776 39.0483 202.776 26.8523C202.776 14.6563 192.22 4.76953 179.198 4.76953C166.176 4.76953 155.62 14.6563 155.62 26.8523C155.62 39.0483 166.176 48.9352 179.198 48.9352Z" stroke="#91C1CC" stroke-width="5.05263" stroke-miterlimit="10"/>
<path d="M179.198 48.9351V73.2416" stroke="#91C1CC" stroke-width="5.05263" stroke-miterlimit="10"/>
<path d="M5.47899 212.409C5.47899 136.957 82.4126 73.2412 178.373 73.2412C274.334 73.2412 352.95 136.957 352.95 212.409H5.47899Z" stroke="#91C1CC" stroke-width="5.05263" stroke-miterlimit="10"/>
<path d="M357.401 476.322H0.136841V496.305H357.401V476.322Z" fill="#91C1CC"/>
<path d="M5.47899 476.322V212.41" stroke="#91C1CC" stroke-width="5.05263" stroke-miterlimit="10"/>
<path d="M35.1761 476.344V212.432" stroke="#91C1CC" stroke-width="5.05263" stroke-miterlimit="10"/>
<path d="M352.917 476.323V213.985" stroke="#91C1CC" stroke-width="5.05263" stroke-miterlimit="10"/>
<path d="M325.268 480.037C325.268 376.972 325.268 211.618 325.268 211.618" stroke="#91C1CC" stroke-width="5.05263" stroke-miterlimit="10"/>
<path d="M35.176 212.409C35.176 212.409 72.5526 73.3648 178.34 73.2413C284.128 73.1178 325.268 212.409 325.268 212.409" stroke="#91C1CC" stroke-width="5.05263" stroke-miterlimit="10"/>
<path d="M100.365 212.409C100.365 212.409 133.46 68.0524 179.198 73.2411C225.233 68.979 257.227 212.409 257.227 212.409" stroke="#91C1CC" stroke-width="5.05263" stroke-miterlimit="10"/>
</g>
<defs>
<clipPath id="clip0_226_15991">
<rect width="357.726" height="496.168" fill="white" transform="translate(0.136841 0.136719)"/>
</clipPath>
</defs>
</svg>
