<svg width="246" height="238" viewBox="0 0 246 238" fill="none" xmlns="http://www.w3.org/2000/svg">
<g clip-path="url(#clip0_289_97)">
<path d="M123.004 159.671C123.004 159.671 224.58 194.129 232.587 201.827L240.595 209.525C240.595 209.525 146.233 173.236 133.251 174.205C120.252 175.174 108.276 155.902 108.276 155.902L123.021 159.671H123.004Z" fill="url(#paint0_linear_289_97)"/>
<path d="M119.952 163.212C119.952 163.212 219.112 194.534 223.821 200.259" stroke="url(#paint1_linear_289_97)" stroke-width="0.5" stroke-miterlimit="10"/>
<path d="M135.227 145.948C135.227 145.948 231.3 193.618 238.196 202.32L245.092 211.023C245.092 211.023 156.427 162.49 143.411 161.715C130.412 160.94 121.099 140.258 121.099 140.258L135.209 145.948H135.227Z" fill="url(#paint2_linear_289_97)"/>
<path d="M131.734 149.031C131.734 149.031 225.832 193.265 229.73 199.572" stroke="url(#paint3_linear_289_97)" stroke-width="0.5" stroke-miterlimit="10"/>
<path d="M118.118 159.196C118.118 159.196 141.241 158.932 146.938 160.852C152.635 162.772 227.701 198.462 227.701 198.462C227.701 198.462 126.231 160.077 107.923 158.579L118.136 159.178L118.118 159.196Z" fill="url(#paint4_linear_289_97)"/>
<path d="M126.813 161.204C126.813 161.204 187.329 181.146 192.867 183.418" stroke="url(#paint5_linear_289_97)" stroke-width="0.56" stroke-miterlimit="10"/>
<path d="M53.4227 152.114C53.4227 152.114 36.4551 152.502 32.2221 166.665L29.2237 168.867C29.2237 168.867 33.88 168.673 34.3915 167.74C34.903 166.806 34.7443 162.437 41.7641 158.086L41.1644 161.398L45.7855 157.681C45.7855 157.681 52.5232 160.957 53.1405 162.596C53.7578 164.234 56.9855 168.568 58.2025 168.797C58.2025 168.797 60.9716 171.809 66.1219 171.245L61.148 168.409C61.148 168.409 55.1335 159.865 49.4189 156.641C49.9128 156.113 53.8107 153.382 56.0507 154.246C58.2907 155.109 53.4403 152.114 53.4403 152.114H53.4227Z" fill="url(#paint6_linear_289_97)"/>
<path d="M7.33519 56.5817C7.33519 56.5817 3.43724 34.1034 21.1456 29.8932C38.8539 25.6829 41.2526 37.0982 41.2526 37.0982C41.2526 37.0982 47.5493 62.5888 50.2655 63.4872C52.9817 64.3856 81.1845 87.181 81.7842 88.6783C82.3839 90.1757 95.2947 105.467 98.2932 106.365C101.292 107.263 147.838 143.553 149.037 145.948C150.236 148.344 123.215 137.546 120.517 138.743C117.818 139.941 141.841 157.029 143.64 161.239C145.439 165.45 69.1908 156.148 66.4923 151.938C66.4923 151.938 46.3852 160.64 29.2589 147.745C12.1503 134.85 12.75 123.752 9.45173 117.763C2.83756 111.755 -2.27739 85.9654 1.03851 79.9759C1.03851 79.9759 0.738667 60.4925 7.33519 56.5817Z" fill="url(#paint7_radial_289_97)"/>
<path d="M40.5471 149.084C40.5471 149.084 58.4847 164.075 67.4624 155.074C76.44 146.072 62.3121 138.426 57.5147 140.611C52.7172 142.795 39.5065 144.293 40.5471 149.084Z" fill="url(#paint8_linear_289_97)"/>
<path d="M120.57 140.241C121.575 135.819 91.8731 107.052 81.2375 103.035C72.4186 99.6884 68.0621 88.0794 68.0621 88.0794C68.0621 88.0794 68.9087 80.6101 55.9626 67.3628C42.7166 55.1195 17.3359 63.0644 13.9318 73.687C10.5453 89.3301 120.587 140.769 120.587 140.241H120.57Z" fill="url(#paint9_linear_289_97)"/>
<path d="M23.7207 87.868C23.7207 87.868 45.715 100.464 46.0501 103.458C46.3852 106.453 62.0475 118.45 61.0422 120.845C60.0368 123.241 50.7064 127.434 37.0548 120.845C23.4032 114.257 15.6073 107.651 15.6073 107.651C15.6073 107.651 8.39345 82.4598 23.7207 87.868Z" fill="url(#paint10_linear_289_97)"/>
<path d="M9.78682 82.0723C9.78682 82.0723 48.5194 117.463 45.5209 124.651C45.5209 124.651 13.7024 113.552 7.98777 106.065C2.27313 98.5786 3.45487 76.118 9.78682 82.0723Z" fill="url(#paint11_linear_289_97)"/>
<path d="M16.1011 69.3357C16.1011 69.3357 32.9099 76.3822 33.8095 79.377C34.709 82.3717 44.3216 97.962 41.623 100.058C38.9244 102.155 10.7393 87.6566 8.6051 84.697C6.47093 81.7375 9.76919 66.4819 16.1188 69.3357H16.1011Z" fill="url(#paint12_linear_289_97)"/>
<path d="M29.6117 76.3822C29.6117 76.3822 38.6246 86.2825 35.3087 88.0794C31.9928 89.8762 12.1856 83.3406 11.5859 81.0857C10.9862 78.8309 12.7852 67.8384 16.0835 69.3358C19.3818 70.8331 29.594 76.3822 29.594 76.3822H29.6117Z" fill="url(#paint13_linear_289_97)"/>
<path d="M17.9708 69.3534C17.9708 69.3534 64.4463 95.4429 70.8664 106.048C70.8664 106.048 83.16 108.567 88.3807 119.225C88.3807 119.225 64.799 127.61 34.2151 96.0595C3.63126 64.5089 17.9708 69.3534 17.9708 69.3534Z" fill="url(#paint14_linear_289_97)"/>
<path d="M14.7078 71.344C14.7078 71.344 61.395 108.144 69.0322 114.856C69.0322 114.856 80.1087 113.887 86.7228 120.951C86.7228 120.951 68.115 133.106 35.5204 115.807C2.92581 98.5081 14.6902 71.344 14.6902 71.344H14.7078Z" fill="url(#paint15_linear_289_97)"/>
<path d="M113.62 151.374C113.62 151.374 70.1256 146.389 61.4479 142.795L113.62 151.374Z" fill="url(#paint16_linear_289_97)"/>
<path d="M116.566 154.14C116.566 154.14 142.723 160.94 142.899 172.32C142.899 172.32 57.6558 159.072 37.4253 146.653C17.1947 134.251 86.9345 136.77 116.566 154.14Z" fill="url(#paint17_linear_289_97)"/>
<path d="M65.6633 151.445C65.6633 151.445 134.415 169.149 138.842 168.55" stroke="url(#paint18_linear_289_97)" stroke-width="0.5" stroke-miterlimit="10"/>
<path d="M114.696 149.489C114.696 149.489 136.514 152.695 137.625 161.697C137.625 161.697 67.3036 158.297 49.8246 150.159C32.3456 142.02 89.1568 138.197 114.696 149.489Z" fill="url(#paint19_linear_289_97)"/>
<path d="M73.1417 127.451C73.1417 127.451 130.429 147.076 118.1 155.091C118.1 155.091 50.6007 137.845 45.5915 134.392C40.5824 130.939 51.3062 114.662 73.1417 127.451Z" fill="url(#paint20_linear_289_97)"/>
<path d="M18.1472 123.136C18.1472 123.136 42.6108 152.502 63.8466 151.321C85.0825 150.141 94.0954 147.27 91.3968 142.39C88.6982 137.51 26.8426 117.71 18.1472 123.118V123.136Z" fill="url(#paint21_linear_289_97)"/>
<path d="M24.144 113.447C24.144 113.447 53.1052 115.032 61.4303 120.951C61.4303 120.951 71.4838 118.837 78.9269 125.179C78.9269 125.179 52.0646 129.16 30.67 125.39C12.4325 122.184 24.1264 113.447 24.1264 113.447H24.144Z" fill="url(#paint22_linear_289_97)"/>
<path d="M37.5663 119.982C37.5663 119.982 51.3238 113.975 55.6979 116.706C60.0721 119.436 69.7905 124.844 72.1187 124.193C72.1187 124.193 58.6611 137.211 37.8838 134.11C17.1065 131.01 32.2221 121.973 37.5487 119.965L37.5663 119.982Z" fill="url(#paint23_linear_289_97)"/>
<path d="M7.93484 105.995C7.93484 105.995 14.5843 136.348 33.2098 138.761C51.8176 141.157 54.2163 137.264 52.7171 136.066C51.2179 134.868 22.292 102.613 7.93484 105.995Z" fill="url(#paint24_linear_289_97)"/>
<path d="M15.9248 115.261C15.9248 115.261 21.7452 141.826 38.0425 143.923C54.3398 146.019 56.4387 142.619 55.1159 141.562C53.7931 140.505 28.5005 112.302 15.9248 115.261Z" fill="url(#paint25_linear_289_97)"/>
<path d="M19.2407 108.338C19.2407 108.338 25.0612 134.903 41.3585 136.999C57.6558 139.096 59.7547 135.696 58.4318 134.639C57.109 133.582 31.8164 105.378 19.2407 108.338Z" fill="url(#paint26_linear_289_97)"/>
<path d="M50.1244 63.7867C50.1244 63.7867 63.7761 89.0659 67.9738 91.2679C72.1716 93.4699 119.353 132.983 119.635 137.968C119.917 142.954 151.206 151.339 149.072 146.248C146.938 141.157 97.958 105.255 96.3177 105.061C94.6774 104.868 68.6088 69.7938 50.1244 63.7867Z" fill="url(#paint27_linear_289_97)"/>
<path d="M41.3231 38.4018C41.3231 38.4018 38.4305 34.4205 33.9329 34.6319C29.4353 34.8433 24.5143 33.9273 24.5143 33.9273L25.3962 35.6537L19.7345 34.8785L21.2161 37.7852L14.549 37.521L18.1648 39.3354L10.6334 39.5116L11.3918 40.9737L5.81831 43.9685L7.91721 43.8099L2.81989 47.157L5.6243 47.2451L1.53234 55.2605L6.418 51.3673L1.0032 59.2417L4.60131 57.4096L2.36131 61.8841L4.46021 60.9505L1.44415 65.9887L9.02839 59.7526L13.0498 56.4407L11.7446 59.136L10.3689 61.8665L27.0718 49.9404C27.0718 49.9404 31.3754 37.5386 41.3231 38.3842V38.4018Z" fill="url(#paint28_linear_289_97)"/>
<path d="M41.5525 38.2609C41.5525 38.2609 37.9544 33.804 32.5572 37.9966C32.5572 37.9966 28.1654 46.928 27.9185 50.5922C27.9185 50.5922 32.8394 42.9644 34.4445 44.0037C36.0495 45.0431 44.1452 51.8253 44.6038 51.4025C45.0624 50.9797 41.5525 38.2785 41.5525 38.2785V38.2609Z" fill="url(#paint29_radial_289_97)"/>
<path d="M26.8073 50.2751C26.8073 50.2751 37.5134 52.389 45.7503 56.2998C49.366 53.2698 35.5909 42.5592 33.3333 43.669C31.0757 44.7788 26.8073 50.2575 26.8073 50.2575V50.2751Z" fill="url(#paint30_radial_289_97)"/>
<path d="M38.7657 46.0824C37.2312 45.2897 35.2734 43.5457 35.7673 39.8992C35.926 38.7717 37.1078 38.1023 38.166 38.5075C40.2649 39.2826 43.0517 41.1147 41.2174 45.2192C40.794 46.1529 39.6652 46.5757 38.7657 46.1V46.0824Z" fill="url(#paint31_radial_289_97)"/>
<path d="M42.7695 43.9861C42.7695 43.9861 45.8208 46.6814 46.5439 49.3767C47.2671 52.0719 46.5439 54.1683 46.5439 54.1683C46.5439 54.1683 40.3707 46.6814 42.7695 43.9861Z" fill="url(#paint32_radial_289_97)"/>
<path d="M41.5524 38.2608C41.5524 38.2608 40.8469 33.3812 37.3194 31.4434C34.2504 29.7346 31.446 27.2155 31.446 27.2155V28.9771L27.9184 26V28.9771L23.5443 26L25.3433 28.9771L20.246 26V27.4974L16.0482 27.1979L18.1471 28.9595H12.3972L14.2492 30.1926L8.76383 34.9842L13.3673 33.8568L7.03533 37.9966H10.069L7.03533 40.6919L8.76383 40.7976L5.00699 43.6162L12.2208 41.696L16.0482 40.6743L14.2492 42.3302L12.3972 43.9861L16.0482 42.3302C16.0482 42.3302 35.1676 33.4516 41.5524 38.2432V38.2608Z" fill="url(#paint33_linear_289_97)"/>
<path d="M55.9625 147.833C55.9625 147.833 126.09 159.002 130.429 157.98" stroke="url(#paint34_linear_289_97)" stroke-width="0.5" stroke-miterlimit="10"/>
<path d="M63.2117 142.443C63.2117 142.443 81.2198 143.87 86.2995 143.147" stroke="url(#paint35_linear_289_97)" stroke-width="0.5" stroke-miterlimit="10"/>
</g>
<defs>
<linearGradient id="paint0_linear_289_97" x1="112.965" y1="190.976" x2="235.847" y2="174.429" gradientUnits="userSpaceOnUse">
<stop offset="0.16" stop-color="#FDF5E8"/>
<stop offset="0.24" stop-color="#F6E799"/>
<stop offset="0.59" stop-color="#EDB1AB"/>
<stop offset="0.72" stop-color="#F2D196"/>
<stop offset="1" stop-color="white"/>
</linearGradient>
<linearGradient id="paint1_linear_289_97" x1="123.125" y1="188.189" x2="220.784" y2="175.038" gradientUnits="userSpaceOnUse">
<stop offset="0.33" stop-color="#EFEFEF"/>
<stop offset="0.49" stop-color="#FEFEFE"/>
<stop offset="0.76" stop-color="#F7C5C0"/>
<stop offset="0.89" stop-color="#F6C1BB"/>
<stop offset="0.95" stop-color="#FFFBCF"/>
</linearGradient>
<linearGradient id="paint2_linear_289_97" x1="121.116" y1="175.632" x2="245.11" y2="175.632" gradientUnits="userSpaceOnUse">
<stop offset="0.16" stop-color="#FDF5E8"/>
<stop offset="0.24" stop-color="#F6E799"/>
<stop offset="0.59" stop-color="#EDB1AB"/>
<stop offset="0.72" stop-color="#F2D196"/>
<stop offset="1" stop-color="white"/>
</linearGradient>
<linearGradient id="paint3_linear_289_97" x1="131.54" y1="174.222" x2="230.1" y2="174.222" gradientUnits="userSpaceOnUse">
<stop offset="0.33" stop-color="#EFEFEF"/>
<stop offset="0.49" stop-color="#FEFEFE"/>
<stop offset="0.76" stop-color="#F7C5C0"/>
<stop offset="0.89" stop-color="#F6C1BB"/>
<stop offset="0.95" stop-color="#FFFBCF"/>
</linearGradient>
<linearGradient id="paint4_linear_289_97" x1="107.906" y1="178.521" x2="227.701" y2="178.521" gradientUnits="userSpaceOnUse">
<stop offset="0.13" stop-color="#F29558"/>
<stop offset="0.37" stop-color="#F3A891"/>
<stop offset="0.71" stop-color="#F1F1A5"/>
</linearGradient>
<linearGradient id="paint5_linear_289_97" x1="126.672" y1="172.302" x2="193.061" y2="172.302" gradientUnits="userSpaceOnUse">
<stop offset="0.05" stop-color="#FFFBCF"/>
<stop offset="0.11" stop-color="#F6C1BB"/>
<stop offset="0.24" stop-color="#F7C5C0"/>
<stop offset="0.51" stop-color="#FEFEFE"/>
<stop offset="0.67" stop-color="#EFEFEF"/>
</linearGradient>
<linearGradient id="paint6_linear_289_97" x1="49.77" y1="146.074" x2="47.7265" y2="169.475" gradientUnits="userSpaceOnUse">
<stop offset="0.1" stop-color="#604D3E"/>
<stop offset="0.45" stop-color="#BF9C79"/>
<stop offset="0.93" stop-color="#CAA37D"/>
<stop offset="1" stop-color="#F1F1F1"/>
</linearGradient>
<radialGradient id="paint7_radial_289_97" cx="0" cy="0" r="1" gradientUnits="userSpaceOnUse" gradientTransform="translate(94.6598 90.6161) scale(99.3359 99.2142)">
<stop offset="0.3" stop-color="#EA5248"/>
<stop offset="0.76" stop-color="#ED7E7E"/>
<stop offset="0.92" stop-color="#DD5B52"/>
<stop offset="1" stop-color="white"/>
</radialGradient>
<linearGradient id="paint8_linear_289_97" x1="54.481" y1="140.805" x2="56.6276" y2="158.492" gradientUnits="userSpaceOnUse">
<stop stop-color="#F3A891"/>
<stop offset="0.65" stop-color="#EA5248"/>
</linearGradient>
<linearGradient id="paint9_linear_289_97" x1="29.9821" y1="64.4385" x2="79.3515" y2="121.557" gradientUnits="userSpaceOnUse">
<stop stop-color="#E89587"/>
<stop offset="0.21" stop-color="#ED7E7E"/>
<stop offset="0.51" stop-color="#E84549"/>
<stop offset="1" stop-color="#E83E44"/>
</linearGradient>
<linearGradient id="paint10_linear_289_97" x1="13.9141" y1="105.748" x2="61.0951" y2="105.748" gradientUnits="userSpaceOnUse">
<stop stop-color="#FADEEB"/>
<stop offset="0.07" stop-color="#EA5248"/>
<stop offset="0.63" stop-color="#ED7E7E"/>
<stop offset="0.94" stop-color="#FEEE9A"/>
</linearGradient>
<linearGradient id="paint11_linear_289_97" x1="0.773925" y1="92.2192" x2="38.9458" y2="108.177" gradientUnits="userSpaceOnUse">
<stop stop-color="#FADEEB"/>
<stop offset="0.11" stop-color="#EA5248"/>
<stop offset="0.61" stop-color="#ED7E7E"/>
<stop offset="0.88" stop-color="#FEEE9A"/>
</linearGradient>
<linearGradient id="paint12_linear_289_97" x1="7.88195" y1="74.8848" x2="46.0297" y2="95.0587" gradientUnits="userSpaceOnUse">
<stop stop-color="#FADEEB"/>
<stop offset="0.09" stop-color="#EA5248"/>
<stop offset="0.77" stop-color="#ED7E7E"/>
<stop offset="0.98" stop-color="#F6E799"/>
</linearGradient>
<linearGradient id="paint13_linear_289_97" x1="11.7093" y1="72.8062" x2="37.2465" y2="90.2929" gradientUnits="userSpaceOnUse">
<stop stop-color="#FADEEB"/>
<stop offset="0.09" stop-color="#EA5248"/>
<stop offset="0.77" stop-color="#ED7E7E"/>
<stop offset="1" stop-color="#F6E799"/>
</linearGradient>
<linearGradient id="paint14_linear_289_97" x1="17.1209" y1="97.6632" x2="85.7476" y2="91.2286" gradientUnits="userSpaceOnUse">
<stop stop-color="#EA5248"/>
<stop offset="0.5" stop-color="#ED7E7E"/>
<stop offset="0.76" stop-color="#FEEE9A"/>
</linearGradient>
<linearGradient id="paint15_linear_289_97" x1="18.5983" y1="105.634" x2="73.0853" y2="85.4535" gradientUnits="userSpaceOnUse">
<stop stop-color="#EA5248"/>
<stop offset="0.42" stop-color="#ED7E7E"/>
<stop offset="0.69" stop-color="#FEEE9A"/>
</linearGradient>
<linearGradient id="paint16_linear_289_97" x1="59.4372" y1="157.769" x2="108.755" y2="138.967" gradientUnits="userSpaceOnUse">
<stop offset="0.15" stop-color="#EFEFEF"/>
<stop offset="0.75" stop-color="white"/>
<stop offset="0.87" stop-color="#ED7E7E"/>
<stop offset="0.95" stop-color="#FFFBCF"/>
</linearGradient>
<linearGradient id="paint17_linear_289_97" x1="31.8913" y1="148.616" x2="143.303" y2="160.359" gradientUnits="userSpaceOnUse">
<stop offset="0.15" stop-color="#EFEFEF"/>
<stop offset="0.79" stop-color="white"/>
<stop offset="0.89" stop-color="#F6C1BB"/>
<stop offset="0.95" stop-color="#FFFBCF"/>
</linearGradient>
<linearGradient id="paint18_linear_289_97" x1="65.0986" y1="156.524" x2="139.409" y2="163.557" gradientUnits="userSpaceOnUse">
<stop offset="0.57" stop-color="#EFEFEF"/>
<stop offset="0.79" stop-color="white"/>
<stop offset="0.89" stop-color="#F6C1BB"/>
<stop offset="0.95" stop-color="#FFFBCF"/>
</linearGradient>
<linearGradient id="paint19_linear_289_97" x1="46.544" y1="152.079" x2="137.625" y2="152.079" gradientUnits="userSpaceOnUse">
<stop offset="0.15" stop-color="#EFEFEF"/>
<stop offset="0.79" stop-color="white"/>
<stop offset="0.89" stop-color="#F6C1BB"/>
<stop offset="0.95" stop-color="#FFFBCF"/>
</linearGradient>
<linearGradient id="paint20_linear_289_97" x1="42.3901" y1="155.557" x2="111.054" y2="129.375" gradientUnits="userSpaceOnUse">
<stop offset="0.15" stop-color="#EFEFEF"/>
<stop offset="0.75" stop-color="white"/>
<stop offset="0.87" stop-color="#ED7E7E"/>
<stop offset="0.95" stop-color="#FFFBCF"/>
</linearGradient>
<linearGradient id="paint21_linear_289_97" x1="18.1472" y1="136.788" x2="91.8554" y2="136.788" gradientUnits="userSpaceOnUse">
<stop offset="0.43" stop-color="#EFEFEF"/>
<stop offset="0.9" stop-color="white"/>
<stop offset="1" stop-color="#EBEBEC"/>
</linearGradient>
<linearGradient id="paint22_linear_289_97" x1="24.6614" y1="127.178" x2="67.3293" y2="103.468" gradientUnits="userSpaceOnUse">
<stop stop-color="#EA5248"/>
<stop offset="0.16" stop-color="#ED7E7E"/>
<stop offset="0.51" stop-color="#FEEE9A"/>
</linearGradient>
<linearGradient id="paint23_linear_289_97" x1="29.1967" y1="133.854" x2="69.2609" y2="117.263" gradientUnits="userSpaceOnUse">
<stop stop-color="#EA5248"/>
<stop offset="0.16" stop-color="#ED7E7E"/>
<stop offset="0.51" stop-color="#FEEE9A"/>
</linearGradient>
<linearGradient id="paint24_linear_289_97" x1="31.8164" y1="106.77" x2="28.6317" y2="142.532" gradientUnits="userSpaceOnUse">
<stop stop-color="#EFEFEF"/>
<stop offset="0.16" stop-color="#F5E9A7"/>
<stop offset="0.7" stop-color="#F6E799"/>
<stop offset="1" stop-color="#A39D70"/>
</linearGradient>
<linearGradient id="paint25_linear_289_97" x1="36.8255" y1="115.948" x2="34.0455" y2="147.235" gradientUnits="userSpaceOnUse">
<stop stop-color="#EFEFEF"/>
<stop offset="0.16" stop-color="#F5E9A7"/>
<stop offset="0.7" stop-color="#F6E799"/>
<stop offset="1" stop-color="#A39D70"/>
</linearGradient>
<linearGradient id="paint26_linear_289_97" x1="40.1415" y1="109.025" x2="37.3615" y2="140.312" gradientUnits="userSpaceOnUse">
<stop stop-color="#EFEFEF"/>
<stop offset="0.16" stop-color="#F5E9A7"/>
<stop offset="0.7" stop-color="#F6E799"/>
<stop offset="1" stop-color="#A39D70"/>
</linearGradient>
<linearGradient id="paint27_linear_289_97" x1="46.2265" y1="105.801" x2="145.28" y2="105.801" gradientUnits="userSpaceOnUse">
<stop offset="0.34" stop-color="#DE5B5E"/>
<stop offset="0.44" stop-color="#F6E799"/>
<stop offset="0.71" stop-color="#F2F1F3"/>
<stop offset="0.79" stop-color="#EBEBEC"/>
<stop offset="0.86" stop-color="white"/>
</linearGradient>
<linearGradient id="paint28_linear_289_97" x1="-6.0935" y1="51.1741" x2="31.2114" y2="56.5805" gradientUnits="userSpaceOnUse">
<stop offset="0.15" stop-color="white"/>
<stop offset="0.38" stop-color="#E4847F"/>
<stop offset="0.85" stop-color="#DD5850"/>
</linearGradient>
<radialGradient id="paint29_radial_289_97" cx="0" cy="0" r="1" gradientUnits="userSpaceOnUse" gradientTransform="translate(39.0303 43.1405) scale(11.1294 11.1158)">
<stop stop-color="white"/>
<stop offset="0.4" stop-color="#F1F1F1"/>
<stop offset="0.74" stop-color="#ECA48E"/>
</radialGradient>
<radialGradient id="paint30_radial_289_97" cx="0" cy="0" r="1" gradientUnits="userSpaceOnUse" gradientTransform="translate(36.8785 44.8493) scale(12.7168 12.7013)">
<stop offset="0.15" stop-color="#F6F6F6"/>
<stop offset="0.66" stop-color="#ECA48E"/>
</radialGradient>
<radialGradient id="paint31_radial_289_97" cx="0" cy="0" r="1" gradientUnits="userSpaceOnUse" gradientTransform="translate(37.7427 40.4981) scale(3.52755 3.52323)">
<stop stop-color="#F2F1F3"/>
<stop offset="0.25" stop-color="#D90313"/>
<stop offset="0.97" stop-color="#BF000C"/>
</radialGradient>
<radialGradient id="paint32_radial_289_97" cx="0" cy="0" r="1" gradientUnits="userSpaceOnUse" gradientTransform="translate(44.5332 50.0989) scale(4.99149 4.98537)">
<stop offset="0.62" stop-color="#FAD4B1"/>
<stop offset="1" stop-color="#C8A17B"/>
</radialGradient>
<linearGradient id="paint33_linear_289_97" x1="6.06525" y1="27.5678" x2="30.1587" y2="43.1322" gradientUnits="userSpaceOnUse">
<stop offset="0.08" stop-color="white"/>
<stop offset="0.37" stop-color="#ECA48E"/>
<stop offset="0.81" stop-color="#DD544A"/>
</linearGradient>
<linearGradient id="paint34_linear_289_97" x1="55.892" y1="152.924" x2="130.517" y2="152.924" gradientUnits="userSpaceOnUse">
<stop offset="0.57" stop-color="#EFEFEF"/>
<stop offset="0.79" stop-color="white"/>
<stop offset="0.89" stop-color="#F6C1BB"/>
<stop offset="0.95" stop-color="#FFFBCF"/>
</linearGradient>
<linearGradient id="paint35_linear_289_97" x1="63.1764" y1="142.883" x2="86.3701" y2="142.883" gradientUnits="userSpaceOnUse">
<stop offset="0.57" stop-color="#EFEFEF"/>
<stop offset="0.79" stop-color="white"/>
<stop offset="0.89" stop-color="#F6C1BB"/>
<stop offset="0.95" stop-color="#FFFBCF"/>
</linearGradient>
<clipPath id="clip0_289_97">
<rect width="245.092" height="237.023" fill="white"/>
</clipPath>
</defs>
</svg>
