<svg width="185" height="184" viewBox="0 0 185 184" fill="none" xmlns="http://www.w3.org/2000/svg">
<g clip-path="url(#clip0_322_44)">
<path d="M88.0143 27.9005C88.0143 27.9005 91.3939 13.6947 81.5622 11.7529C77.056 9.54543 63.0253 0.490558 56.7372 2.43235C56.7372 2.43235 49.3429 3.3317 50.9815 5.2735C50.9815 5.2735 49.4863 6.90869 49.4248 7.44013C49.3634 7.97156 43.2595 4.53766 40.0642 9.13664C40.0642 9.13664 39.3473 9.79071 39.5112 10.22C39.675 10.6492 37.5858 10.036 36.5412 12.0391C36.5412 12.0391 32.0964 12.407 30.9904 15.9022C30.6012 15.9636 24.9684 21.1962 25.2962 22.5657C25.2962 22.5657 21.343 26.6128 21.9165 27.9209C21.9165 27.9209 15.2187 31.0891 19.3357 36.7918L17.4922 38.4066L17.9838 38.9789C17.9838 38.9789 8.13164 43.3122 7.96778 45.581C7.96778 45.581 10.4462 44.1502 10.9378 43.8436C11.4294 43.537 -0.860276 52.4897 0.0409635 65.6325C0.0409635 65.6325 2.15068 59.6028 3.29772 59.4188C3.29772 59.4188 0.16386 67.4926 1.00365 68.9438C1.00365 68.9438 1.782 67.186 2.15068 67.4312C2.15068 67.4312 -0.0819329 72.9296 0.696411 78.898C0.696411 78.898 -0.327726 83.4766 1.6591 84.9891L2.08924 84.1511C2.08924 84.1511 2.74468 91.6934 4.81344 92.7154L6.39061 95.6792L4.52668 87.7689C4.52668 87.7689 9.05336 101.034 10.8149 101.218L10.3847 100.074C10.3847 100.074 13.8258 105.02 13.8873 106.226C13.9487 107.432 20.3598 118.776 21.5069 119.022C21.5069 119.022 27.1806 126.196 28.512 126.257L28.0818 123.968L30.0072 126.564L30.3144 123.375C30.3144 123.375 59.2565 159.39 61.5711 159.86C63.8856 160.331 88.4649 182.774 96.0845 183.632C96.0845 183.632 96.3917 178.44 87.195 169.529C87.195 169.529 77.8958 159.329 76.6873 158.859C76.6873 158.859 66.0568 142.691 63.2711 142.568C63.2711 142.568 61.653 138.051 65.2785 135.067C65.2785 135.067 65.9134 140.299 69.2316 140.136C69.2316 140.136 71.6076 147.331 76.3186 147.453C76.3186 147.453 81.2755 154.934 84.4093 155.057C84.4093 155.057 84.4093 150.601 83.2008 149.518C81.9923 148.435 92.7458 156.631 94.5687 156.631L91.6602 152.523L103.499 158.675C103.499 158.675 100.468 154.219 99.5051 154.219C98.5424 154.219 89.4685 149.395 89.4685 149.395L97.9279 151.214L96.4736 150.254L99.1364 150.376L93.5856 147.964L100.345 149.886L97.9279 148.557L100.099 148.68L98.399 147.351L108.804 149.048L107.227 147.597L115.318 149.641L108.558 145.655L118.964 147.351L112.43 145.307L120.295 146.268L115.707 144.101L119.209 144.715L116.178 142.793L143.85 142.425L132.851 141.342L136.722 140.851L132.728 139.891L134.305 139.645L129.717 138.685L132.503 138.317L117.387 136.498L119.558 135.884H114.97L119.558 134.433L114.232 134.311L115.686 133.35L110.238 133.84L113.106 132.635L114.232 132.164C114.232 132.164 165.972 135.66 175.148 135.026L173.325 133.8L179.183 134.229L178.405 133.738L180.268 133.554L175.68 132.532L177.012 131.817L172.178 130.427L173.202 130.366L184.918 129.16L178.753 127.054L179.9 126.687L173.366 126.38L175.414 125.889L163.329 124.499L165.869 124.254L165.029 123.6L165.521 123.539L162.612 122.394C162.612 122.394 165.685 122.701 166.238 122.885C166.791 123.069 162.981 121.188 162.981 121.188C162.981 121.188 164.435 121.188 164.804 121.495C165.173 121.801 161.67 120.105 161.67 120.105C161.67 120.105 180.309 116.037 183.054 114.28L179.982 114.607L182.235 112.828L178.364 113.155L179.49 111.868C179.49 111.868 171.563 112.685 171.277 113.176C171.277 113.176 174.062 111.97 175.025 111.786C175.025 111.786 170.252 111.97 168.921 112.563C168.921 112.563 171.215 111.663 171.707 111.663C172.198 111.663 166.811 112.215 166.811 112.215L167.426 111.725C167.426 111.725 163.083 111.541 162.469 111.786L162.223 111.418C162.223 111.418 154.972 110.212 149.176 113.707C149.176 113.707 154.911 108.638 157.942 108.393C157.942 108.393 154.317 108.025 152.391 109.476L155.361 107.718L149.258 109.231C149.258 109.231 143.154 110.008 142.969 110.314L147.865 108.331C147.865 108.331 139.938 109.353 138.566 110.192L136.866 109.701L142.601 104.938L137.582 107.902L134.612 108.924L131.171 107.657C131.171 107.657 139.692 101.505 139.877 101.259C140.061 101.014 142.724 95.8836 142.908 95.8223C143.092 95.7609 146.656 90.9371 147.435 88.7705C147.435 88.7705 150.999 86.9105 151.736 85.7045C152.473 84.4986 156.447 78.1009 156.447 78.1009L151.367 79.6747L152.453 76.4248L146.042 80.6559L146.656 78.1213C146.656 78.1213 140.614 81.7392 135.043 82.9451C135.043 82.9451 131.171 85.8476 130.332 85.725C129.492 85.6023 118.001 89.8334 116.793 92.1226L112.45 93.8192L118.001 88.2799L112.204 91.6525C112.204 91.6525 109.665 92.2657 110.381 91.162C111.098 90.0582 112.553 79.3477 110.381 74.8714C110.381 74.8714 114.621 88.8727 100.468 89.3428C100.468 89.3428 111.713 77.9987 110.136 67.513C110.136 67.513 112.061 63.6499 112.307 60.5226C112.307 60.5226 113.761 55.944 114.13 55.5761L114.376 52.4488H113.413C113.413 52.4488 113.782 46.7869 113.044 46.6643C112.307 46.5417 107.493 49.0762 107.493 49.0762L106.162 46.1737C106.162 46.1737 98.1737 52.5101 98.0713 53.8591C97.9689 55.2082 95.8182 51.4881 94.6712 51.4881C93.5241 51.4881 87.9938 27.9618 87.9938 27.9618L88.0143 27.9005Z" fill="url(#paint0_linear_322_44)"/>
<path d="M46.6597 87.4623C46.6597 87.4623 51.6165 93.6148 55.5082 93.6761C59.3999 93.717 66.6098 102.465 70.8907 99.665C75.1716 96.8443 85.8431 92.0204 87.2974 89.5063C88.7517 86.9922 106.961 54.1249 98.8087 51.4472C98.8087 51.4472 95.2447 41.8405 82.6069 54.5745C69.969 67.3086 39.1835 81.5143 46.6597 87.4828V87.4623Z" fill="url(#paint1_linear_322_44)"/>
<path d="M78.6127 78.5914C78.6127 78.5914 71.8944 79.409 68.0027 66.7976L79.514 57.8245C79.514 57.8245 88.4444 72.0302 78.5922 78.571L78.6127 78.5914Z" fill="url(#paint2_linear_322_44)"/>
<path d="M80.1694 72.1529C80.1694 72.1529 73.4511 72.9705 69.5593 60.359L81.0706 51.3859C81.0706 51.3859 90.0011 65.5917 80.1489 72.1324L80.1694 72.1529Z" fill="url(#paint3_linear_322_44)"/>
<path d="M72.2016 78.1009C72.2016 78.1009 65.4833 78.9185 61.5916 66.307L73.1029 57.3339C73.1029 57.3339 82.0333 71.5397 72.1811 78.0804L72.2016 78.1009Z" fill="url(#paint4_linear_322_44)"/>
<path d="M78.9814 39.5717C78.9814 39.5717 75.8475 30.6394 83.0984 28.9633C88.4239 26.5514 89.3866 28.9633 89.3866 28.9633C89.3866 28.9633 100.755 40.3075 94.2206 52.367C94.2206 52.367 89.3866 44.886 85.7612 44.886C85.7612 44.886 80.9273 41.5134 79.0019 39.5717H78.9814Z" fill="url(#paint5_linear_322_44)"/>
<path d="M79.3091 41.5952C79.3091 41.5952 79.5549 43.21 81.6442 43.8436C83.7334 44.4772 84.4708 44.6407 86.4781 46.7461C88.4854 48.8514 90.1855 48.1155 90.1855 48.1155C90.1855 48.1155 91.312 48.4426 92.459 49.9756C92.459 49.9756 85.5768 54.3088 82.1972 53.7365C78.8175 53.1642 77.7524 41.9836 79.2886 41.5952H79.3091Z" fill="url(#paint6_linear_322_44)"/>
<path d="M75.7246 84.5803C75.7246 84.5803 81.0502 82.7816 82.1357 81.6983C83.2213 80.615 85.331 79.8791 86.1504 78.7958C86.9697 77.7125 96.6785 59.6641 95.429 55.1469C94.1796 50.6296 94.6916 51.4268 94.6916 51.4268L97.846 54.7994C97.846 54.7994 99.3003 51.0589 106.182 46.1124L107.514 49.0149C107.514 49.0149 99.1774 59.1531 97.0062 64.8149C97.0062 64.8149 84.9214 81.6983 84.7985 87.3806L84.5527 85.868C84.5527 85.868 75.356 87.0127 75.7246 84.6008V84.5803Z" fill="url(#paint7_linear_322_44)"/>
<path d="M107.514 48.9944C107.514 48.9944 112.225 46.7052 113.065 46.5825C113.904 46.4599 113.433 52.367 113.433 52.367L114.396 51.529C114.396 51.529 113.556 68.2897 100.734 72.7252L84.9214 86.2359C84.9214 86.2359 92.1928 71.2331 96.5965 65.3464C100.98 59.4801 96.5146 60.8087 107.514 48.974V48.9944Z" fill="url(#paint8_linear_322_44)"/>
<path d="M85.0238 89.2815C85.0238 89.2815 83.0984 81.5552 100.017 70.1089C100.017 70.1089 103.274 68.2897 103.766 66.7363C103.766 66.7363 98.0918 76.5065 99.3003 79.409C100.509 82.3115 92.4795 95.3317 92.4795 95.3317C92.4795 95.3317 83.9177 99.7876 85.0443 89.3019L85.0238 89.2815Z" fill="url(#paint9_linear_322_44)"/>
<path d="M100.734 72.7252C100.734 72.7252 110.136 68.0649 112.143 61.7898C111.487 62.5052 108.517 83.2517 100.488 89.2815C100.488 89.2815 113.413 90.2422 110.402 74.81C110.402 74.81 115.605 87.8303 110.402 91.1006C105.199 94.371 94.4459 97.8049 92.459 96.2719L100.734 72.7456V72.7252Z" fill="url(#paint10_linear_322_44)"/>
<path d="M93.647 100.053L106.387 95.393L102.598 98.9291L113.863 93.2059L111.385 96.2515L119.435 93.2059L116.362 96.2515L119.435 97.3144L106.531 103.262L118.615 100.994L107.493 104.693L117.96 103.405C117.96 103.405 102.106 110.641 99.628 109.681C97.1496 108.72 93.6061 106.778 93.6061 106.778L99.628 103.569L93.6061 100.033L93.647 100.053Z" fill="url(#paint11_linear_322_44)"/>
<path d="M99.669 121.29C99.669 121.29 107.514 120.575 108.313 119.492C109.111 118.408 118.636 116.467 118.636 116.467H112.716C112.716 116.467 119.906 113.891 121.196 112.276C122.487 110.662 118.288 112.276 118.288 112.276C118.288 112.276 127.157 102.465 127.485 101.505C127.812 100.544 123.449 102.956 123.449 102.956L126.665 98.459C126.665 98.459 100.017 108.107 99.6485 109.721C99.2798 111.336 75.1921 113.912 99.6485 121.311L99.669 121.29Z" fill="url(#paint12_linear_322_44)"/>
<path d="M121.422 109.803C121.422 109.803 126.624 107.718 128.918 103.937C128.918 103.937 132.421 108.72 129.533 111.132L142.232 105.347L134.244 111.132C134.244 111.132 143.912 108.618 147.168 108.618C147.168 108.618 144.035 109.006 143.543 109.885C143.051 110.764 153.702 107.085 154.296 107.534L151.388 109.129L158.516 108.618C158.516 108.618 150.179 111.622 148.602 113.421C148.602 113.421 159.376 110.171 160.994 110.886L159.724 111.725L174.882 111.602L172.546 112.215L177.749 111.725L176.172 112.808L183.792 113.421C183.792 113.421 173.878 117.202 171.83 117.489C169.781 117.775 162.162 120.268 162.162 120.268C162.162 120.268 151.654 121.515 150.2 122.946C148.746 124.377 97.1905 120.514 97.1905 120.514L121.422 109.803Z" fill="url(#paint13_linear_322_44)"/>
<path d="M105.568 119.43C105.568 119.43 172.301 115.485 173.898 113.871" stroke="black" stroke-width="0.12" stroke-miterlimit="10"/>
<path d="M121.77 123.845L125.948 123.457L124.699 124.111L130.598 123.886L128.16 124.438L136.722 124.479L135.698 125.154L140.266 125.297L141.945 125.358L145.407 125.685L147.721 125.521L146.083 126.135C146.083 126.135 153.436 127.443 155.73 126.278C156.324 126.339 171.01 132.267 172.854 132.9C175.25 133.248 182.44 134.535 182.44 134.535C182.44 134.535 128.386 136.661 118.964 129.916C109.542 123.171 111.836 124.581 111.836 124.581C111.836 124.581 118.452 122.19 121.749 123.825L121.77 123.845Z" fill="url(#paint14_linear_322_44)"/>
<path d="M102.598 121.29L108.128 120.248L106.551 121.29L114.417 120.248L111.242 121.29L122.692 120.248L121.401 121.29L127.525 120.902L129.779 120.759H134.449L137.521 120.248L135.432 121.29C135.432 121.29 145.427 122.108 148.336 120.248C149.135 120.248 158.536 126.196 172.055 125.419V126.911L185.041 127.872C185.041 127.872 113.147 137.561 99.7099 129.732C86.2733 121.904 89.5095 123.518 89.5095 123.518C89.5095 123.518 98.0508 119.492 102.639 121.27L102.598 121.29Z" fill="url(#paint15_linear_322_44)"/>
<path d="M102.598 127.872C102.598 127.872 164.005 130.427 172.546 128.342" stroke="black" stroke-width="0.12" stroke-miterlimit="10"/>
<path d="M149.053 131.694L174.185 134.065" stroke="black" stroke-width="0.11" stroke-miterlimit="10"/>
<path d="M118.083 101.116C118.083 101.116 148.131 83.1086 148.623 82.2093" stroke="black" stroke-width="0.12" stroke-miterlimit="10"/>
<path d="M73.0824 103.937L78.4488 101.178L75.1102 99.5832L81.4598 98.1728L83.1804 96.3333L77.2199 97.3348L82.443 95.2704L84.6142 90.5896L78.838 92.5928L81.4393 88.0142L76.2982 91.7343C76.2982 91.7343 73.1643 98.6225 71.6076 98.132C70.6244 98.1524 73.0619 103.937 73.0619 103.937H73.0824Z" fill="url(#paint16_linear_322_44)"/>
<path d="M77.1789 104.264L82.5454 101.505L79.2067 99.9102L85.5564 98.4999L87.2769 96.6603L81.3164 97.6619L86.5395 95.5974L88.7107 90.9167L82.9346 92.9198L85.5359 88.3413L80.3947 92.0613C80.3947 92.0613 77.2608 98.9496 75.7042 98.459C74.721 98.4794 77.1584 104.264 77.1584 104.264H77.1789Z" fill="url(#paint17_linear_322_44)"/>
<path d="M88.383 109.231L96.4122 113.912L94.9374 111.704L101.082 114.647L97.293 111.009L99.3412 111.949L97.211 107.984L104.359 110.907L101.615 107.984L104.953 108.74L100.529 104.693H104.953L99.1159 102.138L105.67 96.7012L99.9352 98.4181L101.594 97.4166L99.3207 96.0062L102.455 93.8805L87.6046 99.8285C87.6046 99.8285 80.9887 103.876 88.3625 109.251L88.383 109.231Z" fill="url(#paint18_linear_322_44)"/>
<path d="M78.6332 107.269L87.2359 111.561L85.6588 109.537L92.2542 112.236L88.1986 108.904L90.4108 109.762L88.1167 106.124L95.7772 108.802L92.8482 106.124L96.4327 106.819L91.6807 103.099H96.4327L90.1854 100.769L97.211 95.7814L91.0662 97.3553L92.8482 96.4355L90.4108 95.1477L93.7699 93.2059L77.8548 98.643C77.8548 98.643 70.7678 102.343 78.6742 107.269H78.6332Z" fill="url(#paint19_linear_322_44)"/>
<path d="M90.5337 116.221L97.7641 118.878L95.6953 117.468L99.669 117.182L96.7194 115.853C96.7194 115.853 102.926 116.14 105.67 114.688C105.67 114.688 96.9243 113.748 95.6953 112.215C95.6953 112.215 106.797 112.849 109.132 111.07C109.132 111.07 97.0267 111.214 95.6953 109.292C95.6953 109.292 74.68 107.289 90.5337 116.201V116.221Z" fill="url(#paint20_linear_322_44)"/>
<path d="M100.918 113.993C100.918 113.993 111.877 110.6 120.5 103.201" stroke="black" stroke-width="0.12" stroke-miterlimit="10"/>
<path d="M75.9909 147.392L72.98 142.998L75.7042 145.205L75.274 142.998L73.6559 141.873L76.3186 142.507L76.2367 140.34L73.3077 138.337L74.0451 137.213L78.6332 139.584V138.235L79.1658 138.399L78.3055 135.271C78.3055 135.271 73.9836 133.043 71.4233 136.559C68.8629 140.075 70.3787 145.9 75.95 147.372L75.9909 147.392Z" fill="url(#paint21_linear_322_44)"/>
<path d="M76.3186 134.045L85.3515 145.164L84.9214 143.243L85.9865 143.815V142.527L87.0311 143.018L84.9214 140.606L87.0311 141.894L83.9587 138.685L87.748 141.015L84.9009 137.724L87.748 139.257C87.748 139.257 85.4949 135.884 84.3684 135.639L95.2857 145.655L90.2059 139.318L97.1496 145.655L94.323 142.282L97.7026 145.307L93.6266 140.238L98.6653 144.101L94.9784 139.645L99.6894 142.343C99.6894 142.343 99.2593 139.441 97.8255 137.888L101.451 139.891L100.796 138.787L101.82 138.664L101.451 138.01L102.578 138.133C102.578 138.133 96.1254 134.004 95.1013 134.106L93.8314 132.839C93.8314 132.839 101.144 134.27 101.574 135.108C101.574 135.108 97.2315 131.367 93.8928 131.49C93.8928 131.49 98.5424 130.468 103.131 132.839L101.205 131.265L104.708 130.713L102.578 130.059L99.5256 129.242L99.7099 128.608L96.8628 127.974L97.9484 127.606C97.9484 127.606 95.3676 125.378 92.4795 125.848C89.5915 126.319 79.2067 123.477 76.2982 134.127L76.3186 134.045Z" fill="url(#paint22_linear_322_44)"/>
<path d="M64.9917 127.341L68.5967 140.565L69.1292 135.23L70.7883 139.216L72.2426 135.23L73.9017 137.99L74.9258 134.617L76.5235 136.641L76.6873 134.004L80.7634 134.985L76.8512 131.347L80.7634 133.023L78.6332 130.386L84.0406 133.677L81.7466 131.756L84.7985 133.268L80.7839 129.487L86.1299 131.94L82.6478 128.833L87.5432 129.998L84.5937 127.463L88.4239 128.833L85.4539 125.971H90.4517L86.2937 124.724L91.5168 125.358L88.4649 123.764L92.5614 124.418L90.9228 122.742L94.2206 123.293L92.2952 121.515L94.3435 121.658C94.3435 121.658 91.271 117.673 87.3179 118.204C83.3442 118.735 69.0063 115.588 64.9917 127.341Z" fill="url(#paint23_linear_322_44)"/>
<path d="M73.0824 105.511L87.2769 112.358L81.1526 111.949L85.3106 114.668L80.5176 115.588L83.3033 118.081L79.2886 118.633L81.255 120.902L78.244 120.575L78.5103 125.562L75.1921 120.248L76.2982 125.194L73.7378 122.169L76.3596 129.16L74.6596 126.073L75.7451 129.957L72.304 124.499L73.9836 131.265L71.198 126.564L71.5257 132.553L69.2726 128.587L70.0304 133.35L67.3882 129.303L66.3436 135.169L65.811 130.039L65.4423 136.293L64.2543 132.389L64.1519 137.336L62.5747 135.087L62.5338 139.073L60.9156 136.457L60.6494 138.889C60.6494 138.889 56.7781 134.515 58.1914 129.936C59.6047 125.358 58.9903 107.902 73.1029 105.511H73.0824Z" fill="url(#paint24_linear_322_44)"/>
<path d="M67.3267 101.791L81.0502 108.188L75.1511 107.759L79.1862 110.294L74.5776 111.111L77.2813 113.421L73.4101 113.891L75.315 115.996L72.4064 115.69L72.7137 120.268L69.4774 115.363L70.5835 119.9L68.1051 117.1L70.6859 123.539L69.0268 120.698L70.1124 124.275L66.7532 119.246L68.4123 125.46L65.6881 121.127L66.0363 126.625L63.8447 122.966L64.6025 127.341L62.0217 123.6L61.059 128.976L60.506 124.254L60.1987 129.998L59.0312 126.4L58.9698 130.938L57.4336 128.853V132.512L55.8359 130.1L55.5901 132.328C55.5901 132.328 51.8418 128.281 53.1527 124.111C54.4636 119.941 53.7467 103.896 67.3063 101.811L67.3267 101.791Z" fill="url(#paint25_linear_322_44)"/>
<path d="M63.3941 96.415L78.5513 102.874L72.0787 102.322L76.544 104.857L71.5257 105.531L74.5367 107.82L70.3172 108.168L72.4474 110.232L69.2726 109.864L69.7027 114.259L66.0568 109.476L67.3677 113.85L64.5821 111.091L67.552 117.325L65.6676 114.566L66.9376 118.02L63.1483 113.114L65.1146 119.124L62.0422 114.893L62.5543 120.187L60.0554 116.63L60.9976 120.861L58.089 117.223L57.1673 122.353L56.4504 117.816L56.2661 123.314L54.9142 119.839L54.9552 124.193L53.2346 122.149L53.3165 125.665L51.5345 123.314L51.3297 125.44C51.3297 125.44 47.1308 121.454 48.4826 117.489C49.8345 113.523 48.6465 98.0911 63.4145 96.415H63.3941Z" fill="url(#paint26_linear_322_44)"/>
<path d="M64.0495 86.9922L81.1731 95.1273L73.7583 94.044L78.7766 97.11L72.98 97.437L76.3391 100.135L71.4642 100.196L73.8198 102.588L70.1738 101.934L70.4811 106.717L66.5074 101.28L67.8183 106.104L64.7459 102.915L67.8798 109.864L65.852 106.737L67.1424 110.559L63.0049 104.979L64.9917 111.602L61.653 106.819L62.0012 112.563L59.2975 108.536L60.1783 113.176L57.0034 109.026L55.6925 114.504L55.0781 109.558L54.607 115.485L53.1936 111.643L53.0503 116.344L51.1659 114.014L51.0839 117.795L49.1381 115.118L48.7899 117.407C48.7899 117.407 44.1403 112.787 45.8813 108.618C47.6223 104.448 46.9669 87.7076 64.029 87.0331L64.0495 86.9922Z" fill="url(#paint27_linear_322_44)"/>
<path d="M56.0817 83.8445L68.4738 89.8129L63.1278 89.445L66.7532 91.816L62.5543 92.6132L64.9917 94.7798L61.4892 95.2499L63.2097 97.2326L60.5879 96.9465L60.8337 101.28L57.9456 96.6399L58.9083 100.932L56.6757 98.2955L58.9698 104.387L57.495 101.709L58.4577 105.082L55.4468 100.339L56.901 106.226L54.4636 102.138L54.7503 107.35L52.784 103.896L53.4394 108.045L51.1249 104.53L50.2032 109.64L49.7321 105.163L49.4248 110.621L48.4007 107.228L48.3188 111.541L46.9464 109.578L46.9055 113.053L45.4921 110.784L45.2668 112.91C45.2668 112.91 41.8872 109.088 43.1161 105.122C44.3451 101.157 43.8126 85.9294 56.1227 83.8445H56.0817Z" fill="url(#paint28_linear_322_44)"/>
<path d="M48.6874 87.8507L56.0817 99.154L57.4131 95.1069L58.2734 98.5203L60.1987 95.6792L61.2638 98.132L62.7181 95.6996L63.8447 97.5801L64.4182 95.5565L67.9412 97.0487L64.9917 93.4921L68.2484 95.5157L66.7327 93.0629L71.0751 96.6194L69.3136 94.7185L71.8124 96.4559L68.8015 92.7767L73.2258 95.6587L70.5835 92.6132L74.8234 94.4119L72.5703 91.8978L75.8066 93.6556L73.5944 90.8758L78.1006 91.7547L74.5366 90.0378L79.1453 91.4686L76.6464 89.6699L80.2308 90.9167L79.0224 89.3019L81.9104 90.3239L80.4562 88.5865L82.2791 89.0567C82.2791 89.0567 80.1489 85.3979 76.4825 85.0913C72.8161 84.7847 54.1563 79.3886 48.7079 87.8303L48.6874 87.8507Z" fill="url(#paint29_linear_322_44)"/>
<path d="M55.0576 85.0913L63.7013 97.7845L58.9288 95.3521L61.5506 98.6634L57.495 97.621L59.0927 100.299L55.754 99.2562L56.7576 101.505L54.4431 100.237L53.3985 103.733L52.0876 98.9291L51.7189 102.69L50.449 99.7263L50.7767 105.429L50.2032 102.731L50.1008 105.756L48.7284 100.83L48.3597 106.042L47.3151 101.852L46.0657 106.063L45.2668 102.567L44.6728 106.104L43.5872 102.424L41.2727 106.063L42.133 102.363L40.269 106.512L40.31 103.426L38.9991 106.778L38.3232 104.693L37.2786 107.391L36.6436 105.041L35.8243 106.615C35.8243 106.615 33.8375 102.261 36.111 99.6445C38.3846 97.0282 43.2186 81.8005 55.0371 85.0913H55.0576Z" fill="url(#paint30_linear_322_44)"/>
<path d="M101.103 133.37C101.103 133.37 108.231 132.348 109.255 133.064C109.255 133.37 103.602 133.37 102.578 134.208C102.578 134.208 110.095 135.66 110.996 136.559C110.996 136.559 102.414 135.476 100.652 136.559C100.652 136.886 111.098 137.888 112.368 139.216H110.975C110.975 139.216 115.092 140.095 115.809 140.994H113.392C113.392 140.994 115.932 141.751 116.178 142.711C116.178 142.711 114.417 142.057 113.761 142.221C113.761 142.221 119.025 143.979 119.209 144.633L113.761 143.611L118.656 145.593C118.656 145.593 104.687 141.73 103.54 141.362L97.1291 134.842C97.1291 134.842 98.4605 133.657 101.062 133.329L101.103 133.37Z" fill="url(#paint31_linear_322_44)"/>
<path d="M99.8533 134.883C99.8533 134.883 107.043 135.251 107.923 136.171C107.862 136.457 102.311 135.373 101.164 136.007C101.164 136.007 108.251 138.889 108.968 139.952C108.968 139.952 100.755 137.213 98.8292 137.949C98.7677 138.255 108.825 141.281 109.808 142.834L108.436 142.568C108.436 142.568 112.286 144.244 112.839 145.246L110.463 144.776C110.463 144.776 112.798 146.023 112.86 147.004C112.86 147.004 111.262 146.023 110.586 146.064C110.586 146.064 115.4 148.802 115.461 149.477L110.32 147.413L114.744 150.315C114.744 150.315 101.799 143.815 100.734 143.243L95.7158 135.619C95.7158 135.619 97.252 134.719 99.8533 134.903V134.883Z" fill="url(#paint32_linear_322_44)"/>
<path d="M91.1481 134.106C91.1481 134.106 98.3376 134.474 99.2183 135.394C99.1569 135.68 93.6061 134.597 92.459 135.23C92.459 135.23 99.5461 138.112 100.263 139.175C100.263 139.175 92.0494 136.436 90.124 137.172C90.0626 137.479 100.12 140.504 101.103 142.057L99.7304 141.792C99.7304 141.792 103.581 143.468 104.134 144.469L101.758 143.999C101.758 143.999 104.093 145.246 104.155 146.227C104.155 146.227 102.557 145.246 101.881 145.287C101.881 145.287 106.695 148.026 106.756 148.7L101.615 146.636L106.039 149.538C106.039 149.538 93.094 143.038 92.0289 142.466L87.0106 134.842C87.0106 134.842 88.5468 133.943 91.1481 134.127V134.106Z" fill="url(#paint33_linear_322_44)"/>
<path d="M83.6105 135.68C83.6105 135.68 90.7999 136.048 91.6807 136.968C91.6192 137.254 86.0684 136.171 84.9214 136.804C84.9214 136.804 92.0084 139.686 92.7253 140.749C92.7253 140.749 84.5117 138.01 82.5864 138.746C82.5249 139.053 92.5819 142.078 93.5651 143.631L92.1928 143.365C92.1928 143.365 96.0435 145.042 96.5966 146.043L94.2206 145.573C94.2206 145.573 96.5556 146.82 96.617 147.801C96.617 147.801 95.0194 146.82 94.3435 146.861C94.3435 146.861 99.1569 149.6 99.2183 150.274L94.0772 148.21L98.5014 151.112C98.5014 151.112 85.5564 144.612 84.4913 144.04L79.473 136.416C79.473 136.416 81.0092 135.517 83.6105 135.701V135.68Z" fill="url(#paint34_linear_322_44)"/>
<path d="M82.0538 150.458C82.0538 150.458 85.3515 156.856 86.5191 157.265C86.7648 157.081 83.4876 152.482 83.59 151.174C83.59 151.174 89.1204 156.447 90.3903 156.672C90.3903 156.672 84.5322 150.315 84.4093 148.251C84.6756 148.067 91.5373 155.997 93.3603 156.263L92.5615 155.139C92.5615 155.139 95.6748 157.98 96.8014 158.041L95.4086 156.079C95.4086 156.079 97.4978 157.714 98.4195 157.346C98.4195 157.346 96.8628 156.304 96.617 155.65C96.617 155.65 101.082 158.92 101.738 158.675L97.7436 154.832L102.209 157.673C102.209 157.673 90.9843 148.537 90.0216 147.821L80.9887 146.37C80.9887 146.37 80.7839 148.148 82.0333 150.438L82.0538 150.458Z" fill="url(#paint35_linear_322_44)"/>
<path d="M75.2126 144.285C75.2126 144.285 78.5103 150.683 79.6778 151.092C79.9236 150.908 76.6464 146.309 76.7488 145.001C76.7488 145.001 82.2791 150.274 83.5491 150.499C83.5491 150.499 77.691 144.142 77.5681 142.078C77.8344 141.894 84.6961 149.824 86.5191 150.09L85.7202 148.966C85.7202 148.966 88.8336 151.807 89.9601 151.868L88.5673 149.906C88.5673 149.906 90.6566 151.541 91.5783 151.174C91.5783 151.174 90.0216 150.131 89.7758 149.477C89.7758 149.477 94.241 152.747 94.8965 152.502L90.9024 148.659L95.3676 151.501C95.3676 151.501 84.1431 142.364 83.1804 141.649L74.1475 140.197C74.1475 140.197 73.9427 141.976 75.1921 144.265L75.2126 144.285Z" fill="url(#paint36_linear_322_44)"/>
<path d="M19.7249 115.976L18.7622 121.597L22.0189 118.797L21.0972 125.501H22.0189V128.547L23.9033 125.828L24.907 130.407L25.9106 129.221V132.267L26.3408 131.756L26.9143 131.081L28.0818 130.57V138.194L29.1264 139.032V141.403L30.2325 139.707V141.403L33.3868 135.128V138.521L34.8821 136.988L33.7146 141.403L36.0291 138.358L34.8616 141.403L37.1762 140.218L34.5134 144.96L38.487 142.916L40.3919 140.831L40.8016 140.381L43.915 142.016L42.2968 140.218L43.1161 143.958V139.38L44.6114 142.936L45.1439 141.015L44.2837 148.21L46.1066 144.306L45.615 148.21L46.7211 145.818L47.1103 144.98V148.21L48.667 145.307L47.6019 149.559L48.667 147.781L49.4248 150.07L49.6911 146.554L51.3297 151.092V148.537L52.3334 151.092C52.3334 151.092 51.8418 144.142 51.4117 143.12C50.9815 142.098 40.4944 115.097 19.7044 115.956L19.7249 115.976Z" fill="url(#paint37_linear_322_44)"/>
<path d="M25.0094 115.322L24.1082 120.595L27.1601 117.959L26.2793 124.254H27.1601V127.116L28.9421 124.561L29.8843 128.874L30.8265 127.749V130.611L31.2157 130.141L31.7482 129.507L32.8338 129.037V136.212L33.817 137.009V139.237L34.8616 137.642V139.237L37.8316 133.329V136.518L39.2244 135.087L38.1388 139.237L40.3305 136.375L39.2449 139.237L41.4366 138.112L38.9377 142.568L42.686 140.647L44.4885 138.685L44.8777 138.256L43.9355 140.974L46.2705 138.112L47.0488 141.628V137.315L48.4417 140.667L48.9537 138.848L48.1344 145.593L49.855 141.935L49.3839 145.593L50.4285 143.345L50.7972 142.568V145.593L52.2719 142.875L51.2683 146.861L52.2719 145.185L52.9888 147.331L53.2551 144.04L54.7913 148.292V145.88L55.7335 148.292C55.7335 148.292 55.2624 141.751 54.8732 140.81C54.4841 139.87 44.6114 114.484 25.0709 115.301L25.0094 115.322Z" fill="url(#paint38_linear_322_44)"/>
<path d="M96.2688 184C96.2688 184 73.9426 173.473 52.9479 151.255C31.9531 129.037 27.0782 115.158 27.0782 115.158L28.2047 123.845L26.2179 121.863L26.7095 123.845C26.7095 123.845 13.068 109.619 11.4089 100.094C33.2025 100.871 47.7452 119.635 47.7452 119.635C47.7452 119.635 82.5659 166.217 84.8599 167.75C87.154 169.283 95.6543 178.359 96.2483 184H96.2688Z" fill="url(#paint39_linear_322_44)"/>
<path d="M56.0817 151.521C56.0817 151.521 86.9287 177.807 87.7685 178.072C88.6083 178.338 88.5673 170.653 75.7451 157.551C57.9047 139.318 52.231 146.064 56.0817 151.521Z" fill="url(#paint40_linear_322_44)" stroke="url(#paint41_linear_322_44)" stroke-width="0.12" stroke-miterlimit="10"/>
<path d="M56.4299 149.906C56.4299 149.906 71.8739 168.302 79.7393 168.813C79.7393 168.813 82.5454 162.579 67.6749 145.369C52.8045 128.179 46.4139 134.617 56.4504 149.886L56.4299 149.906Z" fill="url(#paint42_linear_322_44)" stroke="url(#paint43_linear_322_44)" stroke-width="0.12" stroke-miterlimit="10"/>
<path d="M50.1622 144.244C50.1622 144.244 67.8798 163.826 71.9353 157.04C71.9353 157.04 68.9654 145.307 61.4892 140.422L53.7672 130.754C53.7672 130.754 37.1762 125.91 50.1622 144.244Z" fill="url(#paint44_linear_322_44)" stroke="url(#paint45_linear_322_44)" stroke-width="0.12" stroke-miterlimit="10"/>
<path d="M40.9859 134.004C40.9859 134.004 50.4694 148.823 59.9939 149.252C59.9939 149.252 60.0349 138.93 50.2851 127.852C40.5353 116.773 39.1835 130.55 40.9859 134.004Z" fill="url(#paint46_linear_322_44)" stroke="url(#paint47_linear_322_44)" stroke-width="0.12" stroke-miterlimit="10"/>
<path d="M27.9794 115.996C27.9794 115.996 44.7752 144.326 50.1622 137.172C50.1622 137.172 47.3356 122.721 44.9391 120.718C42.5426 118.715 29.9662 108.209 27.9794 116.017V115.996Z" fill="url(#paint48_linear_322_44)"/>
<path d="M0.102416 76.2C0.102416 76.2 -0.901238 83.0473 3.25676 83.8036C3.25676 84.2533 3.35917 94.3097 6.02192 95.8223C8.68468 97.3348 12.9861 106.287 13.4776 107.412C13.9692 108.536 20.6671 106.41 20.6671 107.064L19.6839 102.997C19.6839 102.997 23.4322 112.174 26.0131 112.828C26.0131 112.828 24.6202 101.28 23.6371 100.626C22.6539 99.9716 32.3422 109.803 32.3422 109.803C32.3422 109.803 30.0686 100.891 30.4578 100.626C30.847 100.36 34.964 114.729 34.964 114.729L35.1074 112.072C35.1074 112.072 45.2873 126.543 47.0693 126.646L45.9837 123.907C45.9837 123.907 50.3261 127.034 52.1081 127.586C53.8901 128.138 45.2873 114.341 45.3897 112.072C45.4921 109.803 39.6546 101.75 36.0906 100.626C32.5266 99.5014 18.8031 73.2362 0.102416 76.2Z" fill="url(#paint49_linear_322_44)"/>
<path d="M13.6825 92.327C13.6825 92.327 13.0475 97.437 15.7103 98.0093C15.7103 98.3568 15.7717 105.858 17.4922 106.982C19.2128 108.107 23.5961 110.805 23.9238 111.643C24.2515 112.481 26.9143 114.893 26.9143 115.383L26.2793 112.338C26.2793 112.338 28.6963 119.206 30.3554 119.696C30.3554 119.696 29.4542 111.05 28.8192 110.559C28.1842 110.069 34.411 117.427 34.411 117.427C34.411 117.427 32.9567 110.764 33.2025 110.559C33.4483 110.355 36.0906 121.106 36.0906 121.106L36.193 119.124C36.193 119.124 42.7475 129.936 43.8945 130.018L43.1981 127.974C43.1981 127.974 46.0042 130.304 47.1512 130.734C48.2983 131.163 42.7679 120.841 42.8294 119.144C42.8908 117.448 39.1425 111.418 36.8484 110.58C34.5544 109.742 25.7263 90.0991 13.6825 92.327Z" fill="url(#paint50_linear_322_44)"/>
<path d="M16.0994 51.7947C16.0994 51.7947 5.46889 53.7774 3.48206 57.9676C4.32186 57.9676 7.8244 57.0682 7.8244 57.0682C7.8244 57.0682 1.55669 60.2773 1.14703 64.1813C0.737379 68.0853 7.29185 63.4863 7.29185 63.4863C7.29185 63.4863 1.14703 63.8134 3.60496 72.2551C6.00144 75.0553 14.6861 69.5161 14.6861 69.5161C14.6861 69.5161 3.72786 74.4626 8.62323 79.2046C11.8185 80.6354 15.2596 74.3399 15.2596 74.3399C7.10751 85.5614 21.5273 81.4326 21.5273 81.4326C21.5273 81.4326 19.7454 83.681 19.6225 83.7627C18.3525 91.6525 30.0277 89.7516 30.0277 89.7516C25.6034 97.9276 31.5844 110.253 49.5068 85.7863C74.0246 77.0584 46.6597 53.0824 16.0789 51.7743L16.0994 51.7947Z" fill="url(#paint51_radial_322_44)"/>
<path d="M19.6839 42.6376C19.6839 42.6376 9.40158 44.886 7.49668 49.6281C8.29551 49.6281 11.6956 48.6061 11.6956 48.6061C11.6956 48.6061 4.73151 51.8765 5.24358 56.6799C6.08337 56.6799 11.1836 55.9031 11.1836 55.9031C11.1836 55.9031 -0.450616 59.0304 5.30503 63.7316C14.256 62.7096 18.3116 62.7301 18.3116 62.7301C18.3116 62.7301 6.16531 65.3464 6.67737 69.8227C10.7534 77.9987 18.8646 68.1875 18.8646 68.1875C17.9019 69.3526 7.37379 85.6228 24.907 76.2204C25.0299 76.1591 25.1733 76.3022 25.0913 76.4044C17.6561 84.8665 30.7651 96.7829 36.193 82.0049C36.193 82.0049 26.6685 121.822 45.6765 81.3508C69.375 71.4579 49.1995 44.1298 19.6634 42.6376H19.6839Z" fill="url(#paint52_radial_322_44)"/>
<path d="M23.2069 38.3861C23.2069 38.3861 15.7307 40.0009 11.6342 45.0291L18.414 46.3168C18.414 46.3168 10.5896 54.7789 12.2896 53.9818C13.0885 53.9818 17.9224 53.2459 17.9224 53.2459C17.9224 53.2459 9.09434 62.6687 12.3511 60.6861C20.8514 59.7254 24.7022 59.7254 24.7022 59.7254C24.7022 59.7254 16.4067 64.5901 16.8778 68.8211L25.2142 64.9171C25.2142 64.9171 20.8924 78.5505 31.5434 72.2346C31.5434 72.2346 25.1938 87.0535 41.7028 78.0191C41.7028 78.0191 50.2441 94.4528 52.9069 75.6072C54.2178 66.3684 51.2683 39.7965 23.2069 38.3861Z" fill="url(#paint53_linear_322_44)"/>
<path d="M32.5675 35.7698C32.5675 35.7698 22.8178 37.8956 20.9948 42.4128C18.2091 45.2335 24.9889 41.4521 24.9889 41.4521C24.9889 41.4521 17.1645 49.9142 18.8646 49.1171C19.6634 49.1171 24.4973 48.3812 24.4973 48.3812C24.4973 48.3812 15.6693 57.804 18.926 55.8214C27.4264 54.8607 31.2771 54.8607 31.2771 54.8607C31.2771 54.8607 22.9816 59.7254 23.4527 63.9565L31.7892 60.0524C31.7892 60.0524 27.4673 73.6858 38.1184 67.3699C38.1184 67.3699 31.7687 82.1888 48.2778 73.1544C48.2778 73.1544 56.8191 89.5881 59.4818 70.7425C60.7927 61.5037 60.6289 37.1802 32.588 35.7698H32.5675Z" fill="url(#paint54_linear_322_44)"/>
<path d="M33.4688 21.4415C33.4688 21.4415 23.719 23.5672 21.896 28.0844C22.6539 28.0844 25.8902 27.1237 25.8902 27.1237C25.8902 27.1237 19.2743 30.2102 19.7658 34.7887C20.5647 34.7887 25.3986 34.0529 25.3986 34.0529C25.3986 34.0529 21.5888 37.0167 19.8273 41.493C28.3276 40.5323 32.1784 40.5323 32.1784 40.5323C32.1784 40.5323 26.7709 43.7618 24.907 47.7067L32.7109 45.7241L26.7709 53.7978C37.0737 50.5888 55.5492 42.7398 55.5492 42.7398C55.5492 42.7398 61.5301 22.8722 33.4688 21.4619V21.4415Z" fill="url(#paint55_radial_322_44)"/>
<path d="M40.0642 12.3457C40.0642 12.3457 30.3144 14.4715 28.4915 18.9887C29.2493 18.9887 32.4856 18.028 32.4856 18.028C32.4856 18.028 25.8697 21.1144 26.3613 25.693C27.1601 25.693 31.994 24.9571 31.994 24.9571C31.994 24.9571 20.9334 27.9209 26.4227 32.3972C34.9231 31.4366 38.7738 31.4366 38.7738 31.4366C38.7738 31.4366 27.242 33.9302 27.7131 38.1613C31.5844 45.9285 39.2859 36.6283 39.2859 36.6283C39.2859 36.6283 29.7409 46.0102 40.0642 42.8012C50.367 39.5921 62.1446 33.6236 62.1446 33.6236C62.1446 33.6236 68.1256 13.7561 40.0642 12.3457Z" fill="url(#paint56_linear_322_44)"/>
<path d="M36.746 17.1695C36.746 17.1695 26.9962 19.2953 25.1733 23.8125C25.9311 23.8125 29.1674 22.8518 29.1674 22.8518C29.1674 22.8518 22.5515 25.9382 23.0431 30.5168C23.8419 30.5168 28.6758 29.7809 28.6758 29.7809C28.6758 29.7809 23.9648 31.7432 23.1045 37.2211C31.6049 36.2604 31.0109 37.0167 31.0109 37.0167C31.0109 37.0167 23.7395 40.7776 23.9648 41.7178C24.1901 42.6581 35.9882 41.4521 35.9882 41.4521C35.9882 41.4521 26.4432 50.834 36.7665 47.625C47.0693 44.4159 58.8469 38.4475 58.8469 38.4475C58.8469 38.4475 64.8278 18.5799 36.7665 17.1695H36.746Z" fill="url(#paint57_linear_322_44)"/>
<path d="M46.885 7.992C46.885 7.992 37.1352 10.1178 35.3122 14.635C36.0701 14.635 39.3064 13.6743 39.3064 13.6743C39.3064 13.6743 32.6904 16.7607 33.182 21.3393C33.9808 21.3393 38.8148 20.6034 38.8148 20.6034C38.8148 20.6034 27.283 29.1269 35.3122 29.2904C43.8126 28.3297 45.5946 27.0829 45.5946 27.0829C45.5946 27.0829 36.5617 28.0231 37.0533 32.2746C40.4329 37.0575 46.1271 32.2746 46.1271 32.2746C46.1271 32.2746 36.5822 41.6565 46.9054 38.4475C57.2083 35.2384 68.9858 29.2699 68.9858 29.2699C67.0195 31.6614 68.8015 16.9242 46.9054 7.992H46.885Z" fill="url(#paint58_linear_322_44)"/>
<path d="M54.4841 2.84115C54.4841 2.84115 44.7343 4.9669 42.9113 9.48412C43.6692 9.48412 46.9055 8.52344 46.9055 8.52344C46.9055 8.52344 40.2895 11.6099 40.7811 16.1884C41.5799 16.1884 46.4139 15.4526 46.4139 15.4526C46.4139 15.4526 34.8821 23.976 42.9113 24.1395C51.4117 23.1789 53.1936 21.932 53.1936 21.932C53.1936 21.932 44.1608 22.8723 44.6524 27.1238C48.032 31.9067 53.7262 27.1238 53.7262 27.1238C53.7262 27.1238 44.1813 36.5057 54.5045 33.2966C64.8074 30.0875 76.5849 24.1191 76.5849 24.1191C76.5849 24.1191 82.5659 4.2515 54.5045 2.84115H54.4841Z" fill="url(#paint59_linear_322_44)"/>
<path d="M75.8885 30.1284C75.8885 30.1284 50.449 25.9178 38.8557 45.7036H40.4739L35.9677 48.9127H38.0569L35.1484 52.367L39.1835 51.6516L36.111 57.2726H39.0196L36.6026 60.3386L41.7643 61.6263L39.675 63.5477L44.8367 65.1624L42.4197 66.9407L48.1139 68.5554L47.5814 69.8431C47.5814 69.8431 57.9456 74.0333 62.1036 71.4579C66.2616 68.8825 69.1702 68.0853 69.1702 68.0853L71.2594 72.2959L72.7751 66.6341L73.6764 67.2677C73.6764 67.2677 77.2199 60.9927 77.2199 60.032C77.2199 59.0713 80.5995 59.2348 82.8526 54.5541C85.1057 49.8734 75.8885 30.1284 75.8885 30.1284Z" fill="url(#paint60_radial_322_44)"/>
<path d="M63.0663 55.0447C56.6143 68.6576 55.2214 69.5161 55.2214 69.5161L55.5492 68.1262L49.7935 67.2882L51.8828 65.1215L46.6392 64.2017L48.3802 61.9329L43.1776 61.3606L45.062 57.8858L42.2354 58.2946L44.3656 52.0809L40.5558 53.389L42.8499 49.4237L40.8221 49.7303L43.1571 46.0102C43.1571 46.0102 54.2587 48.7083 63.1073 55.0038L63.0663 55.0447Z" fill="url(#paint61_linear_322_44)"/>
<path d="M73.3691 49.2806C64.6845 65.98 62.882 67.0633 62.882 67.0633L63.3121 65.3668L55.754 64.4266L58.5192 61.7694L51.637 60.727L53.9515 57.9267L47.1308 57.2931L49.6501 53.0211L45.9428 53.573L48.8103 45.9693L43.7921 47.625L46.8645 42.7603L44.1812 43.1486L47.2946 38.5905C47.2946 38.5905 61.8374 41.7178 73.3691 49.3011V49.2806Z" fill="url(#paint62_linear_322_44)"/>
<path d="M75.8885 49.6281C69.4365 63.2411 69.2726 60.2364 69.2726 60.2364L69.6003 58.8465L62.6157 61.8716L64.7049 59.705L59.4614 58.7852L61.2024 56.5163L55.9998 55.944L57.8842 52.4692L51.9442 53.3481L55.3239 47.8498L51.5141 49.158L55.6721 44.0276L51.002 43.6596L55.9588 40.6141C55.9588 40.6141 67.0605 43.3122 75.909 49.6076L75.8885 49.6281Z" fill="url(#paint63_linear_322_44)"/>
<path d="M80.9887 47.9724C74.5367 61.5854 76.8512 57.8449 76.8512 57.8449L77.1789 56.455L70.1943 59.4801L72.2836 57.3135L67.04 56.3937L68.781 54.1249L63.5784 53.5525L65.4628 50.0778L59.5228 50.9567L62.9025 45.4583L59.0927 46.7665L63.2507 41.6361L58.5806 41.2682L63.5374 38.2226C63.5374 38.2226 72.1607 41.6565 81.0092 47.952L80.9887 47.9724Z" fill="url(#paint64_linear_322_44)"/>
<path d="M77.9982 33.0922C80.8453 46.1533 82.8526 54.5541 82.8526 54.5541L75.274 54.3701L69.9076 51.856L72.386 48.7083L65.3809 47.9725L67.4087 44.7021L60.506 44.4159L62.5747 39.4899L58.9083 40.3279L60.9771 31.6614L56.1227 33.828L58.683 28.2071L56.0407 28.8203L58.683 23.5468C58.683 23.5468 65.6267 25.3659 77.9778 33.0922H77.9982Z" fill="url(#paint65_linear_322_44)"/>
<path d="M59.5433 35.4632L64.0085 29.086L63.6603 27.7165L65.4833 27.9822L64.9712 25.9382L66.0568 24.0578L65.4628 21.7072L64.8893 19.4383L61.4277 20.2968L62.1446 18.4368L59.7276 13.4903L59.0722 16.7607C59.0722 16.7607 56.901 11.6099 56.4299 10.9353C55.9588 10.2608 56.4914 15.2686 56.4914 15.2686C56.4914 15.2686 52.5382 8.17596 48.7899 8.62564L50.6948 11.2828C50.6948 11.2828 48.2778 8.27816 45.0415 7.992L39.7979 7.72628L42.051 8.72784L37.2581 8.35992C37.2581 8.35992 44.6319 11.9369 42.0306 12.591C42.0306 12.591 37.7292 10.2813 34.8616 10.4039C34.8616 10.4039 40.863 12.7749 40.7401 13.7561C40.7401 13.7561 35.7219 11.6303 30.9494 12.4479C31.6663 12.3457 37.381 13.8583 37.381 13.8583C37.381 13.8583 34.4929 13.6334 31.7277 14.6759C31.7277 14.6759 37.1352 14.5328 37.9545 16.1271C37.9545 16.1271 32.5471 16.1271 31.0109 18.7843L36.9099 18.0689C36.9099 18.0689 31.9531 20.6239 31.6868 21.7685C31.6868 21.7685 36.2339 19.8063 37.9545 20.583C37.9545 20.583 33.3254 22.4635 32.6085 24.0782C32.6085 24.0782 39.0606 21.1553 41.1908 21.9525C41.1908 21.9525 37.0123 23.465 34.1857 27.0624C34.1857 27.0624 39.8184 23.6081 41.3546 23.7103C41.3546 23.7103 36.3568 26.3879 35.7424 28.3501C35.7424 28.3501 40.31 25.6521 41.1703 25.7952L35.4556 31.0687L42.4607 27.042C42.4607 27.042 37.34 31.9271 37.6677 31.6001C37.9955 31.2731 42.8704 29.7809 42.8704 29.7809L38.9377 33.9302L45.5536 30.8438C45.5536 30.8438 43.6282 40.2257 44.2837 39.1833C52.231 26.4901 59.5023 35.4224 59.5023 35.4224L59.5433 35.4632Z" fill="url(#paint66_linear_322_44)"/>
<path d="M58.8264 38.4475L59.7686 35.9129L59.4204 34.5434L61.2434 34.8092L60.7313 32.7652L61.8169 30.8847L61.2229 28.5341L60.6494 26.2653L57.1878 27.1238L57.9047 25.2637L55.4877 20.3173L54.8323 23.5876C54.8323 23.5876 52.6611 18.4368 52.19 17.7623C51.7189 17.0878 52.2514 22.0955 52.2514 22.0955C52.2514 22.0955 48.2983 15.0029 44.5499 15.4526L46.4548 18.1098C46.4548 18.1098 44.0379 15.1051 40.8016 14.8189L35.558 14.5532L37.8111 15.5548L33.0182 15.1868C33.0182 15.1868 40.3919 18.7638 37.7906 19.4179C37.7906 19.4179 33.4893 17.1082 30.6217 17.2308C30.6217 17.2308 36.6231 19.6019 36.5002 20.583C36.5002 20.583 31.482 18.4572 26.7095 19.2748C27.4264 19.1726 33.1411 20.6852 33.1411 20.6852C33.1411 20.6852 30.253 20.4603 27.4878 21.5028C27.4878 21.5028 32.8953 21.3597 33.7146 22.954C33.7146 22.954 28.3071 22.954 26.7709 25.6112L32.67 24.8958C32.67 24.8958 27.7131 27.4508 27.4469 28.5954C27.4469 28.5954 31.994 26.6332 33.7146 27.4099C33.7146 27.4099 29.0855 29.2904 28.3686 30.9051C28.3686 30.9051 34.8206 27.9822 36.9508 28.7794C36.9508 28.7794 32.7724 30.2919 29.9458 33.8894C29.9458 33.8894 35.5785 30.435 37.1147 30.5372C37.1147 30.5372 32.1169 33.2148 31.5024 35.1771C31.5024 35.1771 36.0701 32.479 36.9304 32.6221L31.2157 37.8956L38.2208 33.8689C38.2208 33.8689 33.1001 38.7541 33.4278 38.427C33.7555 38.1 38.6304 36.6079 38.6304 36.6079L34.6977 40.7572L41.3137 37.6707C41.3137 37.6707 39.3883 47.0527 40.0437 46.0102C47.991 33.317 58.7854 38.4066 58.7854 38.4066L58.8264 38.4475Z" fill="url(#paint67_linear_322_44)"/>
<path d="M54.5455 7.82848L49.5272 6.25461L51.4526 7.7876L46.9054 6.23417C46.9054 6.23417 53.1527 11.5485 50.4694 11.5281C50.4694 11.5281 46.885 8.21684 44.0788 7.60364C44.0788 7.60364 49.2814 11.385 48.9332 12.3253C48.9332 12.3253 44.5909 9.014 39.7775 8.62564C40.4944 8.7074 45.6355 11.6099 45.6355 11.6099C45.6355 11.6099 38.1388 10.1382 35.1893 10.4652C35.1893 10.4652 45.2259 12.2026 45.5946 13.9605C45.5946 13.9605 38.2413 12.9589 36.0701 15.146L44.0993 15.5752C44.0993 15.5752 35.6399 17.9462 35.0869 18.9887C35.0869 18.9887 43.0137 17.0673 44.468 18.2528C44.468 18.2528 39.5112 18.9069 38.4256 20.2968C38.4256 20.2968 45.4102 19.0704 47.2741 20.3786C47.2741 20.3786 42.8499 20.8078 39.2039 23.5672C39.2039 23.5672 45.5126 21.6459 46.9874 22.116C46.9874 22.116 41.4775 23.465 40.3919 25.2024C40.3919 25.2024 45.4921 23.7307 46.291 24.0986L39.4293 27.7778L47.2127 25.6316C47.2127 25.6316 41.0269 29.086 41.4161 28.8407C41.8052 28.5954 46.9054 28.391 46.9054 28.391L42.051 31.4161L49.22 30.0875L42.9932 35.0136L50.6333 33.317L45.8813 37.8343C46.8645 38.5701 61.5506 37.9978 61.5506 37.9978L70.2762 36.9758L77.6705 31.6819L54.5455 7.82848Z" fill="url(#paint68_linear_322_44)"/>
<path d="M74.5366 31.8658L78.6537 31.9067V30.2306L80.4562 31.0891V28.575L82.0948 26.7354V23.8534L82.1562 21.0531L78.3874 21.0122L79.6164 19.0704L78.4693 12.6319L76.9331 16.2088C76.9331 16.2088 76.0933 9.58632 75.7861 8.68696C75.4789 7.7876 74.7005 13.7152 74.7005 13.7152C74.7005 13.7152 72.5498 4.33326 68.5967 3.7405L69.8256 7.37881C69.8256 7.37881 68.1665 3.16819 64.9303 1.88047L59.6457 0.0204399L61.694 1.86003L56.901 0C56.901 0 63.4965 6.33637 60.6698 6.31593C60.6698 6.31593 56.8805 2.37103 53.931 1.63519C53.931 1.63519 59.4409 6.15241 59.0517 7.27661C59.0517 7.27661 54.4841 3.3317 49.3839 2.86159C50.1417 2.96379 55.5696 6.41813 55.5696 6.41813C55.5696 6.41813 47.6633 4.6603 44.5499 5.04866C44.5499 5.04866 55.1395 7.11309 55.5492 9.19796C55.5492 9.19796 47.7862 8.01244 45.4921 10.6492L53.972 11.1397C53.972 11.1397 45.021 13.9809 44.4475 15.2482C44.4475 15.2482 52.825 12.9589 54.3612 14.3693C54.3612 14.3693 49.1176 15.1664 47.9706 16.822C47.9706 16.822 55.3443 15.3504 57.3107 16.9038C57.3107 16.9038 52.6406 17.4148 48.7899 20.7261C48.7899 20.7261 55.4672 18.4164 57.0239 18.9887C57.0239 18.9887 51.2068 20.6034 50.0598 22.6883C50.0598 22.6883 55.4467 20.9305 56.307 21.3597L49.0561 25.7543L57.2902 23.1789C57.2902 23.1789 50.7357 27.3077 51.1659 27.0216C51.596 26.7354 56.983 26.4697 56.983 26.4697L51.8623 30.108L59.4409 28.5137L54.6684 32.806C54.6684 32.806 59.4818 32.0089 60.5469 32.8674C61.612 33.7258 74.6186 31.8863 74.6186 31.8863L74.5366 31.8658Z" fill="url(#paint69_radial_322_44)"/>
<path d="M80.3128 31.3139L83.6924 31.3548V30.0671L85.1672 30.7212V28.7998L86.4986 27.3895V25.182L86.5395 23.0562H83.4671L84.4708 21.5437L83.5286 16.6381L82.2791 19.377C82.2791 19.377 81.5827 14.3284 81.3369 13.6334C81.0911 12.9385 80.4562 17.4761 80.4562 17.4761C80.4562 17.4761 78.6946 10.3221 75.4584 9.87247L76.4825 12.6523C76.4825 12.6523 75.1307 9.44323 72.4679 8.46212L68.1256 7.03133L69.8051 8.44168L65.8725 7.01089C65.8725 7.01089 71.2799 11.8551 68.9449 11.8347C68.9449 11.8347 65.852 8.83004 63.4145 8.25772C63.4145 8.25772 67.9207 11.7121 67.6135 12.5501C67.6135 12.5501 63.8651 9.52499 59.7072 9.17752C60.3216 9.25927 64.7869 11.896 64.7869 11.896C64.7869 11.896 58.3143 10.547 55.754 10.8536C55.754 10.8536 64.4182 12.4275 64.7664 14.0218C64.7664 14.0218 58.3963 13.102 56.5323 15.1255L63.476 15.5139C63.476 15.5139 56.1636 17.6805 55.6925 18.6412C55.6925 18.6412 62.5338 16.9038 63.8037 17.9667C63.8037 17.9667 59.5023 18.5594 58.5806 19.8267C58.5806 19.8267 64.623 18.7025 66.2207 19.9085C66.2207 19.9085 62.3904 20.2968 59.2361 22.8314C59.2361 22.8314 64.7049 21.0735 65.9749 21.5028C65.9749 21.5028 61.2229 22.7292 60.2807 24.3235C60.2807 24.3235 64.7049 22.9744 65.3809 23.3015L59.4409 26.6536L66.1797 24.6914C66.1797 24.6914 60.8132 27.8391 61.1614 27.6347C61.5096 27.4303 65.9134 27.2259 65.9134 27.2259L61.7145 29.9853L67.9207 28.7589L64.0085 32.0293C64.0085 32.0293 67.9412 31.4366 68.822 32.0702C69.7027 32.7038 80.3333 31.3344 80.3333 31.3344L80.3128 31.3139Z" fill="url(#paint70_linear_322_44)"/>
<path d="M86.6419 30.9665H89.2637V29.9445L90.4108 30.4759V28.9225L91.4554 27.7778V25.9791L91.4963 24.2417H89.0999L89.8782 23.0153L89.1408 19.0091L88.1577 21.2371C88.1577 21.2371 87.6251 17.1286 87.4203 16.5563C87.2155 15.984 86.7239 19.6836 86.7239 19.6836C86.7239 19.6836 85.3515 13.8583 82.8321 13.4903L83.6105 15.7592C83.6105 15.7592 82.5659 13.1429 80.4971 12.3457L77.138 11.1806L78.4284 12.3253L75.3764 11.1602C75.3764 11.1602 79.5754 15.1051 77.7729 15.0846C77.7729 15.0846 75.3764 12.6319 73.492 12.1822C73.492 12.1822 76.9946 14.9824 76.7488 15.6774C76.7488 15.6774 73.8402 13.2246 70.604 12.9385C71.0751 12.9998 74.5366 15.146 74.5366 15.146C74.5366 15.146 69.5184 14.0627 67.5316 14.3079C67.5316 14.3079 74.2704 15.5956 74.5162 16.8834C74.5162 16.8834 69.5798 16.1475 68.1255 17.7827L73.5125 18.0893C73.5125 18.0893 67.8183 19.8676 67.4701 20.6443C67.4701 20.6443 72.7956 19.2135 73.7788 20.0924C73.7788 20.0924 70.4401 20.583 69.7232 21.6254C69.7232 21.6254 74.4137 20.7056 75.6632 21.6867C75.6632 21.6867 72.6932 22.0138 70.2353 24.0578C70.2353 24.0578 74.4752 22.627 75.4584 22.9745C75.4584 22.9745 71.751 23.976 71.0341 25.2842C71.0341 25.2842 74.4547 24.1804 75.0077 24.4461L70.3991 27.1851L75.6222 25.5908C75.6222 25.5908 71.4642 28.1457 71.7305 27.9822C71.9968 27.8187 75.4174 27.6347 75.4174 27.6347L72.1606 29.8831L76.9741 28.8816L73.9426 31.5388C73.9426 31.5388 76.9946 31.0482 77.6705 31.5796C78.3464 32.1111 86.6215 30.9665 86.6215 30.9665H86.6419Z" fill="url(#paint71_radial_322_44)"/>
<path d="M87.7275 29.2291H89.0999V28.6772L89.6939 28.9633V28.1049L90.2264 27.4712V26.4901V25.5499H88.977L89.3866 24.8754L88.9975 22.6883L88.4854 23.9147C88.4854 23.9147 88.1986 21.6663 88.1167 21.3597C88.0348 21.0531 87.748 23.0766 87.748 23.0766C87.748 23.0766 87.0311 19.888 85.7202 19.6836L86.1299 20.9305C86.1299 20.9305 85.5768 19.4997 84.5117 19.0704L82.7502 18.4368L83.4261 19.0704L81.849 18.4368C81.849 18.4368 84.0201 20.6034 83.0984 20.583C83.0984 20.583 81.849 19.2339 80.8658 18.9887C80.8658 18.9887 82.6888 20.5217 82.5659 20.91C82.5659 20.91 81.0502 19.561 79.3706 19.4179C79.6164 19.4588 81.4188 20.6239 81.4188 20.6239C81.4188 20.6239 78.7971 20.0311 77.7729 20.1537C77.7729 20.1537 81.2755 20.8487 81.4188 21.5641C81.4188 21.5641 78.838 21.1553 78.0802 22.0547L80.8863 22.2182C80.8863 22.2182 77.9163 23.1788 77.732 23.6081C77.732 23.6081 80.4971 22.8314 81.0092 23.3015C81.0092 23.3015 79.2682 23.5672 78.8995 24.1395C78.8995 24.1395 81.3369 23.649 81.9924 24.16C81.9924 24.16 80.4357 24.3439 79.1657 25.4681C79.1657 25.4681 81.3779 24.6914 81.8899 24.8754C81.8899 24.8754 79.9646 25.4272 79.5754 26.1426C79.5754 26.1426 81.3574 25.5499 81.6442 25.693L79.2477 27.1851L81.9719 26.3062C81.9719 26.3062 79.8007 27.7165 79.9441 27.6143C80.0875 27.5121 81.8695 27.4303 81.8695 27.4303L80.1694 28.6567L82.6683 28.1049L81.0911 29.5561C81.0911 29.5561 82.6888 29.2904 83.037 29.5561C83.3852 29.8218 87.6866 29.2291 87.6866 29.2291H87.7275Z" fill="url(#paint72_radial_322_44)"/>
<path d="M51.0225 37.5685C51.0225 37.5685 52.4768 36.5261 53.7672 34.5843C55.0576 32.6425 61.7554 32.2542 63.8447 35.2997C64.8893 36.4239 66.7327 36.7509 66.7327 36.7509C66.7327 36.7509 69.3955 40.2871 59.3999 42.6172C54.566 42.2084 56.0203 40.4915 54.3202 40.1031C52.6201 39.7147 50.6948 38.5905 51.0225 37.5481V37.5685Z" fill="url(#paint73_radial_322_44)"/>
<path d="M55.6516 34.9114C55.6516 34.9114 60.4445 32.0089 63.7423 37.4868C64.4592 40.1235 60.5265 43.026 57.2902 41.0229C54.0744 39.0198 54.8732 34.6661 55.6311 34.9114H55.6516Z" fill="url(#paint74_radial_322_44)"/>
</g>
<defs>
<linearGradient id="paint0_linear_322_44" x1="13.9487" y1="37.405" x2="138.353" y2="140.985" gradientUnits="userSpaceOnUse">
<stop offset="0.14" stop-color="#496619"/>
<stop offset="0.43" stop-color="#4A6223"/>
<stop offset="0.63" stop-color="#1B4E17"/>
<stop offset="0.84" stop-color="#212212"/>
</linearGradient>
<linearGradient id="paint1_linear_322_44" x1="96.0845" y1="80.3901" x2="45.2794" y2="58.5651" gradientUnits="userSpaceOnUse">
<stop offset="0.07" stop-color="#101A00"/>
<stop offset="0.27" stop-color="#142401"/>
<stop offset="0.44" stop-color="#0E1500"/>
<stop offset="0.79" stop-color="#091900"/>
<stop offset="1" stop-color="#243626"/>
</linearGradient>
<linearGradient id="paint2_linear_322_44" x1="89.1432" y1="82.9934" x2="78.4868" y2="69.7167" gradientUnits="userSpaceOnUse">
<stop offset="0.23" stop-color="#314421"/>
<stop offset="0.96" stop-color="#0E1500"/>
</linearGradient>
<linearGradient id="paint3_linear_322_44" x1="90.6957" y1="76.5492" x2="80.053" y2="63.2877" gradientUnits="userSpaceOnUse">
<stop offset="0.23" stop-color="#314421"/>
<stop offset="0.96" stop-color="#0E1500"/>
</linearGradient>
<linearGradient id="paint4_linear_322_44" x1="82.7297" y1="82.5032" x2="72.087" y2="69.2417" gradientUnits="userSpaceOnUse">
<stop offset="0.23" stop-color="#314421"/>
<stop offset="0.96" stop-color="#0E1500"/>
</linearGradient>
<linearGradient id="paint5_linear_322_44" x1="78.3055" y1="40.1235" x2="96.2279" y2="40.1235" gradientUnits="userSpaceOnUse">
<stop offset="0.65" stop-color="#C9A063"/>
<stop offset="1" stop-color="#7A6A56"/>
</linearGradient>
<linearGradient id="paint6_linear_322_44" x1="78.6127" y1="47.6863" x2="92.459" y2="47.6863" gradientUnits="userSpaceOnUse">
<stop offset="0.65" stop-color="#C9A063"/>
<stop offset="1" stop-color="#7A6A56"/>
</linearGradient>
<linearGradient id="paint7_linear_322_44" x1="90.4927" y1="65.3872" x2="103.282" y2="72.5436" gradientUnits="userSpaceOnUse">
<stop offset="0.19" stop-color="#142401"/>
<stop offset="0.22" stop-color="#1C250D"/>
<stop offset="0.25" stop-color="#091900"/>
<stop offset="1" stop-color="#243626"/>
</linearGradient>
<linearGradient id="paint8_linear_322_44" x1="88.9974" y1="60.4612" x2="111.954" y2="74.1164" gradientUnits="userSpaceOnUse">
<stop offset="0.51" stop-color="#192500"/>
<stop offset="0.52" stop-color="#0F2404"/>
<stop offset="1" stop-color="#0D3013"/>
</linearGradient>
<linearGradient id="paint9_linear_322_44" x1="89.7963" y1="77.8965" x2="99.4941" y2="83.8216" gradientUnits="userSpaceOnUse">
<stop offset="0.5" stop-color="#183107"/>
<stop offset="0.52" stop-color="#0B1300"/>
<stop offset="0.54" stop-color="#102E0C"/>
</linearGradient>
<linearGradient id="paint10_linear_322_44" x1="94.876" y1="75.5459" x2="113.194" y2="84.1806" gradientUnits="userSpaceOnUse">
<stop offset="0.14" stop-color="#0B1300"/>
<stop offset="0.33" stop-color="#0A2000"/>
<stop offset="1" stop-color="#29461B"/>
</linearGradient>
<linearGradient id="paint11_linear_322_44" x1="93.647" y1="101.505" x2="119.435" y2="101.505" gradientUnits="userSpaceOnUse">
<stop offset="0.04" stop-color="#0B1300"/>
<stop offset="0.14" stop-color="#0A2000"/>
<stop offset="1" stop-color="#29461B"/>
</linearGradient>
<linearGradient id="paint12_linear_322_44" x1="88.7107" y1="109.864" x2="127.505" y2="109.864" gradientUnits="userSpaceOnUse">
<stop offset="0.04" stop-color="#0B1300"/>
<stop offset="0.14" stop-color="#0A2000"/>
<stop offset="1" stop-color="#374E1F"/>
</linearGradient>
<linearGradient id="paint13_linear_322_44" x1="139.836" y1="109.19" x2="141.08" y2="124.316" gradientUnits="userSpaceOnUse">
<stop offset="0.03" stop-color="#162417"/>
<stop offset="0.19" stop-color="#252E25"/>
<stop offset="0.53" stop-color="#0C1812"/>
<stop offset="0.81" stop-color="#172125"/>
</linearGradient>
<linearGradient id="paint14_linear_322_44" x1="111.418" y1="126.758" x2="182.579" y2="133.536" gradientUnits="userSpaceOnUse">
<stop stop-color="#2E4A1A"/>
<stop offset="0.64" stop-color="#0A2000"/>
<stop offset="0.96"/>
</linearGradient>
<linearGradient id="paint15_linear_322_44" x1="89.1204" y1="126.523" x2="185" y2="126.523" gradientUnits="userSpaceOnUse">
<stop stop-color="#2E4A1A"/>
<stop offset="0.64" stop-color="#0A2000"/>
<stop offset="0.96"/>
</linearGradient>
<linearGradient id="paint16_linear_322_44" x1="74.762" y1="103.978" x2="79.4558" y2="91.6051" gradientUnits="userSpaceOnUse">
<stop offset="0.29" stop-color="#0A2000"/>
<stop offset="0.85" stop-color="#1C350B"/>
</linearGradient>
<linearGradient id="paint17_linear_322_44" x1="75.4789" y1="96.2924" x2="88.7107" y2="96.2924" gradientUnits="userSpaceOnUse">
<stop/>
<stop offset="0.15" stop-color="#0A2000"/>
<stop offset="0.85" stop-color="#1C350B"/>
</linearGradient>
<linearGradient id="paint18_linear_322_44" x1="83.8358" y1="102.67" x2="104.646" y2="104.517" gradientUnits="userSpaceOnUse">
<stop/>
<stop offset="0.15" stop-color="#0A2000"/>
<stop offset="0.85" stop-color="#1C350B"/>
</linearGradient>
<linearGradient id="paint19_linear_322_44" x1="73.7583" y1="101.014" x2="96.0018" y2="102.984" gradientUnits="userSpaceOnUse">
<stop/>
<stop offset="0.15" stop-color="#0A2000"/>
<stop offset="0.85" stop-color="#1C350B"/>
</linearGradient>
<linearGradient id="paint20_linear_322_44" x1="82.5044" y1="110.764" x2="106.24" y2="115.546" gradientUnits="userSpaceOnUse">
<stop/>
<stop offset="0.24" stop-color="#0A2000"/>
<stop offset="0.85" stop-color="#1C350B"/>
</linearGradient>
<linearGradient id="paint21_linear_322_44" x1="75.4174" y1="140.422" x2="69.4913" y2="133.767" gradientUnits="userSpaceOnUse">
<stop offset="0.07" stop-color="#2E4A1A"/>
<stop offset="0.28" stop-color="#1C350B"/>
<stop offset="0.55" stop-color="#0A2000"/>
<stop offset="0.83"/>
</linearGradient>
<linearGradient id="paint22_linear_322_44" x1="76.3186" y1="135.66" x2="104.728" y2="135.66" gradientUnits="userSpaceOnUse">
<stop offset="0.07" stop-color="#2E4A1A"/>
<stop offset="0.28" stop-color="#1C350B"/>
<stop offset="0.74" stop-color="#0A2000"/>
<stop offset="0.96"/>
</linearGradient>
<linearGradient id="paint23_linear_322_44" x1="69.4979" y1="120.616" x2="84.8936" y2="134.015" gradientUnits="userSpaceOnUse">
<stop offset="0.04"/>
<stop offset="0.26" stop-color="#0A2000"/>
<stop offset="0.72" stop-color="#1C350B"/>
<stop offset="0.93" stop-color="#2E4A1A"/>
</linearGradient>
<linearGradient id="paint24_linear_322_44" x1="78.9445" y1="102.08" x2="95.3641" y2="115.67" gradientUnits="userSpaceOnUse">
<stop/>
<stop offset="0.29" stop-color="#0A2000"/>
<stop offset="0.85" stop-color="#1C350B"/>
</linearGradient>
<linearGradient id="paint25_linear_322_44" x1="48.9354" y1="90.2365" x2="66.2538" y2="105.791" gradientUnits="userSpaceOnUse">
<stop/>
<stop offset="0.42" stop-color="#1A3107"/>
<stop offset="0.7" stop-color="#1C350B"/>
<stop offset="1" stop-color="#2E4A1A"/>
</linearGradient>
<linearGradient id="paint26_linear_322_44" x1="54.0879" y1="87.4845" x2="68.1974" y2="116.701" gradientUnits="userSpaceOnUse">
<stop offset="0.04"/>
<stop offset="0.26" stop-color="#0A2000"/>
<stop offset="0.61" stop-color="#1C350B"/>
</linearGradient>
<linearGradient id="paint27_linear_322_44" x1="59.9091" y1="83.7314" x2="72.9423" y2="117.103" gradientUnits="userSpaceOnUse">
<stop offset="0.04"/>
<stop offset="0.22" stop-color="#0A2000"/>
<stop offset="0.63" stop-color="#1C350B"/>
<stop offset="1" stop-color="#2E4A1A"/>
</linearGradient>
<linearGradient id="paint28_linear_322_44" x1="46.6592" y1="88.6001" x2="61.0911" y2="110.473" gradientUnits="userSpaceOnUse">
<stop/>
<stop offset="0.37" stop-color="#1C350B"/>
<stop offset="1" stop-color="#2E4A1A"/>
</linearGradient>
<linearGradient id="paint29_linear_322_44" x1="76.4164" y1="97.1038" x2="57.3443" y2="72.7817" gradientUnits="userSpaceOnUse">
<stop stop-color="#2E4A1A"/>
<stop offset="0.76" stop-color="#1C350B"/>
<stop offset="0.88" stop-color="#0A2000"/>
<stop offset="1"/>
</linearGradient>
<linearGradient id="paint30_linear_322_44" x1="38.3882" y1="131.331" x2="38.1135" y2="100.942" gradientUnits="userSpaceOnUse">
<stop stop-color="#2E4A1A"/>
<stop offset="0.76" stop-color="#1C350B"/>
<stop offset="0.88" stop-color="#0A2000"/>
<stop offset="1"/>
</linearGradient>
<linearGradient id="paint31_linear_322_44" x1="97.1701" y1="139.216" x2="119.23" y2="139.216" gradientUnits="userSpaceOnUse">
<stop stop-color="#2E4A1A"/>
<stop offset="0.51" stop-color="#1C350B"/>
<stop offset="0.66" stop-color="#0A2000"/>
<stop offset="0.96"/>
</linearGradient>
<linearGradient id="paint32_linear_322_44" x1="94.8402" y1="139.863" x2="116.456" y2="144.152" gradientUnits="userSpaceOnUse">
<stop stop-color="#2E4A1A"/>
<stop offset="0.51" stop-color="#1C350B"/>
<stop offset="0.66" stop-color="#0A2000"/>
<stop offset="0.96"/>
</linearGradient>
<linearGradient id="paint33_linear_322_44" x1="86.1218" y1="139.078" x2="107.758" y2="143.371" gradientUnits="userSpaceOnUse">
<stop stop-color="#2E4A1A"/>
<stop offset="0.51" stop-color="#1C350B"/>
<stop offset="0.66" stop-color="#0A2000"/>
<stop offset="0.96"/>
</linearGradient>
<linearGradient id="paint34_linear_322_44" x1="78.605" y1="140.655" x2="100.221" y2="144.945" gradientUnits="userSpaceOnUse">
<stop stop-color="#2E4A1A"/>
<stop offset="0.51" stop-color="#1C350B"/>
<stop offset="0.66" stop-color="#0A2000"/>
<stop offset="0.96"/>
</linearGradient>
<linearGradient id="paint35_linear_322_44" x1="84.3273" y1="143.745" x2="97.055" y2="161.725" gradientUnits="userSpaceOnUse">
<stop stop-color="#2E4A1A"/>
<stop offset="0.51" stop-color="#1C350B"/>
<stop offset="0.66" stop-color="#0A2000"/>
<stop offset="0.96"/>
</linearGradient>
<linearGradient id="paint36_linear_322_44" x1="77.4995" y1="137.602" x2="90.2272" y2="155.582" gradientUnits="userSpaceOnUse">
<stop stop-color="#2E4A1A"/>
<stop offset="0.51" stop-color="#1C350B"/>
<stop offset="0.66" stop-color="#0A2000"/>
<stop offset="0.96"/>
</linearGradient>
<linearGradient id="paint37_linear_322_44" x1="24.1696" y1="141.649" x2="52.0503" y2="122.524" gradientUnits="userSpaceOnUse">
<stop offset="0.26" stop-color="#54642F"/>
<stop offset="0.68" stop-color="#516133"/>
<stop offset="0.96" stop-color="#414444"/>
</linearGradient>
<linearGradient id="paint38_linear_322_44" x1="29.1879" y1="139.441" x2="55.3708" y2="121.485" gradientUnits="userSpaceOnUse">
<stop offset="0.04" stop-color="#414444"/>
<stop offset="0.32" stop-color="#516133"/>
<stop offset="0.74" stop-color="#54642F"/>
</linearGradient>
<linearGradient id="paint39_linear_322_44" x1="11.4089" y1="142.057" x2="96.2688" y2="142.057" gradientUnits="userSpaceOnUse">
<stop stop-color="#243629"/>
<stop offset="0.19" stop-color="#323614"/>
<stop offset="0.7" stop-color="#414444"/>
</linearGradient>
<linearGradient id="paint40_linear_322_44" x1="68.5762" y1="165.011" x2="75.7322" y2="158.783" gradientUnits="userSpaceOnUse">
<stop offset="0.15" stop-color="#243629"/>
<stop offset="0.97" stop-color="#414444"/>
</linearGradient>
<linearGradient id="paint41_linear_322_44" x1="54.8118" y1="161.864" x2="88.1986" y2="161.864" gradientUnits="userSpaceOnUse">
<stop offset="0.37" stop-color="#243629"/>
<stop offset="0.97" stop-color="#3C3736"/>
</linearGradient>
<linearGradient id="paint42_linear_322_44" x1="62.7181" y1="155.834" x2="76.7379" y2="140.843" gradientUnits="userSpaceOnUse">
<stop stop-color="#617F69"/>
<stop offset="0.04" stop-color="#344A3B"/>
<stop offset="0.2" stop-color="#243629"/>
<stop offset="1" stop-color="#414444"/>
</linearGradient>
<linearGradient id="paint43_linear_322_44" x1="51.4526" y1="151.991" x2="80.0465" y2="151.991" gradientUnits="userSpaceOnUse">
<stop stop-color="#243629"/>
<stop offset="0.37" stop-color="#243629"/>
<stop offset="1" stop-color="#3C3736"/>
</linearGradient>
<linearGradient id="paint44_linear_322_44" x1="54.2383" y1="148.741" x2="63.4781" y2="139.974" gradientUnits="userSpaceOnUse">
<stop offset="0.06" stop-color="#56735E"/>
<stop offset="0.14" stop-color="#2D4234"/>
<stop offset="0.48" stop-color="#243629"/>
<stop offset="0.86" stop-color="#334438"/>
<stop offset="0.96" stop-color="#414444"/>
</linearGradient>
<linearGradient id="paint45_linear_322_44" x1="45.062" y1="144.326" x2="72.0582" y2="144.326" gradientUnits="userSpaceOnUse">
<stop offset="0.02" stop-color="#2D4234"/>
<stop offset="0.48" stop-color="#243629"/>
<stop offset="0.86" stop-color="#334438"/>
<stop offset="0.96" stop-color="#414444"/>
</linearGradient>
<linearGradient id="paint46_linear_322_44" x1="46.4958" y1="140.831" x2="61.4617" y2="127.596" gradientUnits="userSpaceOnUse">
<stop stop-color="#56735E"/>
<stop offset="0.1" stop-color="#243629"/>
<stop offset="0.34" stop-color="#2F4135"/>
<stop offset="0.7" stop-color="#414444"/>
</linearGradient>
<linearGradient id="paint47_linear_322_44" x1="40.1871" y1="136.436" x2="60.1168" y2="136.436" gradientUnits="userSpaceOnUse">
<stop offset="0.02" stop-color="#2D4234"/>
<stop offset="0.58" stop-color="#243629"/>
<stop offset="0.91" stop-color="#334438"/>
<stop offset="0.96" stop-color="#414444"/>
</linearGradient>
<linearGradient id="paint48_linear_322_44" x1="36.8894" y1="128.26" x2="52.6491" y2="112.754" gradientUnits="userSpaceOnUse">
<stop stop-color="#56735E"/>
<stop offset="0.08" stop-color="#243629"/>
<stop offset="0.28" stop-color="#334538"/>
<stop offset="0.76" stop-color="#414444"/>
</linearGradient>
<linearGradient id="paint49_linear_322_44" x1="1.99144e-06" y1="101.791" x2="52.3539" y2="101.791" gradientUnits="userSpaceOnUse">
<stop stop-color="#4C5F2C"/>
<stop offset="0.39" stop-color="#2A341B"/>
<stop offset="0.67" stop-color="#2C3920"/>
<stop offset="0.99" stop-color="#243629"/>
</linearGradient>
<linearGradient id="paint50_linear_322_44" x1="13.6005" y1="111.459" x2="47.2946" y2="111.459" gradientUnits="userSpaceOnUse">
<stop stop-color="#4C5F2C"/>
<stop offset="0.39" stop-color="#2A341B"/>
<stop offset="0.67" stop-color="#2C3920"/>
<stop offset="0.99" stop-color="#243629"/>
</linearGradient>
<radialGradient id="paint51_radial_322_44" cx="0" cy="0" r="1" gradientUnits="userSpaceOnUse" gradientTransform="translate(29.1936 70.8921) scale(29.0134 24.4985)">
<stop offset="0.09" stop-color="#385329"/>
<stop offset="0.18" stop-color="#2B481B"/>
<stop offset="0.55" stop-color="#1F3C0D"/>
<stop offset="1" stop-color="#102E0C"/>
</radialGradient>
<radialGradient id="paint52_radial_322_44" cx="0" cy="0" r="1" gradientUnits="userSpaceOnUse" gradientTransform="translate(53.6033 52.8985) scale(35.3327 35.2588)">
<stop stop-color="#4F5E2C"/>
<stop offset="0.74" stop-color="#25450F"/>
</radialGradient>
<linearGradient id="paint53_linear_322_44" x1="16.7344" y1="69.8023" x2="54.4992" y2="53.0853" gradientUnits="userSpaceOnUse">
<stop offset="0.38" stop-color="#334518"/>
<stop offset="0.8" stop-color="#48592A"/>
</linearGradient>
<linearGradient id="paint54_linear_322_44" x1="23.9238" y1="66.307" x2="62.4869" y2="49.2414" gradientUnits="userSpaceOnUse">
<stop stop-color="#435628"/>
<stop offset="0.61" stop-color="#48592A"/>
</linearGradient>
<radialGradient id="paint55_radial_322_44" cx="0" cy="0" r="1" gradientUnits="userSpaceOnUse" gradientTransform="translate(33.264 44.9678) scale(16.8163 16.7812)">
<stop offset="0.1" stop-color="#617F33"/>
<stop offset="0.92" stop-color="#50702E"/>
</radialGradient>
<linearGradient id="paint56_linear_322_44" x1="19.1514" y1="37.8956" x2="52.9417" y2="21.5906" gradientUnits="userSpaceOnUse">
<stop stop-color="#709530"/>
<stop offset="0.52" stop-color="#5A742D"/>
<stop offset="1" stop-color="#4F642A"/>
</linearGradient>
<linearGradient id="paint57_linear_322_44" x1="15.997" y1="42.6376" x2="49.6646" y2="26.4146" gradientUnits="userSpaceOnUse">
<stop stop-color="#709530"/>
<stop offset="0.52" stop-color="#5A742D"/>
<stop offset="1" stop-color="#4F642A"/>
</linearGradient>
<linearGradient id="paint58_linear_322_44" x1="38.9172" y1="23.5468" x2="75.3969" y2="23.5468" gradientUnits="userSpaceOnUse">
<stop offset="0.37" stop-color="#607A33"/>
<stop offset="0.63" stop-color="#4F642A"/>
</linearGradient>
<linearGradient id="paint59_linear_322_44" x1="40.3919" y1="18.3959" x2="77.4042" y2="18.3959" gradientUnits="userSpaceOnUse">
<stop stop-color="#709530"/>
<stop offset="0.11" stop-color="#5B752E"/>
<stop offset="0.56" stop-color="#4F642A"/>
</linearGradient>
<radialGradient id="paint60_radial_322_44" cx="0" cy="0" r="1" gradientUnits="userSpaceOnUse" gradientTransform="translate(59.1746 50.9976) scale(24.5383 24.487)">
<stop stop-color="#666F34"/>
<stop offset="0.16" stop-color="#676F34"/>
<stop offset="0.81" stop-color="#7E7F3C"/>
<stop offset="1" stop-color="#435628"/>
</radialGradient>
<linearGradient id="paint61_linear_322_44" x1="39.5637" y1="57.7284" x2="62.0454" y2="57.9054" gradientUnits="userSpaceOnUse">
<stop stop-color="#435628"/>
<stop offset="0.19" stop-color="#7E7F3C"/>
<stop offset="1" stop-color="#48592A"/>
</linearGradient>
<linearGradient id="paint62_linear_322_44" x1="49.2601" y1="52.2188" x2="78.7553" y2="52.1207" gradientUnits="userSpaceOnUse">
<stop stop-color="#435628"/>
<stop offset="0.19" stop-color="#7E7F3C"/>
<stop offset="1" stop-color="#48592A"/>
</linearGradient>
<linearGradient id="paint63_linear_322_44" x1="50.1088" y1="51.1822" x2="74.9124" y2="51.3774" gradientUnits="userSpaceOnUse">
<stop stop-color="#435628"/>
<stop offset="0.19" stop-color="#7E7F3C"/>
<stop offset="1" stop-color="#48592A"/>
</linearGradient>
<linearGradient id="paint64_linear_322_44" x1="57.7187" y1="48.7972" x2="80.0442" y2="48.9729" gradientUnits="userSpaceOnUse">
<stop stop-color="#435628"/>
<stop offset="0.19" stop-color="#7E7F3C"/>
<stop offset="1" stop-color="#48592A"/>
</linearGradient>
<linearGradient id="paint65_linear_322_44" x1="38.7429" y1="40.2674" x2="63.3499" y2="38.6512" gradientUnits="userSpaceOnUse">
<stop stop-color="#435628"/>
<stop offset="0.19" stop-color="#7E7F3C"/>
<stop offset="0.71" stop-color="#4E622E"/>
</linearGradient>
<linearGradient id="paint66_linear_322_44" x1="32.0329" y1="23.2119" x2="63.8057" y2="15.2853" gradientUnits="userSpaceOnUse">
<stop stop-color="#709530"/>
<stop offset="0.56" stop-color="#4F642A"/>
</linearGradient>
<linearGradient id="paint67_linear_322_44" x1="27.7688" y1="29.9996" x2="59.5666" y2="22.0667" gradientUnits="userSpaceOnUse">
<stop stop-color="#709530"/>
<stop offset="0.56" stop-color="#4F642A"/>
</linearGradient>
<linearGradient id="paint68_linear_322_44" x1="35.0142" y1="22.0224" x2="77.7507" y2="22.426" gradientUnits="userSpaceOnUse">
<stop stop-color="#709530"/>
<stop offset="0.56" stop-color="#4F642A"/>
</linearGradient>
<radialGradient id="paint69_radial_322_44" cx="0" cy="0" r="1" gradientUnits="userSpaceOnUse" gradientTransform="translate(62.8261 20.9651) rotate(0.538871) scale(27.3199 28.2725)">
<stop offset="0.43" stop-color="#52682B"/>
<stop offset="0.45" stop-color="#536A2B"/>
<stop offset="0.8" stop-color="#688A2E"/>
<stop offset="1" stop-color="#719730"/>
</radialGradient>
<linearGradient id="paint70_linear_322_44" x1="55.6087" y1="19.5146" x2="86.5514" y2="19.8069" gradientUnits="userSpaceOnUse">
<stop stop-color="#709530"/>
<stop offset="0.56" stop-color="#4F642A"/>
</linearGradient>
<radialGradient id="paint71_radial_322_44" cx="0" cy="0" r="1" gradientUnits="userSpaceOnUse" gradientTransform="translate(83.3314 24.3902) rotate(0.538871) scale(20.0229 19.4101)">
<stop stop-color="#719730"/>
<stop offset="0.77" stop-color="#4F642A"/>
<stop offset="0.98" stop-color="#52682B"/>
</radialGradient>
<radialGradient id="paint72_radial_322_44" cx="0" cy="0" r="1" gradientUnits="userSpaceOnUse" gradientTransform="translate(85.9657 25.6368) rotate(0.538871) scale(7.14847 7.2762)">
<stop offset="0.2" stop-color="#4F642A"/>
<stop offset="1" stop-color="#719730"/>
</radialGradient>
<radialGradient id="paint73_radial_322_44" cx="0" cy="0" r="1" gradientUnits="userSpaceOnUse" gradientTransform="translate(59.0107 37.8547) scale(6.61592 6.60209)">
<stop offset="0.22" stop-color="#ECF1F8"/>
<stop offset="0.99" stop-color="#595757"/>
</radialGradient>
<radialGradient id="paint74_radial_322_44" cx="0" cy="0" r="1" gradientUnits="userSpaceOnUse" gradientTransform="translate(59.9325 36.7101) scale(4.77248 4.7625)">
<stop offset="0.01" stop-color="#ECF1F8"/>
<stop offset="0.17" stop-color="#231815"/>
<stop offset="0.58" stop-color="#251A17"/>
<stop offset="0.8" stop-color="#210900"/>
</radialGradient>
<clipPath id="clip0_322_44">
<rect width="185" height="184" fill="white"/>
</clipPath>
</defs>
</svg>
