<svg width="27" height="46" viewBox="0 0 27 46" fill="none" xmlns="http://www.w3.org/2000/svg">
<g clip-path="url(#clip0_896_265)">
<path d="M0.429902 5.61009C0.429902 5.61009 -0.330098 -0.0499148 7.7599 8.51912e-05C15.8499 0.0500852 17.2199 5.31009 17.2199 5.31009C17.2199 5.31009 17.4699 9.46008 20.5599 11.3301C23.6499 13.2001 25.6699 16.7401 25.6699 16.7401C25.6699 16.7401 26.6299 23.3101 26.3399 26.8601C26.3399 26.8601 25.7699 30.9101 24.3499 32.6301L23.7399 38.0901L22.3199 37.4301C22.3199 37.4301 21.5599 40.1101 19.7899 38.0901C19.7899 38.0901 19.4399 40.8201 12.8899 39.1301C12.8899 39.1301 7.0799 40.1701 5.9599 36.5801C5.9599 36.5801 3.8599 37.6401 3.3999 38.7801C3.3999 38.7801 2.2099 38.7001 2.7899 34.3001C2.7899 34.3001 1.2199 32.3301 1.2499 31.2701C1.2799 30.2101 1.1999 20.8301 1.4999 20.3001C1.7999 19.7701 3.4499 17.7701 3.2399 17.4901C3.0299 17.2101 1.4199 14.1501 1.6699 12.8601L0.429902 5.61009Z" fill="url(#paint0_linear_896_265)"/>
<path d="M7.56993 11.32C7.56993 11.32 0.95993 16.71 4.14993 16.54C11.3699 15.38 18.5799 15.05 18.5799 15.05H18.0099L18.8399 15.66H18.3099L19.1399 16.19L18.4199 16.54H20.1599L19.4399 17.21C19.4399 17.21 17.9699 33.64 18.0899 33.64C18.2099 33.64 17.7499 33.87 17.7499 33.87C17.7499 33.87 21.3199 35.36 21.3199 36.04C21.3199 36.72 23.7399 38.08 23.7399 38.08C23.7399 38.08 24.0299 35.45 24.3199 32.61C27.2699 28.44 26.6599 23.33 25.8299 18.33C25.8199 17.9 25.4999 17.25 26.0499 16.41L25.6599 16.73L25.6299 15.88H25.1099L25.1699 15.27L24.7899 15.42L24.8299 14.67C24.8299 14.67 23.0099 12.14 21.7199 12.19L21.8699 11.75L21.1399 11.79L21.4099 11.4H20.9499L21.0599 11.02L20.4699 11.18L20.6799 10.76H20.1099L20.2799 10.53C19.3499 8.95 12.5899 6.92001 7.53993 11.29L7.56993 11.32Z" fill="url(#paint1_radial_896_265)"/>
<path d="M4.47007 7.48999C4.47007 7.48999 8.96007 6.95999 8.14007 9.87999C8.14007 9.87999 7.85007 10.3 7.17007 9.87999C7.17007 9.87999 7.06007 8.58999 5.35007 8.96999C5.35007 8.96999 4.29007 8.58999 4.48007 7.48999H4.47007Z" fill="url(#paint2_linear_896_265)"/>
<path d="M2.9499 7.53006C3.1199 7.11006 8.4499 7.01006 8.4499 7.01006C8.9699 6.77006 10.1499 11.9501 10.1499 11.9501C10.1499 11.9501 14.8899 9.24006 20.3099 10.5601C20.3099 10.5601 20.0499 9.97006 18.6099 9.40006C18.3799 9.30006 17.8899 7.99006 17.8899 7.99006L18.1599 7.79006L17.7699 7.60006L18.2399 7.32006L17.8099 7.09006C17.8099 7.09006 18.5299 6.84006 18.4899 6.84006C18.4499 6.84006 17.1799 6.09006 17.1799 6.09006L17.6099 5.94006L17.0999 5.69006L17.9999 5.61006L16.8199 4.74006L17.2499 4.42006L16.6199 4.23006L17.0699 4.00006L16.6199 3.89006L17.0699 3.58006L16.2399 3.33006L16.6199 3.17006L16.3099 3.13006C14.7899 0.440059 10.1199 0.0400585 9.6899 0.150059C8.6199 0.330059 3.7399 4.60006 2.4799 5.87006C1.2199 7.14006 2.9499 7.52006 2.9499 7.52006V7.53006Z" fill="url(#paint3_radial_896_265)"/>
<path d="M19.0799 8.76007C19.0799 8.76007 16.3499 9.41007 16.3899 10.2601L12.8999 10.8401C12.8999 10.8401 5.35993 14.4601 5.03993 13.2001C3.46993 6.27007 15.2899 6.14007 19.0799 8.76007Z" fill="url(#paint4_linear_896_265)"/>
<path d="M16.35 7.93002C16.35 7.93002 14.85 8.38002 14.89 9.24002L12.92 9.45002C12.92 9.45002 10.16 11.61 10.16 11.95L11.74 12.33C11.74 12.33 9.31004 12.54 9.29004 12.58C9.27004 12.62 8.00004 15.2 6.42004 15.73C5.19004 15.89 2.52004 12.34 2.20004 11.08C0.630043 4.15002 12.01 6.60002 16.35 7.93002Z" fill="url(#paint5_linear_896_265)"/>
<path d="M17.1699 6.67012C17.1699 6.67012 16.4799 6.56012 16.3599 6.88012L15.5099 6.60012C15.5099 6.60012 14.0199 6.88012 13.9699 7.00012L14.5699 7.42012C14.5699 7.42012 13.5199 7.06012 13.5099 7.07012C13.4999 7.08012 12.5599 7.78012 11.8199 7.69012C11.0799 7.60012 11.2399 6.81012 11.2399 6.81012C11.2399 6.81012 13.7699 6.12012 13.9199 5.82012C14.2499 5.62012 15.5799 5.41012 17.1799 6.67012H17.1699Z" fill="url(#paint6_linear_896_265)"/>
<path d="M17.27 7.4001C17.27 7.4001 16.58 7.2901 16.46 7.6101L15.61 7.3301C15.61 7.3301 14.12 7.6101 14.07 7.7301L14.67 8.1501C14.67 8.1501 13.62 7.7901 13.61 7.8001C13.6 7.8101 12.66 8.5101 11.92 8.4201C11.18 8.3301 11.34 7.5401 11.34 7.5401C11.34 7.5401 13.87 6.8501 14.02 6.5501C14.35 6.3501 15.68 6.1401 17.28 7.4001H17.27Z" fill="url(#paint7_linear_896_265)"/>
<path d="M16.7601 5.07999C16.7601 5.07999 16.0601 5.15999 16.0301 5.49999L15.1301 5.45999C15.1301 5.45999 13.7701 6.12999 13.7601 6.26999L14.4501 6.50999C14.4501 6.50999 13.3401 6.44999 13.3401 6.45999C13.3401 6.46999 12.6201 7.39999 11.8901 7.50999C11.1601 7.61999 11.0901 6.81999 11.0901 6.81999C11.0901 6.81999 13.3401 5.46999 13.4001 5.13999C13.6701 4.85999 14.8801 4.28999 16.7601 5.06999V5.07999Z" fill="url(#paint8_linear_896_265)"/>
<path d="M17.52 5.9001C17.52 5.9001 16.83 5.7901 16.71 6.1101L15.86 5.8301C15.86 5.8301 14.37 6.1101 14.32 6.2301L14.92 6.6501C14.92 6.6501 13.87 6.2901 13.86 6.3001C13.85 6.3101 12.91 7.0101 12.17 6.9201C11.43 6.8301 11.59 6.0401 11.59 6.0401C11.59 6.0401 14.12 5.3501 14.27 5.0501C14.6 4.8501 15.93 4.6401 17.53 5.9001H17.52Z" fill="url(#paint9_linear_896_265)"/>
<path d="M17.05 5.16011C17.05 5.16011 16.3601 5.05011 16.2401 5.37011L15.3901 5.09011C15.3901 5.09011 13.9001 5.37011 13.8501 5.49011L14.4501 5.91011C14.4501 5.91011 13.4001 5.55011 13.3901 5.56011C13.3801 5.57011 12.4401 6.27011 11.7001 6.18011C10.9601 6.09011 11.1201 5.30011 11.1201 5.30011C11.1201 5.30011 13.6501 4.61011 13.8001 4.31011C14.1301 4.11011 15.46 3.90011 17.0601 5.16011H17.05Z" fill="url(#paint10_linear_896_265)"/>
<path d="M17.29 4.35005C17.29 4.35005 16.6 4.24005 16.48 4.56005L15.63 4.28005C15.63 4.28005 14.14 4.56005 14.09 4.68005L14.69 5.10005C14.69 5.10005 13.64 4.74005 13.63 4.75005C13.62 4.76005 12.68 5.46005 11.94 5.37005C11.2 5.28005 11.36 4.49005 11.36 4.49005C11.36 4.49005 13.89 3.80005 14.04 3.50005C14.37 3.30005 15.7 3.09005 17.3 4.35005H17.29Z" fill="url(#paint11_linear_896_265)"/>
<path d="M17.04 3.93989C17.04 3.93989 16.35 3.82989 16.23 4.14989L15.38 3.86989C15.38 3.86989 13.89 4.14989 13.84 4.26989L14.44 4.68989C14.44 4.68989 13.39 4.32989 13.38 4.33989C13.37 4.34989 12.43 5.04989 11.69 4.95989C10.95 4.86989 11.11 4.07989 11.11 4.07989C11.11 4.07989 13.64 3.38989 13.79 3.08989C14.12 2.88989 15.45 2.67989 17.05 3.93989H17.04Z" fill="url(#paint12_linear_896_265)"/>
<path d="M3.57996 7.2301C3.25996 7.1601 3.14996 6.7701 3.44996 6.6301C5.14996 5.8201 9.29996 4.5701 10.18 4.3901C10.18 4.3901 13.93 3.5201 11.98 8.0801C11.96 8.3201 10.02 8.67009 3.57996 7.24009V7.2301Z" fill="url(#paint13_radial_896_265)"/>
<path d="M5.09988 14.6901C5.09988 14.6901 4.31988 14.6401 4.67988 13.6001C4.67988 13.6001 6.18988 13.8301 5.09988 14.6901Z" fill="url(#paint14_linear_896_265)"/>
<path d="M6.62012 11.78C6.62012 11.78 7.38012 10.72 7.89012 12.06C7.89012 12.06 7.84012 12.79 7.26012 13C7.26012 13 6.57012 13.05 6.63012 11.79L6.62012 11.78Z" fill="url(#paint15_linear_896_265)"/>
<path d="M14.1001 28.81C14.1001 28.81 14.4001 33.7 13.5601 35.12C13.5601 35.12 12.7301 37.59 13.1201 38.08L12.6001 40.08L13.3801 39.78L13.1201 40.21L13.7201 39.78V40.21L14.1501 39.78L14.4801 40.5L14.7101 39.78L15.2801 40.27V39.78L15.6901 40.05L16.1601 39.78V40.11L16.3801 39.78L17.0101 40.11L17.1701 39.49L17.9001 39.93L18.1401 39.28L19.0501 39.68V38.63L19.7701 39.12L20.2501 38.06L20.7601 39.04L21.0801 38.29L21.5801 38.86L21.5001 36.54L22.1301 37.03C22.1301 37.03 22.2301 30.88 22.1301 30.55C22.0301 30.22 20.2001 26.54 20.2001 26.54C20.2001 26.54 15.6201 17.51 14.1101 28.79L14.1001 28.81Z" fill="url(#paint16_linear_896_265)"/>
<path d="M16.81 24.18L17.17 25.6L15.58 25.51L16.08 26.59C16.08 26.59 14.62 26.59 14.67 26.73C14.72 26.87 16.31 27.36 16.31 27.36L15.9 27.71C15.9 27.71 14.07 31.88 14.14 33.55C14.14 33.55 13.54 39.15 12.08 40.51L11.18 39.86L10.81 40.22V39.5L10.05 39.79V39.22L8.65996 39.72V39L8.04996 39.65L7.52996 38.21L6.85996 38.93V37.92L5.80996 38.49L5.18996 37.48L4.51996 38.27L4.45996 37.41C4.45996 37.41 5.36996 30.16 7.51996 28.94C7.51996 28.94 13.08 19.71 16.8 24.17L16.81 24.18Z" fill="url(#paint17_linear_896_265)"/>
<path d="M25.7899 18.67V20.02H25.2299L24.4699 19.46L22.8999 21.6L22.3399 20.88L22.0899 22.72L21.4799 22.06L21.2799 22.72L21.0299 22.38L20.7299 23.02L20.3799 22.38L19.9199 23.83L19.2699 23.17L18.6599 24.59L18.3599 24.08L17.9599 25.24L17.4499 24.63C17.4499 24.63 16.8699 25.09 16.6799 25.89L16.2799 25.08L15.9799 26.85L15.4699 26.19L15.0699 28.62C15.0699 28.62 13.7599 25.84 12.5399 27.71L12.0299 26.7L11.4399 27.66V27.1H10.1899C10.1899 27.1 13.8199 22.09 16.3599 21.05C16.3599 21.05 17.6799 18.35 19.9099 17.44C19.9099 17.44 24.5699 14.62 25.7799 18.65L25.7899 18.67Z" fill="url(#paint18_linear_896_265)"/>
<path d="M8.87003 20C8.87003 20 3.69003 25.7 3.75003 32.17L4.90003 30.31V31.4L5.29003 30.82L5.68003 31.72L6.02003 30.95L6.44003 32.17L6.92003 30.25L7.61003 31.21V30.38L8.30003 31.66L8.61003 30L9.68003 31.22V29.88L10.95 31.29L11.37 29.63L11.75 29.89V28.16L12.68 28.93V27.27L13.86 28.68V27.02L14.88 28.68V26.18L15.82 27.73C15.82 27.73 16.03 26.64 16.09 26.47C16.15 26.3 20.28 28.19 20.28 28.19C20.28 28.19 17 15.01 8.85003 20.03L8.87003 20Z" fill="url(#paint19_linear_896_265)"/>
<path d="M9.4401 17C9.4401 17 4.2601 22.7 4.3201 29.17L5.4701 27.31V28.4L5.8601 27.82L6.2501 28.72L6.5901 27.95L7.0101 29.17L7.4901 27.25L8.1801 28.21V27.38L8.8701 28.66L9.1801 27L10.2501 28.22V26.88L11.5201 28.29L11.9401 26.63L12.3201 26.89V25.16L13.2501 25.93V24.27L14.4301 25.68V24.02L15.4501 25.68V23.18L16.3901 24.73C16.3901 24.73 16.6001 23.64 16.6601 23.47C16.7201 23.3 20.8501 25.19 20.8501 25.19C20.8501 25.19 17.5701 12.01 9.4201 17.03L9.4401 17Z" fill="url(#paint20_linear_896_265)"/>
<path d="M1.7501 12.3401C1.4601 13.4901 2.3301 15.7701 2.3301 15.7701C2.3301 15.7701 3.3301 19.4001 3.8101 16.1401C3.8101 16.1401 3.2101 14.6601 2.6401 14.2101C2.6401 14.2101 1.8801 12.0801 1.7501 12.3501V12.3401Z" fill="url(#paint21_linear_896_265)"/>
<path d="M23.5701 14.6401C23.5701 14.6401 23.3801 15.5301 25.4501 16.3501L23.7501 16.1001L25.1701 16.8601L24.1101 16.7001L25.0401 17.3801L24.0301 17.2401L24.6801 17.7701L22.8901 17.0701L22.2301 18.1101L20.2201 17.9301L19.5501 18.8001L19.4501 18.2101L19.1201 18.7401L18.5201 18.6501L18.4501 19.1001L17.6701 18.4701L15.1801 19.3801L16.6501 18.0601L16.2401 19.0701L15.9601 18.6201L15.1801 19.3701L14.8901 19.0401L14.0901 20.3301L13.7901 19.9701L13.2501 21.3501L13.0101 20.8901L12.1101 22.6501L11.5601 21.9001L10.7101 24.3801C10.7101 24.3801 9.88006 21.6501 9.82006 21.3401C9.76006 21.0301 10.1301 21.1301 10.1301 21.1301L10.2901 20.0301L10.8701 20.5201C10.8701 20.5201 13.6601 17.1001 14.4401 17.1601C15.2201 17.2201 15.2001 15.0501 17.5001 16.2201C17.5001 16.2201 21.3901 13.6401 23.5301 14.6201L23.5701 14.6401Z" fill="url(#paint22_radial_896_265)"/>
<path d="M22.61 12.27C22.61 12.27 22.55 13.18 24.72 13.68H23L24.52 14.22H23.45L24.47 14.76H23.45L24.17 15.2L20.19 14.86L19.68 15.99L17.67 16.11L17.14 17.07L16.96 16.5L16.71 17.07H16.1V17.53L15.24 17.02L14.77 18.28L14.18 16.76L13.92 17.82L13.57 17.42L12.91 18.28L12.58 18L11.98 19.39L11.63 19.07L11.3 20.51L10.99 20.09L10.35 21.96L9.69996 21.3L9.21996 23.88C9.21996 23.88 5.54996 22.44 5.44996 22.14C5.34996 21.84 6.15996 18.8 6.15996 18.8V17.69L6.80996 18.09C6.80996 18.09 11.09 16.24 11.87 16.19C12.65 16.14 12.32 13.99 14.76 14.81C14.76 14.81 20.34 11.6 22.61 12.25V12.27Z" fill="url(#paint23_radial_896_265)"/>
<path d="M17.3001 10.8C17.3001 10.8 17.2401 11.71 19.4101 12.21H17.6901L19.2101 12.75H18.1401L19.1601 13.29H18.1401L19.2201 13.95L17.3501 13.52L16.4901 14.42L14.4801 14.54L13.9501 15.5L13.7701 14.93L13.5201 15.5H12.9101L12.9601 16.63L12.1001 16.12L11.6301 17.38L10.8801 15.86L10.6201 16.92L10.2701 16.52L9.61005 17.38L9.28005 17.1L8.68006 18.49L8.44005 17.51L8.11005 18.95L7.80006 18.53L7.16005 20.4L6.51006 19.74L6.03006 22.32C4.08006 22.41 3.46005 15.81 3.36005 15.5C3.26005 15.19 4.34006 14.34 4.34006 14.34C6.55006 16.49 5.96005 16.04 8.67005 14.63C10.0101 13.91 9.12006 12.43 11.5601 13.25C11.5601 13.25 15.0301 10.13 17.2901 10.78L17.3001 10.8Z" fill="url(#paint24_radial_896_265)"/>
<path d="M17.4901 15.3901L18.8501 16.3501H17.7401L18.8501 17.2301L17.9501 17.5601L18.1701 18.0201H17.4901V18.3101H16.5801L16.0701 19.7501L15.0701 18.0201L14.3101 19.0301L14.1101 18.6801L13.5001 18.9801L12.9401 18.3101L12.5901 18.9801L12.2401 18.3101H11.5801L11.7601 17.5601C11.7601 17.5601 11.9901 12.3201 17.5001 15.3901H17.4901Z" fill="url(#paint25_linear_896_265)"/>
<path d="M2.75005 18.9299C2.75005 18.9299 6.28005 23.2699 5.10005 28.2199C5.10005 28.2199 8.73005 31.7099 5.97005 34.4899C5.97005 34.4899 4.48005 35.6399 4.45005 37.5399C4.45005 37.5399 3.61005 37.9799 3.41005 38.7599C3.21005 39.5399 2.23005 34.2299 3.32005 32.7699C3.32005 32.7699 -0.119946 21.8999 2.75005 18.9299Z" fill="url(#paint26_linear_896_265)"/>
<path d="M1.73994 22.8699V22.4899L2.19994 22.6799V21.8799L2.53994 22.1499V21.2799H2.95994L3.32994 18.3999C3.32994 18.3999 2.64994 18.5199 2.00994 20.0699C1.36994 21.6199 1.73994 22.8799 1.73994 22.8799V22.8699Z" fill="url(#paint27_linear_896_265)"/>
<path d="M3.64005 32.5101L2.48005 34.1801L2.32005 32.4501L1.85005 33.2301V32.0501L1.30005 31.7901L1.32005 22.5701L3.64005 32.5101Z" fill="url(#paint28_linear_896_265)"/>
<path d="M26.1701 21.1401L26.9801 27.3101H26.7301L26.6301 28.0701H26.1201L26.2401 28.9301L25.7901 28.7301L25.2601 31.0001H24.6501V32.2101L24.1901 31.5201L23.8901 33.2401V36.0201L23.4301 35.8201V37.9501L22.9401 37.7201C22.9401 37.7201 22.9801 39.2201 22.6201 39.5201L22.2601 37.6001L22.0401 38.0801L21.7601 37.7401L21.3901 38.7601C21.3901 38.7601 21.2801 19.6501 26.1601 21.1501L26.1701 21.1401Z" fill="url(#paint29_linear_896_265)"/>
<path d="M0.399979 5.7201C0.399979 5.7201 1.40998 4.3001 2.46998 4.6801C3.52998 5.0601 3.62998 6.7501 3.37998 7.5901C3.12998 8.4301 2.03998 9.7601 2.18998 10.1901C2.33998 10.6201 2.61998 11.9901 3.07998 12.1901C3.07998 12.1901 0.799979 12.7501 0.219979 10.4501C-0.360021 8.1501 0.369979 7.4401 0.349979 7.3901C0.329979 7.3401 -0.360021 6.9901 0.399979 5.7201Z" fill="url(#paint30_linear_896_265)"/>
<path d="M0.4599 7.46004C0.4599 7.46004 1.8399 8.73004 3.5499 7.04004C3.5499 7.04004 3.4999 3.04004 0.7099 5.28004C0.7099 5.28004 -0.6101 6.77004 0.4599 7.46004Z" fill="url(#paint31_radial_896_265)"/>
<path d="M1.47998 5.77003C1.47998 5.77003 1.62998 5.31003 2.00998 5.28003Z" fill="url(#paint32_linear_896_265)"/>
<path d="M1.47998 5.77003C1.47998 5.77003 1.62998 5.31003 2.00998 5.28003" stroke="url(#paint33_linear_896_265)" stroke-width="0.3" stroke-miterlimit="10" stroke-linecap="round"/>
<path d="M5.18992 4.53011C5.18992 4.53011 6.04992 2.22011 8.14992 3.94011C8.14992 3.94011 7.58992 5.96011 5.46992 5.43011C5.46992 5.43011 4.89992 5.05011 5.18992 4.53011Z" fill="url(#paint34_radial_896_265)"/>
<path d="M5.84989 4.67018C5.64989 3.77018 6.92989 3.11018 7.41989 4.24018C7.56989 4.77018 6.38989 5.81018 5.84989 4.67018Z" fill="url(#paint35_radial_896_265)"/>
<path d="M4.44996 37.55C4.44996 37.55 1.33996 40.03 3.86996 43.22H4.80996C4.80996 43.22 2.78996 40.82 4.67996 39.02C4.80996 38.97 6.06996 40.21 6.06996 40.21C6.06996 40.21 6.68996 40.54 6.89996 39.38C6.86996 39.52 6.26996 38.85 6.26996 38.85C6.26996 38.85 6.34996 36.38 4.44996 37.55Z" fill="#BFA0A0"/>
<path d="M19.35 38.8401C19.35 38.8401 18.43 44.0301 20.25 42.7801C20.77 41.9501 20.38 41.5901 20.38 41.5901C20.38 41.5901 19.73 41.9201 19.82 41.6301C19.91 41.3401 20.59 39.6401 20.69 39.6701C20.79 39.7001 21.49 42.8201 21.17 43.2501C21.25 43.2501 21.5 45.3201 20.93 45.4801C20.93 45.4801 21.83 45.7101 22.47 43.2901C22.47 43.2901 22.31 38.6301 21.59 38.6301C21.59 38.6301 20.7 37.7901 19.35 38.8401Z" fill="#DDBFC0"/>
</g>
<defs>
<linearGradient id="paint0_linear_896_265" x1="3.6299" y1="0.660086" x2="19.2099" y2="39.8801" gradientUnits="userSpaceOnUse">
<stop stop-color="#E4F1F8"/>
<stop offset="0.35" stop-color="#DBE3F2"/>
<stop offset="0.5" stop-color="#54BFDC"/>
</linearGradient>
<radialGradient id="paint1_radial_896_265" cx="0" cy="0" r="1" gradientUnits="userSpaceOnUse" gradientTransform="translate(14.8999 23.38) scale(20.63 20.63)">
<stop offset="0.1" stop-color="#CEDCF1"/>
<stop offset="0.16" stop-color="#B2CCEA"/>
<stop offset="0.26" stop-color="#8DB9E0"/>
<stop offset="0.36" stop-color="#6FA8D9"/>
<stop offset="0.47" stop-color="#589CD3"/>
<stop offset="0.59" stop-color="#4793CF"/>
<stop offset="0.71" stop-color="#3E8DCC"/>
<stop offset="0.88" stop-color="#3B8CCC"/>
</radialGradient>
<linearGradient id="paint2_linear_896_265" x1="5.03007" y1="7.69999" x2="8.36007" y2="9.50999" gradientUnits="userSpaceOnUse">
<stop stop-color="#807CBA"/>
<stop offset="0.44" stop-color="#3B459A"/>
</linearGradient>
<radialGradient id="paint3_radial_896_265" cx="0" cy="0" r="1" gradientUnits="userSpaceOnUse" gradientTransform="translate(4.27454 10.4566) rotate(-15.91) scale(19.31 16.2204)">
<stop offset="0.44" stop-color="#E6EAF4"/>
<stop offset="0.79" stop-color="#8E9FD1"/>
</radialGradient>
<linearGradient id="paint4_linear_896_265" x1="7.49993" y1="10.2301" x2="25.4599" y2="11.1801" gradientUnits="userSpaceOnUse">
<stop offset="0.03" stop-color="#FBFCFC"/>
<stop offset="0.36" stop-color="#82B7E2"/>
<stop offset="0.47" stop-color="#8094CB"/>
</linearGradient>
<linearGradient id="paint5_linear_896_265" x1="4.54004" y1="10.93" x2="22.73" y2="11.89" gradientUnits="userSpaceOnUse">
<stop offset="0.03" stop-color="#FBFCFC"/>
<stop offset="0.36" stop-color="#82B7E2"/>
<stop offset="0.46" stop-color="#8B9FD1"/>
</linearGradient>
<linearGradient id="paint6_linear_896_265" x1="13.1383" y1="1.37673" x2="17.417" y2="7.56119" gradientUnits="userSpaceOnUse">
<stop stop-color="#FBFCFC"/>
<stop offset="0.46" stop-color="#8B9FD1"/>
</linearGradient>
<linearGradient id="paint7_linear_896_265" x1="13.2381" y1="2.10915" x2="17.5168" y2="8.29361" gradientUnits="userSpaceOnUse">
<stop stop-color="#FBFCFC"/>
<stop offset="0.46" stop-color="#8B9FD1"/>
</linearGradient>
<linearGradient id="paint8_linear_896_265" x1="10.8808" y1="2.95288" x2="16.6851" y2="7.73461" gradientUnits="userSpaceOnUse">
<stop stop-color="#FBFCFC"/>
<stop offset="0.46" stop-color="#8B9FD1"/>
</linearGradient>
<linearGradient id="paint9_linear_896_265" x1="13.498" y1="0.602703" x2="17.7788" y2="6.77997" gradientUnits="userSpaceOnUse">
<stop stop-color="#FBFCFC"/>
<stop offset="0.46" stop-color="#8B9FD1"/>
</linearGradient>
<linearGradient id="paint10_linear_896_265" x1="13.0257" y1="-0.145231" x2="17.3044" y2="6.03923" gradientUnits="userSpaceOnUse">
<stop stop-color="#FBFCFC"/>
<stop offset="0.46" stop-color="#8B9FD1"/>
</linearGradient>
<linearGradient id="paint11_linear_896_265" x1="13.2683" y1="-0.952913" x2="17.5471" y2="5.23154" gradientUnits="userSpaceOnUse">
<stop stop-color="#FBFCFC"/>
<stop offset="0.46" stop-color="#8B9FD1"/>
</linearGradient>
<linearGradient id="paint12_linear_896_265" x1="13.0235" y1="-1.36955" x2="17.3023" y2="4.81491" gradientUnits="userSpaceOnUse">
<stop stop-color="#FBFCFC"/>
<stop offset="0.46" stop-color="#8B9FD1"/>
</linearGradient>
<radialGradient id="paint13_radial_896_265" cx="0" cy="0" r="1" gradientUnits="userSpaceOnUse" gradientTransform="translate(6.1374 6.08579) rotate(10.16) scale(11.3526 4.77)">
<stop offset="0.58" stop-color="#CFDAEF"/>
<stop offset="0.81" stop-color="#2051A3"/>
</radialGradient>
<linearGradient id="paint14_linear_896_265" x1="4.57988" y1="14.1501" x2="5.48988" y2="14.1501" gradientUnits="userSpaceOnUse">
<stop stop-color="#807CBA"/>
<stop offset="0.2" stop-color="#3B459A"/>
</linearGradient>
<linearGradient id="paint15_linear_896_265" x1="6.62012" y1="12.19" x2="7.89012" y2="12.19" gradientUnits="userSpaceOnUse">
<stop stop-color="#807CBA"/>
<stop offset="0.18" stop-color="#3B459A"/>
</linearGradient>
<linearGradient id="paint16_linear_896_265" x1="12.6001" y1="31.83" x2="22.1701" y2="31.83" gradientUnits="userSpaceOnUse">
<stop stop-color="#359ACB"/>
<stop offset="0.29" stop-color="#6FA0D6"/>
</linearGradient>
<linearGradient id="paint17_linear_896_265" x1="4.94996" y1="30.09" x2="16.31" y2="32.3" gradientUnits="userSpaceOnUse">
<stop offset="0.71" stop-color="#6FA0D6"/>
<stop offset="1" stop-color="#359ACB"/>
</linearGradient>
<linearGradient id="paint18_linear_896_265" x1="15.4399" y1="20.74" x2="22.2099" y2="25.13" gradientUnits="userSpaceOnUse">
<stop offset="0.56" stop-color="#6FA1D6"/>
<stop offset="0.71" stop-color="#77AADB"/>
<stop offset="0.96" stop-color="#8FC3EA"/>
<stop offset="0.97" stop-color="#91C5EB"/>
</linearGradient>
<linearGradient id="paint19_linear_896_265" x1="10.32" y1="17.36" x2="11.75" y2="28.07" gradientUnits="userSpaceOnUse">
<stop offset="0.02" stop-color="#CEDCF1"/>
<stop offset="0.05" stop-color="#BBD0EB"/>
<stop offset="0.14" stop-color="#91B6DF"/>
<stop offset="0.21" stop-color="#78A6D8"/>
<stop offset="0.26" stop-color="#6FA1D6"/>
</linearGradient>
<linearGradient id="paint20_linear_896_265" x1="11.2501" y1="17.1" x2="12.7701" y2="28.47" gradientUnits="userSpaceOnUse">
<stop offset="0.02" stop-color="#CEDCF1"/>
<stop offset="0.14" stop-color="#BBD0EB"/>
<stop offset="0.45" stop-color="#91B6DF"/>
<stop offset="0.7" stop-color="#78A6D8"/>
<stop offset="0.85" stop-color="#6FA1D6"/>
</linearGradient>
<linearGradient id="paint21_linear_896_265" x1="2.6401" y1="14.5501" x2="3.9901" y2="19.0701" gradientUnits="userSpaceOnUse">
<stop offset="0.03" stop-color="#F6F6F7"/>
<stop offset="0.11" stop-color="#D7E4F0"/>
<stop offset="0.26" stop-color="#A9CAE5"/>
<stop offset="0.4" stop-color="#82B4DC"/>
<stop offset="0.54" stop-color="#64A3D5"/>
<stop offset="0.68" stop-color="#4F97D0"/>
<stop offset="0.82" stop-color="#4290CD"/>
<stop offset="0.94" stop-color="#3E8ECD"/>
</linearGradient>
<radialGradient id="paint22_radial_896_265" cx="0" cy="0" r="1" gradientUnits="userSpaceOnUse" gradientTransform="translate(15.9949 17.5336) rotate(-13.25) scale(11.37 6.822)">
<stop offset="0.1" stop-color="#CEDCF1"/>
<stop offset="0.18" stop-color="#BBD0EB"/>
<stop offset="0.39" stop-color="#91B6DF"/>
<stop offset="0.56" stop-color="#78A6D8"/>
<stop offset="0.65" stop-color="#6FA1D6"/>
</radialGradient>
<radialGradient id="paint23_radial_896_265" cx="0" cy="0" r="1" gradientUnits="userSpaceOnUse" gradientTransform="translate(12.6963 16.2788) rotate(-21.63) scale(13.6 8.16)">
<stop offset="0.1" stop-color="#CEDCF1"/>
<stop offset="0.18" stop-color="#BBD0EB"/>
<stop offset="0.39" stop-color="#91B6DF"/>
<stop offset="0.56" stop-color="#78A6D8"/>
<stop offset="0.65" stop-color="#6FA1D6"/>
</radialGradient>
<radialGradient id="paint24_radial_896_265" cx="0" cy="0" r="1" gradientUnits="userSpaceOnUse" gradientTransform="translate(12.5841 18.717) rotate(-28.05) scale(16.7 10.02)">
<stop stop-color="#86A6D6"/>
<stop offset="0.3" stop-color="#84A5D6"/>
<stop offset="0.41" stop-color="#7DA4D6"/>
<stop offset="0.49" stop-color="#71A1D6"/>
<stop offset="0.5" stop-color="#6FA1D6"/>
<stop offset="0.62" stop-color="#78A8D9"/>
<stop offset="0.81" stop-color="#91BAE2"/>
<stop offset="0.97" stop-color="#ADCFED"/>
</radialGradient>
<linearGradient id="paint25_linear_896_265" x1="10.6101" y1="16.2101" x2="17.8701" y2="17.5301" gradientUnits="userSpaceOnUse">
<stop offset="0.1" stop-color="#CEDCF1"/>
<stop offset="0.18" stop-color="#BBD0EB"/>
<stop offset="0.39" stop-color="#91B6DF"/>
<stop offset="0.56" stop-color="#78A6D8"/>
<stop offset="0.65" stop-color="#6FA1D6"/>
</linearGradient>
<linearGradient id="paint26_linear_896_265" x1="-0.459945" y1="30.4699" x2="6.84005" y2="27.1799" gradientUnits="userSpaceOnUse">
<stop offset="0.02" stop-color="#B1CFE3"/>
<stop offset="0.26" stop-color="#97BDDE"/>
<stop offset="0.57" stop-color="#7EABD9"/>
<stop offset="0.75" stop-color="#75A5D8"/>
</linearGradient>
<linearGradient id="paint27_linear_896_265" x1="0.969936" y1="21.6799" x2="4.12994" y2="19.6399" gradientUnits="userSpaceOnUse">
<stop offset="0.14" stop-color="#62A4CC"/>
<stop offset="0.65" stop-color="#76B6DF"/>
<stop offset="0.97" stop-color="#C2DCEF"/>
</linearGradient>
<linearGradient id="paint28_linear_896_265" x1="-0.449951" y1="29.3401" x2="3.21005" y2="27.8401" gradientUnits="userSpaceOnUse">
<stop stop-color="#FBFCFC"/>
<stop offset="0.38" stop-color="#70A2D6"/>
</linearGradient>
<linearGradient id="paint29_linear_896_265" x1="21.4001" y1="30.2801" x2="26.9801" y2="30.2801" gradientUnits="userSpaceOnUse">
<stop stop-color="#1E8ACC"/>
<stop offset="0.44" stop-color="#6F9FD5"/>
</linearGradient>
<linearGradient id="paint30_linear_896_265" x1="-0.470021" y1="9.7801" x2="2.69998" y2="8.2801" gradientUnits="userSpaceOnUse">
<stop stop-color="white"/>
<stop offset="0.32" stop-color="#D59D3A"/>
</linearGradient>
<radialGradient id="paint31_radial_896_265" cx="0" cy="0" r="1" gradientUnits="userSpaceOnUse" gradientTransform="translate(1.52421 5.78969) rotate(152.79) scale(5.78 4.8552)">
<stop stop-color="#E2EAF0"/>
<stop offset="0.2" stop-color="#206CB5"/>
<stop offset="0.36" stop-color="#1077B0"/>
</radialGradient>
<linearGradient id="paint32_linear_896_265" x1="1.47998" y1="5.52003" x2="2.00998" y2="5.52003" gradientUnits="userSpaceOnUse">
<stop stop-color="#807CBA"/>
<stop offset="0.44" stop-color="#3B459A"/>
</linearGradient>
<linearGradient id="paint33_linear_896_265" x1="1.32998" y1="5.52003" x2="2.15998" y2="5.52003" gradientUnits="userSpaceOnUse">
<stop stop-color="#807CBA"/>
<stop offset="0.44" stop-color="#3B459A"/>
</linearGradient>
<radialGradient id="paint34_radial_896_265" cx="0" cy="0" r="1" gradientUnits="userSpaceOnUse" gradientTransform="translate(6.42992 4.27011) scale(1.58)">
<stop stop-color="#E2EAF0"/>
<stop offset="0.77" stop-color="#84ABC2"/>
</radialGradient>
<radialGradient id="paint35_radial_896_265" cx="0" cy="0" r="1" gradientUnits="userSpaceOnUse" gradientTransform="translate(6.26989 4.07018) scale(0.79)">
<stop stop-color="#E2EAF0"/>
<stop offset="0.27" stop-color="#231815"/>
</radialGradient>
<clipPath id="clip0_896_265">
<rect width="26.98" height="45.49" fill="white"/>
</clipPath>
</defs>
</svg>
