<svg width="75" height="101" viewBox="0 0 75 101" fill="none" xmlns="http://www.w3.org/2000/svg">
<g clip-path="url(#clip0_175_58)">
<path d="M32.3197 58.1475H10.0122C4.57682 58.1475 0.170593 62.5448 0.170593 67.9691V90.2316C0.170593 95.6559 4.57682 100.053 10.0122 100.053H32.3197C37.7551 100.053 42.1613 95.6559 42.1613 90.2316V67.9691C42.1613 62.5448 37.7551 58.1475 32.3197 58.1475Z" fill="#242938"/>
<mask id="mask0_175_58" style="mask-type:luminance" maskUnits="userSpaceOnUse" x="10" y="62" width="23" height="34">
<path d="M10.1762 62.7305H32.0508V95.4694H10.1762V62.7305Z" fill="white"/>
</mask>
<g mask="url(#mask0_175_58)">
<path d="M15.6462 95.4697C18.6643 95.4697 21.1137 93.0252 21.1137 90.0132V84.5566H15.6462C12.6282 84.5566 10.1786 87.0013 10.1786 90.0132C10.1786 93.0252 12.6282 95.4697 15.6462 95.4697Z" fill="#0ACF83"/>
<path d="M10.1786 79.1C10.1786 76.088 12.6282 73.6436 15.6462 73.6436H21.1137V84.5564H15.6462C12.6282 84.5564 10.1786 82.112 10.1786 79.1Z" fill="#A259FF"/>
<path d="M10.1786 68.1869C10.1786 65.1749 12.6281 62.7305 15.6462 62.7305H21.1137V73.6435H15.6462C12.6281 73.6435 10.1786 71.1989 10.1786 68.1869Z" fill="#F24E1E"/>
<path d="M21.1135 62.7305H26.581C29.599 62.7305 32.0486 65.1749 32.0486 68.1869C32.0486 71.1989 29.599 73.6435 26.581 73.6435H21.1135V62.7305Z" fill="#FF7262"/>
<path d="M32.0486 79.1C32.0486 82.112 29.599 84.5564 26.581 84.5564C23.5629 84.5564 21.1135 82.112 21.1135 79.1C21.1135 76.088 23.5629 73.6436 26.581 73.6436C29.599 73.6436 32.0486 76.088 32.0486 79.1Z" fill="#1ABCFE"/>
</g>
</g>
<g clip-path="url(#clip1_175_58)">
<path d="M32.3197 0.124023H10.0122C4.57682 0.124023 0.170593 4.52134 0.170593 9.94569V32.2081C0.170593 37.6325 4.57682 42.0298 10.0122 42.0298H32.3197C37.7551 42.0298 42.1613 37.6325 42.1613 32.2081V9.94569C42.1613 4.52134 37.7551 0.124023 32.3197 0.124023Z" fill="#330000"/>
<path d="M20.4661 25.0601H13.9575L12.6277 29.1634C12.5928 29.3206 12.4529 29.4254 12.2954 29.4078H9.00604C8.81363 29.4078 8.76114 29.3031 8.81363 29.0935L14.4474 12.9074C14.4999 12.7329 14.5524 12.5408 14.6223 12.3312C14.6923 11.9645 14.7273 11.5805 14.7273 11.1963C14.7099 11.1091 14.7798 11.0217 14.8673 11.0043H19.3987C19.5388 11.0043 19.6087 11.0567 19.6262 11.1439L26.0123 29.1286C26.0648 29.3206 26.0123 29.4078 25.8374 29.4078H22.1806C22.0583 29.4254 21.9357 29.3381 21.9008 29.2158L20.4661 25.0601ZM14.9723 21.5156H19.4163C19.3113 21.149 19.1714 20.7124 19.0139 20.2585C18.8565 19.787 18.699 19.2807 18.5415 18.7569C18.3665 18.2156 18.2091 17.6917 18.034 17.1504C17.8592 16.6092 17.7017 16.1027 17.5616 15.5964C17.4217 15.1076 17.2992 14.6536 17.1768 14.2345H17.1417C16.9843 14.9854 16.7919 15.7362 16.547 16.4869C16.2845 17.3251 16.0221 18.198 15.7421 19.0712C15.5161 19.8953 15.2594 20.7107 14.9723 21.5156ZM29.914 14.0598C29.3366 14.0774 28.7768 13.8503 28.3569 13.4488C27.9545 13.0122 27.7446 12.436 27.7619 11.8424C27.7446 11.2487 27.9719 10.69 28.3918 10.2883C28.8117 9.88677 29.3717 9.67725 29.9491 9.67725C30.6314 9.67725 31.1563 9.88677 31.5411 10.2883C31.9289 10.7116 32.136 11.2692 32.1185 11.8424C32.136 12.436 31.9261 13.0122 31.5062 13.4488C31.1038 13.8678 30.5089 14.0949 29.914 14.0598ZM27.9545 29.2158V15.7711C27.9545 15.5964 28.0244 15.5265 28.1819 15.5265H31.6461C31.8036 15.5265 31.8736 15.614 31.8736 15.7711V29.2158C31.8736 29.4078 31.8036 29.4953 31.6461 29.4953H28.217C28.0419 29.4953 27.9545 29.3905 27.9545 29.2158Z" fill="#FF9A00"/>
</g>
<g clip-path="url(#clip2_175_58)">
<path d="M67.6904 24.083H39.7746C32.9728 24.083 27.4588 29.597 27.4588 36.3988V64.3146C27.4588 71.1164 32.9728 76.6304 39.7746 76.6304H67.6904C74.4922 76.6304 80.0062 71.1164 80.0062 64.3146V36.3988C80.0062 29.597 74.4922 24.083 67.6904 24.083Z" fill="#001E36"/>
<path d="M37.5641 61.1323V38.6026C37.5641 38.4493 37.6297 38.3618 37.7831 38.3618C38.1552 38.3618 38.5056 38.3618 39.0091 38.3399C39.5346 38.3179 40.082 38.3179 40.6732 38.2962C41.2643 38.2742 41.8992 38.2742 42.578 38.2522C43.2566 38.2305 43.9135 38.2305 44.5703 38.2305C46.3657 38.2305 47.8545 38.4493 49.0808 38.9091C50.1799 39.2823 51.182 39.8957 52.0146 40.7045C52.7201 41.4124 53.2652 42.2636 53.613 43.2005C53.9414 44.1201 54.1165 45.0616 54.1165 46.0469C54.1165 47.9298 53.6787 49.4842 52.8028 50.7105C51.9269 51.9365 50.7009 52.8561 49.2778 53.3816C47.7888 53.929 46.1467 54.126 44.3515 54.126C43.826 54.126 43.4756 54.126 43.2566 54.1041C43.0378 54.0821 42.7311 54.0821 42.3153 54.0821V61.1103C42.337 61.2637 42.2276 61.395 42.0743 61.417H37.8268C37.6517 61.417 37.5641 61.3293 37.5641 61.1323ZM42.337 42.5874V49.944C42.6437 49.966 42.9282 49.9879 43.1909 49.9879H44.3515C45.2054 49.9879 46.0593 49.8566 46.8693 49.5938C47.57 49.3968 48.1829 48.9807 48.6647 48.4333C49.1245 47.886 49.3435 47.1416 49.3435 46.1783C49.364 45.494 49.1893 44.8181 48.8398 44.2295C48.4676 43.6603 47.9422 43.2225 47.3073 42.9815C46.4971 42.6531 45.6213 42.5217 44.7236 42.5437C44.1544 42.5437 43.6507 42.5437 43.2349 42.5656C42.7968 42.5437 42.4904 42.5656 42.337 42.5874ZM67.7788 48.6086C67.122 48.2582 66.4214 48.0174 65.6769 47.8641C64.8667 47.689 64.0568 47.5794 63.2246 47.5794C62.7868 47.5576 62.327 47.6233 61.9109 47.7327C61.6264 47.7984 61.3855 47.9517 61.2323 48.1705C61.1227 48.3458 61.057 48.5646 61.057 48.7617C61.057 48.9588 61.1447 49.1558 61.2761 49.3311C61.4731 49.5719 61.7358 49.7689 62.0205 49.9223C62.5282 50.1852 63.0468 50.4262 63.575 50.6448C64.7573 51.0389 65.8959 51.5861 66.9469 52.243C67.6694 52.7028 68.2605 53.3159 68.6764 54.0604C69.0268 54.7609 69.2019 55.5272 69.1801 56.3154C69.2019 57.3446 68.8954 58.3736 68.3262 59.2275C67.7155 60.1015 66.8634 60.7786 65.874 61.176C64.801 61.6358 63.4874 61.8768 61.9109 61.8768C60.9039 61.8768 59.9187 61.7891 58.9334 61.5921C58.1612 61.4587 57.4102 61.2231 56.7001 60.8915C56.5468 60.8039 56.4374 60.6505 56.4591 60.4755V56.6658C56.4591 56.6001 56.4811 56.5124 56.5468 56.4687C56.6125 56.425 56.6782 56.4468 56.7438 56.4907C57.5977 56.9942 58.4954 57.3446 59.4589 57.5634C60.2908 57.7824 61.1667 57.8918 62.0423 57.8918C62.8744 57.8918 63.4656 57.7824 63.8597 57.5853C64.2099 57.432 64.4509 57.0599 64.4509 56.6658C64.4509 56.3593 64.2756 56.0746 63.9254 55.7899C63.575 55.5054 62.8525 55.177 61.7796 54.7609C60.679 54.3731 59.6339 53.8432 58.6707 53.1845C57.9846 52.6955 57.4161 52.0597 57.0066 51.3234C56.6562 50.6228 56.4811 49.8566 56.5031 49.0901C56.5031 48.1488 56.7658 47.251 57.2474 46.441C57.7948 45.5651 58.605 44.8646 59.5463 44.4265C60.5755 43.9011 61.8672 43.6603 63.4217 43.6603C64.3195 43.6603 65.2391 43.726 66.1367 43.8573C66.7935 43.945 67.4284 44.1201 68.0196 44.3609C68.1072 44.3828 68.1949 44.4705 68.2386 44.5579C68.2605 44.6456 68.2823 44.7332 68.2823 44.8206V48.3896C68.2823 48.4772 68.2386 48.5646 68.1729 48.6086C67.9758 48.6523 67.8664 48.6523 67.7788 48.6086Z" fill="#31A8FF"/>
</g>
<defs>
<clipPath id="clip0_175_58">
<rect width="46.7144" height="41.9058" fill="white" transform="translate(0.170593 58.1475)"/>
</clipPath>
<clipPath id="clip1_175_58">
<rect width="41.9907" height="41.9058" fill="white" transform="translate(0.170593 0.124023)"/>
</clipPath>
<clipPath id="clip2_175_58">
<rect x="32.5114" y="29.1357" width="41.9907" height="41.9058" rx="8.08421" fill="white"/>
</clipPath>
</defs>
</svg>
