<svg width="32" height="33" viewBox="0 0 32 33" fill="none" xmlns="http://www.w3.org/2000/svg">
<g opacity="0.8">
<path d="M16.7566 22.8767C16.7566 22.8767 17.0637 27.5524 10.1928 25.5678C10.1928 25.5678 13.5941 28.0345 16.347 27.0927C16.347 27.0927 13.6055 28.6288 10.0449 27.0366C10.0449 27.0366 14.2312 31.4544 20.7836 28.8867C20.7836 28.8867 16.074 31.3759 13.9013 30.2547C13.9013 30.2547 19.0658 33.4839 21.6481 30.6471C21.6481 30.6471 20.5219 32.7326 18.6222 32.7326C18.6222 32.7326 19.5777 33.6633 24.5603 29.7837C24.5603 29.7837 23.5592 32.0711 22.3534 32.0823C22.3534 32.0823 25.7092 31.9702 25.4931 29.5595C25.2769 27.1487 29.7476 28.2476 29.7476 28.2476C29.7476 28.2476 28.6441 26.846 27.2336 27.216C25.823 27.586 26.5283 25.8593 27.8933 25.9266C29.2584 25.9938 32 26.1508 32 26.1508C32 26.1508 29.0764 23.9868 27.3814 24.6483C25.6865 25.3099 27.1881 22.6973 30.7145 22.8543C30.7145 22.8543 29.3836 21.1724 27.5862 22.0918C25.7888 23.0113 26.005 18.3805 26.9037 17.8983C26.9037 17.8983 24.2873 19.1205 24.5489 21.0154C24.5489 21.0154 23.1497 16.2276 24.3669 15.8352C24.3669 15.8352 22.251 16.6537 22.4672 19.0644C22.4672 19.0644 20.4878 12.2247 21.4547 11.7314C21.4547 11.7314 19.8507 13.9851 20.1806 16.407C20.5105 18.829 18.0989 11.2604 17.405 12.2247C16.7111 13.189 16.7566 22.8655 16.7566 22.8655V22.8767Z" fill="url(#paint0_radial_299_141)"/>
<path d="M20.7267 25.9939C20.7267 25.9939 20.7608 19.9951 18.7815 16.3173C16.8021 12.6396 15.0161 10.0382 14.709 9.13002C14.4018 8.2218 9.02115 3.42278 8.19073 1.01206C7.83808 0.978426 3.92485 -1.06228 2.58252 1.12419C1.24019 3.31066 -1.27383 6.03533 0.773792 12.8863C0.773792 12.8863 3.49258 18.2571 5.59708 20.0848C7.70157 21.9124 8.16798 23.0561 8.23623 23.6392C8.30448 24.2222 17.1434 28.0233 20.7267 25.9939Z" fill="url(#paint1_linear_299_141)"/>
<path d="M11.0801 5.01497C11.0801 5.01497 7.67883 4.49919 7.2238 5.62045C6.76877 6.74172 6.27962 9.07395 5.5402 9.0291C4.80078 8.98425 3.93623 10.3186 3.8566 11.081C3.77697 11.8435 4.42538 14.086 4.50501 14.7812C4.58464 15.4764 4.61877 17.8086 3.72009 17.8535C3.72009 17.8535 8.87327 23.0898 8.23623 23.6392C7.5992 24.1886 15.6304 26.8012 16.6997 26.5096C17.769 26.2181 16.6997 22.4619 16.0627 22.3161C15.4257 22.1703 10.7958 16.4631 10.9891 13.6375C11.1825 10.8119 12.0698 6.13623 11.0801 5.00376V5.01497Z" fill="url(#paint2_linear_299_141)"/>
<path d="M11.0801 5.01496C11.0801 5.01496 8.12246 1.5951 8.19071 1.01205C8.25897 0.428988 4.68701 -0.636214 3.16267 0.507477C1.63833 1.65117 0.193619 5.57559 0.102614 6.59595C0.0116084 7.6163 -0.0111429 11.9444 0.751027 12.819C1.5132 13.6936 2.74177 17.248 3.57219 17.6516C4.40262 18.0553 4.51637 16.1491 4.51637 16.1491C4.51637 16.1491 3.74283 12.6171 3.82246 11.3165C3.90209 10.0158 5.93833 11.9444 5.93833 11.9444C5.93833 11.9444 5.42643 7.16779 6.33648 7.35841C7.24653 7.54902 8.53198 4.38705 9.20315 4.89162C9.87431 5.39619 11.0574 5.00375 11.0574 5.00375L11.0801 5.01496Z" fill="url(#paint3_linear_299_141)"/>
<path d="M30.6463 32.116C29.9751 32.2281 2.42327 14.5457 3.97036 4.17404C3.97036 4.17404 3.70872 5.59805 3.7656 6.13626C3.82248 6.67446 3.49258 7.9527 5.61983 11.4286C7.73571 14.9045 12.7751 19.5802 12.7751 19.5802C12.7751 19.5802 19.5892 25.2987 20.6926 26.0499C21.796 26.8012 30.5894 32.7551 30.5894 32.7551L30.6577 32.116H30.6463Z" fill="url(#paint4_radial_299_141)"/>
</g>
<defs>
<radialGradient id="paint0_radial_299_141" cx="0" cy="0" r="1" gradientUnits="userSpaceOnUse" gradientTransform="translate(27.1235 29.2058) rotate(-174.263) scale(10.8281 10.676)">
<stop offset="0.04" stop-color="#CFBEAD"/>
<stop offset="0.71" stop-color="#FAF9F9"/>
</radialGradient>
<linearGradient id="paint1_linear_299_141" x1="18.746" y1="14.1292" x2="-3.6437" y2="11.8138" gradientUnits="userSpaceOnUse">
<stop offset="0.3" stop-color="white"/>
<stop offset="0.79" stop-color="#FFFEFE"/>
</linearGradient>
<linearGradient id="paint2_linear_299_141" x1="14.1811" y1="15.812" x2="1.9631" y2="14.7573" gradientUnits="userSpaceOnUse">
<stop offset="0.17" stop-color="white"/>
<stop offset="0.4" stop-color="#F8B9B6"/>
<stop offset="0.73" stop-color="#FF6C7C"/>
<stop offset="0.99" stop-color="#F96D84"/>
</linearGradient>
<linearGradient id="paint3_linear_299_141" x1="9.2846" y1="10.4173" x2="-0.778246" y2="6.68297" gradientUnits="userSpaceOnUse">
<stop offset="0.22" stop-color="#FCEE8B"/>
<stop offset="0.72" stop-color="#FFEF63"/>
<stop offset="1" stop-color="#FCFDFD"/>
</linearGradient>
<radialGradient id="paint4_radial_299_141" cx="0" cy="0" r="1" gradientUnits="userSpaceOnUse" gradientTransform="translate(17.257 18.4654) rotate(-174.263) scale(13.9218 13.7263)">
<stop offset="0.01" stop-color="#CFBEAD"/>
<stop offset="1" stop-color="#D4D4D4"/>
</radialGradient>
</defs>
</svg>
